<svg width="35" height="35" viewBox="0 0 35 35" fill="none" xmlns="http://www.w3.org/2000/svg">
<path d="M17.2527 0.146484C13.8702 0.146484 10.5636 1.14951 7.75115 3.02874C4.9387 4.90796 2.74666 7.57897 1.45223 10.704C0.157801 13.829 -0.180881 17.2677 0.479014 20.5852C1.13891 23.9028 2.76774 26.9501 5.15954 29.3419C7.55133 31.7337 10.5987 33.3625 13.9162 34.0224C17.2337 34.6823 20.6724 34.3436 23.7974 33.0492C26.9224 31.7548 29.5935 29.5627 31.4727 26.7503C33.3519 23.9378 34.3549 20.6313 34.3549 17.2488C34.3549 15.0028 33.9126 12.7789 33.0531 10.704C32.1936 8.62905 30.9339 6.74371 29.3458 5.15562C27.7577 3.56753 25.8724 2.30779 23.7974 1.44832C21.7225 0.588848 19.4986 0.146484 17.2527 0.146484ZM18.9629 24.0897C18.9629 24.5432 18.7827 24.9782 18.462 25.299C18.1412 25.6197 17.7062 25.7999 17.2527 25.7999C16.7991 25.7999 16.3641 25.6197 16.0434 25.299C15.7226 24.9782 15.5424 24.5432 15.5424 24.0897V15.5385C15.5424 15.0849 15.7226 14.6499 16.0434 14.3292C16.3641 14.0085 16.7991 13.8283 17.2527 13.8283C17.7062 13.8283 18.1412 14.0085 18.462 14.3292C18.7827 14.6499 18.9629 15.0849 18.9629 15.5385V24.0897ZM17.2527 12.1181C16.9144 12.1181 16.5838 12.0178 16.3025 11.8298C16.0213 11.6419 15.8021 11.3748 15.6726 11.0623C15.5432 10.7498 15.5093 10.4059 15.5753 10.0742C15.6413 9.74244 15.8042 9.43771 16.0434 9.19853C16.2825 8.95935 16.5873 8.79647 16.919 8.73048C17.2508 8.66449 17.5946 8.69836 17.9071 8.8278C18.2196 8.95724 18.4867 9.17645 18.6747 9.45769C18.8626 9.73894 18.9629 10.0696 18.9629 10.4078C18.9629 10.8614 18.7827 11.2964 18.462 11.6172C18.1412 11.9379 17.7062 12.1181 17.2527 12.1181Z" fill="#72B8B7"/>
</svg>
