<svg width="78" height="77" viewBox="0 0 78 77" fill="none" xmlns="http://www.w3.org/2000/svg">
<path d="M31.2201 0C22.1694 0 14.9066 6.21606 14.9066 18.0962C14.9066 25.8543 17.9965 33.7563 22.6883 38.6254C24.5183 43.4944 21.2184 45.3064 20.5344 45.5644C11.0637 49.0385 0 55.3385 0 61.5966V63.9366C0 72.4657 16.2415 74.4367 31.3101 74.4367C34.5944 74.4312 37.8774 74.3072 41.1528 74.0647C37.0515 69.7356 34.7703 63.996 34.781 58.0326C34.781 52.6595 36.6109 47.7365 39.6528 43.7824C39.2029 42.7264 39.0229 41.0614 39.8418 38.5324C44.5067 33.6573 47.5306 25.8243 47.5306 18.0932C47.5306 6.21606 40.2588 0.00300004 31.2171 0.00300004L31.2201 0ZM58.2193 39.0934C53.1969 39.0934 48.3802 41.0886 44.8289 44.6401C41.2775 48.1916 39.2824 53.0085 39.2824 58.0311C39.2824 63.0537 41.2775 67.8705 44.8289 71.422C48.3802 74.9735 53.1969 76.9688 58.2193 76.9688C63.2417 76.9688 68.0584 74.9735 71.6097 71.422C75.1611 67.8705 77.1562 63.0537 77.1562 58.0311C77.1562 53.0085 75.1611 48.1916 71.6097 44.6401C68.0584 41.0886 63.2417 39.0934 58.2193 39.0934ZM55.5944 47.5325H60.8442V55.3145H68.626V60.7506H60.8442V68.5327H55.5944V60.7506H47.7196V55.3145H55.5944V47.5325Z" fill="#0177FD"/>
</svg>
