<svg width="19" height="22" viewBox="0 0 19 22" fill="none" xmlns="http://www.w3.org/2000/svg">
<path d="M7.34952 2.26692C7.50284 1.88798 7.76583 1.56346 8.10478 1.33495C8.44373 1.10645 8.8432 0.984375 9.25198 0.984375C9.66076 0.984375 10.0602 1.10645 10.3992 1.33495C10.7381 1.56346 11.0011 1.88798 11.1544 2.26692C12.6718 2.68423 14.0103 3.58813 14.9642 4.83978C15.9182 6.09144 16.4349 7.62165 16.4349 9.19539V14.0151L18.3148 16.835C18.4179 16.9895 18.4771 17.1691 18.4861 17.3547C18.4952 17.5402 18.4536 17.7248 18.366 17.8886C18.2783 18.0524 18.1479 18.1893 17.9885 18.2848C17.8291 18.3802 17.6468 18.4306 17.4611 18.4306H12.8075C12.684 19.2855 12.2566 20.0672 11.6036 20.6326C10.9506 21.198 10.1157 21.5092 9.25198 21.5092C8.38822 21.5092 7.55337 21.198 6.90038 20.6326C6.24739 20.0672 5.81997 19.2855 5.69642 18.4306H1.04289C0.857117 18.4306 0.674819 18.3802 0.515448 18.2848C0.356077 18.1893 0.22561 18.0524 0.137969 17.8886C0.0503265 17.7248 0.00879703 17.5402 0.0178102 17.3547C0.0268234 17.1691 0.0860412 16.9895 0.189146 16.835L2.06903 14.0151V9.19539C2.06903 5.88713 4.306 3.10014 7.34952 2.26692ZM7.80102 18.4306C7.907 18.7309 8.10351 18.9909 8.36347 19.1749C8.62343 19.3588 8.93404 19.4576 9.25249 19.4576C9.57094 19.4576 9.88155 19.3588 10.1415 19.1749C10.4015 18.9909 10.598 18.7309 10.704 18.4306H7.8H7.80102ZM9.25198 4.06471C7.89124 4.06471 6.58623 4.60526 5.62404 5.56745C4.66185 6.52964 4.1213 7.83465 4.1213 9.19539V14.3261C4.12134 14.5288 4.06136 14.7269 3.94891 14.8956L2.96074 16.3783H15.5422L14.554 14.8956C14.4419 14.7268 14.3823 14.5287 14.3827 14.3261V9.19539C14.3827 7.83465 13.8421 6.52964 12.8799 5.56745C11.9177 4.60526 10.6127 4.06471 9.25198 4.06471Z" fill="white"/>
</svg>
