<svg width="28" height="27" viewBox="0 0 28 27" fill="none" xmlns="http://www.w3.org/2000/svg">
<path d="M12.2134 17.4871C10.7607 18.1883 9.76397 19.6321 9.76397 21.2995M12.3458 16.7824C9.57097 16.0096 7.5429 13.5516 7.5429 10.6383V2.10938H20.8693V11.7044L12.3458 16.7824ZM7.5429 4.24161H1.99023V8.50607C1.99023 11.181 3.9792 12.7705 6.43237 12.7705H7.5429V4.24161ZM23.1276 12.6478C25.0245 12.2278 26.422 10.7482 26.422 8.50607V4.24161H20.8693L23.1276 12.6478ZM11.985 21.2995H6.43237V25.5639H19.2035L11.985 21.2995ZM19.2035 11.7044C15.2169 11.7044 11.985 14.807 11.985 18.6342C11.985 22.4614 15.2169 25.5639 19.2035 25.5639C23.1902 25.5639 26.422 22.4614 26.422 18.6342C26.422 14.807 23.1902 11.7044 19.2035 11.7044ZM23.0904 15.9689L18.093 20.7664L15.3166 18.1011L23.0904 15.9689Z" stroke="white" stroke-width="2.25"/>
</svg>
