<svg width="42" height="29" viewBox="0 0 42 29" fill="none" xmlns="http://www.w3.org/2000/svg">
<path d="M12.8937 14.3528C16.8075 14.3528 19.9752 11.2545 19.9752 7.42642C19.9752 3.59833 16.8075 0.5 12.8937 0.5C8.97986 0.5 5.81214 3.59833 5.81214 7.42642C5.81214 11.2545 8.97986 14.3528 12.8937 14.3528ZM17.7496 16.3318H17.2248C15.9096 16.9502 14.4491 17.3213 12.8937 17.3213C11.3383 17.3213 9.88402 16.9502 8.56255 16.3318H8.03776C4.01647 16.3318 0.753906 19.5229 0.753906 23.4561V25.2372C0.753906 26.876 2.11331 28.2057 3.78885 28.2057H21.9985C23.674 28.2057 25.0334 26.876 25.0334 25.2372V23.4561C25.0334 19.5229 21.7709 16.3318 17.7496 16.3318ZM31.1033 14.3528C34.4544 14.3528 37.1732 11.6936 37.1732 8.4159C37.1732 5.13823 34.4544 2.47898 31.1033 2.47898C27.7522 2.47898 25.0334 5.13823 25.0334 8.4159C25.0334 11.6936 27.7522 14.3528 31.1033 14.3528ZM34.1382 16.3318H33.898C33.0191 16.6287 32.0897 16.8266 31.1033 16.8266C30.1169 16.8266 29.1875 16.6287 28.3086 16.3318H28.0684C26.7785 16.3318 25.5898 16.6967 24.5466 17.2842C26.0893 18.9107 27.0567 21.069 27.0567 23.4561V25.8309C27.0567 25.967 27.0251 26.0968 27.0188 26.2267H38.1848C39.8604 26.2267 41.2198 24.8971 41.2198 23.2582C41.2198 19.4301 38.052 16.3318 34.1382 16.3318Z" fill="#814BFF"/>
</svg>
