<svg width="40" height="40" viewBox="0 0 40 40" fill="none" xmlns="http://www.w3.org/2000/svg">
<path d="M20.3125 0.375C9.43975 0.375 0.625 9.18975 0.625 20.0625C0.625 30.9352 9.43975 39.75 20.3125 39.75C31.1852 39.75 40 30.9352 40 20.0625C40 9.18975 31.1852 0.375 20.3125 0.375ZM20.3125 37.125C10.9045 37.125 3.25 29.4705 3.25 20.0625C3.25 10.6545 10.9045 3 20.3125 3C29.7205 3 37.375 10.6545 37.375 20.0625C37.375 29.4705 29.7205 37.125 20.3125 37.125ZM30.8125 18.75H21.625V9.5625C21.625 9.2144 21.4867 8.88056 21.2406 8.63442C20.9944 8.38828 20.6606 8.25 20.3125 8.25C19.9644 8.25 19.6306 8.38828 19.3844 8.63442C19.1383 8.88056 19 9.2144 19 9.5625V18.75H9.8125C9.4644 18.75 9.13056 18.8883 8.88442 19.1344C8.63828 19.3806 8.5 19.7144 8.5 20.0625C8.5 20.4106 8.63828 20.7444 8.88442 20.9906C9.13056 21.2367 9.4644 21.375 9.8125 21.375H19V30.5625C19 30.9106 19.1383 31.2444 19.3844 31.4906C19.6306 31.7367 19.9644 31.875 20.3125 31.875C20.6606 31.875 20.9944 31.7367 21.2406 31.4906C21.4867 31.2444 21.625 30.9106 21.625 30.5625V21.375H30.8125C31.1606 21.375 31.4944 21.2367 31.7406 20.9906C31.9867 20.7444 32.125 20.4106 32.125 20.0625C32.125 19.7144 31.9867 19.3806 31.7406 19.1344C31.4944 18.8883 31.1606 18.75 30.8125 18.75Z" fill="#7282FB"/>
</svg>
