<svg width="22" height="25" viewBox="0 0 22 25" fill="none" xmlns="http://www.w3.org/2000/svg">
<path d="M13.7793 4.59444C15.2255 4.59444 16.4087 3.56069 16.4087 2.29722C16.4087 1.03375 15.2255 0 13.7793 0C12.3332 0 11.15 1.03375 11.15 2.29722C11.15 3.56069 12.3332 4.59444 13.7793 4.59444ZM9.6118 18.3778L10.3612 15.5062L13.122 17.8034V23.5465C13.122 24.1782 13.7136 24.6951 14.4367 24.6951C15.1597 24.6951 15.7514 24.1782 15.7514 23.5465V17.0683C15.7514 16.4366 15.4621 15.8393 14.9363 15.4029L12.9905 13.7833L13.7793 10.3375C15.2609 11.8173 17.289 12.7967 19.5113 13.1056C20.3002 13.209 21.0101 12.6577 21.0101 11.957C21.0101 11.3942 20.5368 10.9233 19.8926 10.8314C17.8943 10.5442 16.2378 9.51049 15.357 8.15513L14.0423 6.31735C13.5164 5.62819 12.7276 5.16874 11.8073 5.16874C11.4129 5.16874 11.15 5.2836 10.7556 5.2836L5.52314 7.21327C5.04685 7.39114 4.64089 7.68738 4.35573 8.06517C4.07057 8.44296 3.91878 8.88565 3.91923 9.3382V12.0604C3.91923 12.6921 4.51084 13.209 5.23391 13.209C5.95698 13.209 6.54859 12.6921 6.54859 12.0604V9.30374L8.91502 8.49971L6.81153 17.8034L1.65798 16.8846C0.948051 16.7582 0.25127 17.1602 0.106656 17.7805V17.8264C-0.0379593 18.4467 0.422179 19.0554 1.13211 19.1818L6.53544 20.1236C7.2075 20.2402 7.90509 20.1229 8.47968 19.7968C9.05427 19.4708 9.46047 18.9616 9.6118 18.3778Z" fill="black"/>
</svg>
