<svg width="20" height="21" viewBox="0 0 20 21" fill="none" xmlns="http://www.w3.org/2000/svg">
<path d="M16.8841 20.8045H2.74914C1.44805 20.8045 0.393311 19.8764 0.393311 18.7314V2.14631C0.393311 1.00135 1.44805 0.0731752 2.74914 0.0731752H10.9946C11.0052 0.0719624 11.0158 0.0719624 11.0264 0.0731752H11.0334C11.0445 0.0762331 11.056 0.0783166 11.0676 0.0793947C11.1715 0.0852513 11.2741 0.103018 11.3727 0.132259H11.3903H11.408H11.4221C11.4439 0.145652 11.4643 0.160558 11.4834 0.176832C11.6117 0.227022 11.7286 0.29726 11.8285 0.384145L18.896 6.60354C18.9947 6.69142 19.0746 6.79432 19.1316 6.90726C19.1422 6.93006 19.1505 6.95183 19.1587 6.97567L19.1705 7.0047C19.2033 7.09113 19.2228 7.1811 19.2282 7.27213C19.2293 7.28245 19.232 7.29258 19.2364 7.30219V7.30841C19.2383 7.3152 19.2395 7.32214 19.24 7.32914V18.7314C19.24 19.2812 18.9918 19.8085 18.55 20.1973C18.1081 20.5861 17.5089 20.8045 16.8841 20.8045ZM12.6719 12.512V17.6948H13.7792V15.5802H15.4989V14.7116H13.7792V13.3837H15.7062V12.512H12.6719ZM8.31362 12.512V17.6948H9.73419C10.3301 17.7206 10.9072 17.5071 11.3032 17.1143C11.7094 16.6581 11.913 16.0873 11.8756 15.5087V14.6691C11.903 14.0965 11.6938 13.5346 11.2867 13.0873C10.9034 12.7033 10.3439 12.492 9.76364 12.512H8.31362ZM3.92706 12.512V17.6948H5.0343V15.8715H5.77168C6.26407 15.8954 6.74501 15.7351 7.09566 15.4299C7.43028 15.1007 7.60381 14.6687 7.5786 14.2275C7.60051 13.7758 7.42706 13.3336 7.0933 12.9898C6.76315 12.6677 6.28653 12.4924 5.79406 12.512H3.92706ZM10.9946 2.14631V7.32914H16.8841L10.9946 2.14631ZM9.75304 16.8262H9.42086V13.3837H9.82371C10.1098 13.3689 10.3849 13.4828 10.554 13.6864C10.7267 14.0008 10.8007 14.35 10.7684 14.6981V15.5989C10.7943 15.9303 10.7126 16.2613 10.5328 16.5536C10.3398 16.7519 10.0481 16.8538 9.75304 16.8262ZM5.79406 14.9997H5.03312V13.3837H5.80466C5.99727 13.3856 6.17527 13.4744 6.27583 13.619C6.4033 13.8042 6.46485 14.0185 6.45251 14.2348C6.46728 14.4364 6.40646 14.6366 6.27936 14.8049C6.1622 14.9342 5.9819 15.0067 5.79406 14.9997Z" fill="#FF0000"/>
</svg>
