<svg width="33" height="32" viewBox="0 0 33 32" fill="none" xmlns="http://www.w3.org/2000/svg">
<path d="M8.653 22.4476C7.21579 22.4476 6.04682 21.9548 5.17026 20.9765C4.29369 19.9982 3.71842 18.5464 3.38343 16.4342C2.89017 13.3214 3.37962 10.6977 4.76153 9.04695C5.57517 8.07468 6.64307 7.51255 7.84954 7.42208C8.88248 7.34367 10.4265 7.74114 11.9177 10.0759C12.8515 11.5379 13.5615 13.48 13.866 15.4041C14.234 17.7268 13.9601 19.4367 13.0282 20.6303C12.2883 21.5784 11.1505 22.1659 9.6459 22.3794C9.31714 22.4252 8.98528 22.448 8.653 22.4476V22.4476Z" fill="white"/>
<path d="M11.1426 30.5743C10.3029 30.5743 9.45178 30.3192 8.68518 29.8288C7.57897 29.1176 6.81327 28.0208 6.55447 26.7769C6.37331 25.8927 6.48201 25.19 6.88628 24.6273C7.54291 23.7136 8.72141 23.5079 9.96856 23.2895C10.1001 23.2666 10.2336 23.2437 10.369 23.219C10.6563 23.1671 10.95 23.0983 11.2348 23.0314C12.3014 22.7817 13.4049 22.523 14.3158 23.137C14.9254 23.5471 15.2693 24.2443 15.3723 25.2672C15.4892 26.4476 15.2222 27.6255 14.6203 28.5845C13.9725 29.6165 13.0013 30.2987 11.887 30.5061C11.6417 30.5516 11.3925 30.5744 11.1426 30.5743V30.5743Z" fill="white"/>
<path d="M24.1845 16.6577C23.8525 16.6566 23.5211 16.6324 23.1929 16.5853C21.6889 16.3742 20.5511 15.7861 19.8112 14.8362C18.8793 13.6426 18.6034 11.9333 18.9734 9.60995C19.2779 7.68412 19.986 5.74381 20.9153 4.28722C22.3989 1.9609 23.9448 1.5574 24.9835 1.62857C26.1862 1.71181 27.2522 2.26609 28.0671 3.23293C29.4585 4.88373 29.9518 7.51524 29.4566 10.6419C29.1216 12.7529 28.554 14.1974 27.6698 15.1842C26.7856 16.1709 25.6217 16.6577 24.1845 16.6577Z" fill="white"/>
<path d="M21.6946 24.7836C21.4454 24.7836 21.1967 24.7607 20.9521 24.7154C19.8359 24.5079 18.8646 23.8258 18.2188 22.7938C17.6169 21.8348 17.3499 20.6569 17.4668 19.4765C17.5685 18.4512 17.9118 17.7564 18.5233 17.3456C19.4342 16.7322 20.5377 16.9904 21.6043 17.2407C21.8891 17.307 22.1827 17.3758 22.4701 17.4283L22.8699 17.4988C24.1177 17.7166 25.2962 17.921 25.9528 18.836C26.3571 19.3987 26.4658 20.1026 26.2846 20.9856C26.026 22.2297 25.2603 23.3268 24.1539 24.0381C23.3829 24.5291 22.5317 24.7836 21.6946 24.7836Z" fill="white"/>
</svg>
