<svg width="42" height="68" viewBox="0 0 42 68" fill="none"
    xmlns="http://www.w3.org/2000/svg">
    <path d="M34.7109 11.4816C34.7109 9.16273 33.0022 7.41406 30.7365 7.41406H25.9219V4.84414C25.9219 2.60135 24.186 0.910156 21.8842 0.910156H20.2002C17.8305 0.910156 15.9023 2.675 15.9023 4.84414V7.41406H11.3496C9.01383 7.41406 7.11328 9.23885 7.11328 11.4816V17.7852H34.7109V11.4816ZM4.30078 17.7852H0.785156V67.0039H41.2148V17.7852H37.5234V20.5977H4.30078V17.7852ZM14.0995 31.3203H24.3848C24.7578 31.3203 25.1155 31.4685 25.3792 31.7322C25.6429 31.9959 25.7911 32.3536 25.7911 32.7266C25.7911 33.0995 25.6429 33.4572 25.3792 33.7209C25.1155 33.9847 24.7578 34.1328 24.3848 34.1328H14.0995C13.7266 34.1328 13.3689 33.9847 13.1052 33.7209C12.8414 33.4572 12.6933 33.0995 12.6933 32.7266C12.6933 32.3536 12.8414 31.9959 13.1052 31.7322C13.3689 31.4685 13.7266 31.3203 14.0995 31.3203ZM14.0995 38.3516H34.9317C35.3047 38.3516 35.6624 38.4997 35.9261 38.7634C36.1898 39.0272 36.338 39.3849 36.338 39.7578C36.338 40.1308 36.1898 40.4885 35.9261 40.7522C35.6624 41.0159 35.3047 41.1641 34.9317 41.1641H14.0995C13.7266 41.1641 13.3689 41.0159 13.1052 40.7522C12.8414 40.4885 12.6933 40.1308 12.6933 39.7578C12.6933 39.3849 12.8414 39.0272 13.1052 38.7634C13.3689 38.4997 13.7266 38.3516 14.0995 38.3516ZM14.0995 45.3828H34.9317C35.3047 45.3828 35.6624 45.531 35.9261 45.7947C36.1898 46.0584 36.338 46.4161 36.338 46.7891C36.338 47.162 36.1898 47.5197 35.9261 47.7834C35.6624 48.0472 35.3047 48.1953 34.9317 48.1953H14.0995C13.7266 48.1953 13.3689 48.0472 13.1052 47.7834C12.8414 47.5197 12.6933 47.162 12.6933 46.7891C12.6933 46.4161 12.8414 46.0584 13.1052 45.7947C13.3689 45.531 13.7266 45.3828 14.0995 45.3828ZM14.0995 52.4141H34.9317C35.3047 52.4141 35.6624 52.5622 35.9261 52.8259C36.1898 53.0897 36.338 53.4474 36.338 53.8203C36.338 54.1933 36.1898 54.551 35.9261 54.8147C35.6624 55.0784 35.3047 55.2266 34.9317 55.2266H14.0995C13.7266 55.2266 13.3689 55.0784 13.1052 54.8147C12.8414 54.551 12.6933 54.1933 12.6933 53.8203C12.6933 53.4474 12.8414 53.0897 13.1052 52.8259C13.3689 52.5622 13.7266 52.4141 14.0995 52.4141ZM7.06828 31.3203H9.04688C9.41984 31.3203 9.77752 31.4685 10.0412 31.7322C10.305 31.9959 10.4531 32.3536 10.4531 32.7266C10.4531 33.0995 10.305 33.4572 10.0412 33.7209C9.77752 33.9847 9.41984 34.1328 9.04688 34.1328H7.06828C6.69532 34.1328 6.33764 33.9847 6.07391 33.7209C5.81019 33.4572 5.66203 33.0995 5.66203 32.7266C5.66203 32.3536 5.81019 31.9959 6.07391 31.7322C6.33764 31.4685 6.69532 31.3203 7.06828 31.3203ZM7.06828 38.3516H9.04688C9.41984 38.3516 9.77752 38.4997 10.0412 38.7634C10.305 39.0272 10.4531 39.3849 10.4531 39.7578C10.4531 40.1308 10.305 40.4885 10.0412 40.7522C9.77752 41.0159 9.41984 41.1641 9.04688 41.1641H7.06828C6.69532 41.1641 6.33764 41.0159 6.07391 40.7522C5.81019 40.4885 5.66203 40.1308 5.66203 39.7578C5.66203 39.3849 5.81019 39.0272 6.07391 38.7634C6.33764 38.4997 6.69532 38.3516 7.06828 38.3516ZM7.06828 45.3828H9.04688C9.41984 45.3828 9.77752 45.531 10.0412 45.7947C10.305 46.0584 10.4531 46.4161 10.4531 46.7891C10.4531 47.162 10.305 47.5197 10.0412 47.7834C9.77752 48.0472 9.41984 48.1953 9.04688 48.1953H7.06828C6.69532 48.1953 6.33764 48.0472 6.07391 47.7834C5.81019 47.5197 5.66203 47.162 5.66203 46.7891C5.66203 46.4161 5.81019 46.0584 6.07391 45.7947C6.33764 45.531 6.69532 45.3828 7.06828 45.3828ZM7.06828 52.4141H9.04688C9.41984 52.4141 9.77752 52.5622 10.0412 52.8259C10.305 53.0897 10.4531 53.4474 10.4531 53.8203C10.4531 54.1933 10.305 54.551 10.0412 54.8147C9.77752 55.0784 9.41984 55.2266 9.04688 55.2266H7.06828C6.69532 55.2266 6.33764 55.0784 6.07391 54.8147C5.81019 54.551 5.66203 54.1933 5.66203 53.8203C5.66203 53.4474 5.81019 53.0897 6.07391 52.8259C6.33764 52.5622 6.69532 52.4141 7.06828 52.4141Z" fill="#0177FD"/>
</svg>
