<svg width="16" height="11" viewBox="0 0 16 11" fill="none" xmlns="http://www.w3.org/2000/svg">
<path d="M8.70438 9.91774C8.49223 10.1367 8.20454 10.2598 7.90457 10.2598C7.6046 10.2598 7.31691 10.1367 7.10476 9.91774L0.317131 2.90864C0.11106 2.68832 -0.00296497 2.39323 -0.000388145 2.08694C0.00218964 1.78064 0.121165 1.48765 0.330913 1.27106C0.540659 1.05447 0.824396 0.931611 1.12101 0.928949C1.41763 0.926289 1.70339 1.04403 1.91675 1.25683L7.90457 7.44002L13.8924 1.25683C14.1058 1.04403 14.3915 0.926289 14.6881 0.928949C14.9847 0.931611 15.2685 1.05447 15.4782 1.27106C15.688 1.48765 15.807 1.78064 15.8095 2.08694C15.8121 2.39323 15.6981 2.68832 15.492 2.90864L8.70438 9.91774Z" fill="#DA844C"/>
</svg>
