<svg width="178" height="201" viewBox="0 0 178 201" fill="none" xmlns="http://www.w3.org/2000/svg">
<path d="M163.666 74.9435L163.918 74.704L175.296 64.2698C175.931 63.6865 176.436 62.9941 176.78 62.2319C177.124 61.4698 177.301 60.6529 177.301 59.828C177.301 59.003 177.124 58.1862 176.78 57.424C176.436 56.6619 175.931 55.9694 175.296 55.3862L165.591 46.4829C164.955 45.8995 164.201 45.4368 163.37 45.121C162.539 44.8053 161.649 44.6428 160.75 44.6428C159.851 44.6428 158.96 44.8053 158.129 45.121C157.299 45.4368 156.544 45.8995 155.908 46.4829L145.348 56.1713C133.097 46.9334 118.364 40.8876 102.693 38.6671V25.1238H116.385C118.2 25.1238 119.942 24.462 121.226 23.2841C122.51 22.1062 123.231 20.5087 123.231 18.8428V6.28095C123.231 4.61514 122.51 3.01755 121.226 1.83965C119.942 0.661741 118.2 0 116.385 0L61.6158 0C59.8019 0.00517646 58.0638 0.668579 56.7811 1.84537C55.4985 3.02215 54.7754 4.61673 54.7697 6.28095V18.8428C54.7754 20.5071 55.4985 22.1016 56.7811 23.2784C58.0638 24.4552 59.8019 25.1186 61.6158 25.1238H75.3081V38.6671C54.7952 41.5902 36.0422 51.0023 22.2963 65.2738C8.55038 79.5454 0.676962 97.7777 0.0393336 116.814C-1.43686 161.538 38.8354 200.292 87.5968 200.99C137.407 201.685 178 164.875 178 119.338C178.04 103.574 173.058 88.1436 163.666 74.9435ZM80.601 148.211C81.5308 148.198 82.4281 148.525 83.0956 149.119C83.7631 149.713 84.1463 150.526 84.1609 151.379V160.137C84.1463 160.99 83.7631 161.803 83.0956 162.397C82.4281 162.991 81.5308 163.317 80.601 163.305H45.1509C44.1774 163.315 43.212 163.14 42.3159 162.791C41.4197 162.442 40.6122 161.926 39.9444 161.276C39.2765 160.626 38.7628 159.856 38.4357 159.015C38.1086 158.173 37.9751 157.279 38.0438 156.388C39.2333 142.562 44.3208 133.851 54.4959 120.52C63.2332 109.061 66.0915 105.869 66.0915 96.0475C66.0915 89.4054 65.3256 86.52 60.867 86.52C56.8492 86.52 55.4372 89.425 55.4372 95.4233V97.4764C55.43 97.8991 55.332 98.3164 55.149 98.7044C54.9659 99.0924 54.7013 99.4435 54.3704 99.7377C54.0394 100.032 53.6485 100.263 53.22 100.419C52.7915 100.574 52.3337 100.651 51.873 100.644H41.2187C40.7579 100.651 40.3002 100.574 39.8717 100.419C39.4432 100.263 39.0523 100.032 38.7213 99.7377C38.3903 99.4435 38.1257 99.0924 37.9427 98.7044C37.7596 98.3164 37.6617 97.8991 37.6544 97.4764V95.8787C37.6544 85.1618 41.2829 72.2309 61.7998 72.2309C80.1988 72.2309 85.5772 82.3785 85.5772 96.177C85.5772 110.144 80.2544 116.28 70.8795 128.096C65.9332 133.984 60.3493 142.059 59.5791 148.195L80.601 148.211ZM140.346 138.306C140.346 152.109 135.083 163.305 115.858 163.305C97.2113 163.305 92.4233 151.716 92.4233 138.397V97.0485C92.4233 81.0596 100.801 72.2309 116.47 72.2309C132.216 72.2309 140.346 81.1184 140.346 96.2948V138.306ZM116.329 87.0421C112.303 87.0421 110.668 89.9863 110.668 94.8933V140.411C110.668 145.557 112.204 148.493 116.329 148.493C120.454 148.493 121.892 145.353 121.892 140.144V94.6303C121.9 90.2062 120.612 87.0421 116.329 87.0421Z" fill="white" fill-opacity="0.2"/>
</svg>
