<svg width="25" height="27" viewBox="0 0 25 27" fill="none" xmlns="http://www.w3.org/2000/svg">
<path d="M22.8264 9.95071L22.8602 9.9191L24.3802 8.54157C24.4651 8.46457 24.5325 8.37315 24.5785 8.27253C24.6245 8.17191 24.6481 8.06407 24.6481 7.95516C24.6481 7.84625 24.6245 7.73841 24.5785 7.63779C24.5325 7.53717 24.4651 7.44575 24.3802 7.36875L23.0837 6.19334C22.9987 6.11632 22.8979 6.05522 22.7869 6.01354C22.6759 5.97186 22.557 5.9504 22.4369 5.9504C22.3167 5.9504 22.1978 5.97186 22.0868 6.01354C21.9758 6.05522 21.875 6.11632 21.79 6.19334L20.3792 7.4724C18.7425 6.25281 16.7743 5.45464 14.6805 5.16149V3.37349H16.5098C16.7523 3.37349 16.985 3.28613 17.1565 3.13062C17.328 2.97512 17.4244 2.7642 17.4244 2.54428V0.885854C17.4244 0.665933 17.328 0.455019 17.1565 0.299512C16.985 0.144004 16.7523 0.0566406 16.5098 0.0566406L9.19272 0.0566406C8.95038 0.057324 8.71818 0.144907 8.54682 0.300267C8.37545 0.455626 8.27885 0.666143 8.27809 0.885854V2.54428C8.27885 2.76399 8.37545 2.97451 8.54682 3.12987C8.71818 3.28523 8.95038 3.37281 9.19272 3.37349H11.022V5.16149C8.28149 5.54739 5.77613 6.78999 3.93969 8.67412C2.10326 10.5583 1.05138 12.9653 0.966192 15.4785C0.768975 21.383 6.14929 26.4992 12.6637 26.5915C19.3183 26.6832 24.7414 21.8235 24.7414 15.8117C24.7469 13.7306 24.0812 11.6934 22.8264 9.95071V9.95071ZM11.7291 19.6235C11.8533 19.6218 11.9732 19.6649 12.0624 19.7434C12.1516 19.8218 12.2028 19.9291 12.2047 20.0417V21.198C12.2028 21.3106 12.1516 21.4179 12.0624 21.4963C11.9732 21.5747 11.8533 21.6179 11.7291 21.6162H6.99304C6.86297 21.6176 6.734 21.5945 6.61428 21.5484C6.49455 21.5023 6.38667 21.4342 6.29745 21.3483C6.20823 21.2625 6.13959 21.1609 6.09589 21.0498C6.05219 20.9387 6.03436 20.8207 6.04354 20.703C6.20245 18.8777 6.88214 17.7277 8.24151 15.9677C9.40881 14.4549 9.79067 14.0336 9.79067 12.7369C9.79067 11.86 9.68834 11.4791 9.09269 11.4791C8.55591 11.4791 8.36727 11.8626 8.36727 12.6545V12.9255C8.3663 12.9813 8.35322 13.0364 8.32876 13.0876C8.30431 13.1389 8.26896 13.1852 8.22474 13.2241C8.18052 13.2629 8.1283 13.2935 8.07105 13.314C8.0138 13.3345 7.95265 13.3446 7.89109 13.3438H6.4677C6.40614 13.3446 6.34499 13.3345 6.28774 13.314C6.23049 13.2935 6.17827 13.2629 6.13405 13.2241C6.08983 13.1852 6.05448 13.1389 6.03003 13.0876C6.00557 13.0364 5.99249 12.9813 5.99152 12.9255V12.7146C5.99152 11.2997 6.47627 9.5926 9.21731 9.5926C11.6754 9.5926 12.3939 10.9323 12.3939 12.754C12.3939 14.5979 11.6828 15.408 10.4303 16.9679C9.76951 17.7453 9.02352 18.8114 8.92062 19.6214L11.7291 19.6235ZM19.711 18.3159C19.711 20.1381 19.0079 21.6162 16.4395 21.6162C13.9482 21.6162 13.3086 20.0863 13.3086 18.3278V12.869C13.3086 10.7582 14.4278 9.5926 16.5212 9.5926C18.6249 9.5926 19.711 10.7659 19.711 12.7695V18.3159ZM16.5023 11.548C15.9644 11.548 15.7461 11.9367 15.7461 12.5845V18.5937C15.7461 19.2731 15.9513 19.6608 16.5023 19.6608C17.0534 19.6608 17.2455 19.2462 17.2455 18.5585V12.5498C17.2466 11.9657 17.0746 11.548 16.5023 11.548Z" fill="white"/>
</svg>
