<svg width="74" height="57" viewBox="0 0 74 57" fill="none" xmlns="http://www.w3.org/2000/svg">
<path d="M9.30998 10.017C6.862 10.017 4.51428 10.9894 2.7833 12.7204C1.05232 14.4514 0.0798645 16.7991 0.0798645 19.2471L0.0798645 46.9374C0.0798645 49.3854 1.05232 51.7331 2.7833 53.4641C4.51428 55.1951 6.862 56.1675 9.30998 56.1675H64.6907C67.1386 56.1675 69.4864 55.1951 71.2173 53.4641C72.9483 51.7331 73.9208 49.3854 73.9208 46.9374V19.2471C73.9208 16.7991 72.9483 14.4514 71.2173 12.7204C69.4864 10.9894 67.1386 10.017 64.6907 10.017H59.2818C56.834 10.0165 54.4867 9.04366 52.7561 7.31256L48.9349 3.49129C47.2043 1.76019 44.8569 0.787388 42.4092 0.786865H31.5915C29.1437 0.787388 26.7964 1.76019 25.0658 3.49129L21.2445 7.31256C19.5139 9.04366 17.1666 10.0165 14.7188 10.017H9.30998ZM11.6175 19.2471C11.0055 19.2471 10.4186 19.004 9.98584 18.5712C9.55309 18.1385 9.30998 17.5516 9.30998 16.9396C9.30998 16.3276 9.55309 15.7406 9.98584 15.3079C10.4186 14.8751 11.0055 14.632 11.6175 14.632C12.2295 14.632 12.8164 14.8751 13.2492 15.3079C13.6819 15.7406 13.925 16.3276 13.925 16.9396C13.925 17.5516 13.6819 18.1385 13.2492 18.5712C12.8164 19.004 12.2295 19.2471 11.6175 19.2471ZM53.153 30.7847C53.153 35.0687 51.4512 39.1772 48.422 42.2064C45.3928 45.2356 41.2843 46.9374 37.0003 46.9374C32.7164 46.9374 28.6079 45.2356 25.5786 42.2064C22.5494 39.1772 20.8476 35.0687 20.8476 30.7847C20.8476 26.5008 22.5494 22.3923 25.5786 19.3631C28.6079 16.3338 32.7164 14.632 37.0003 14.632C41.2843 14.632 45.3928 16.3338 48.422 19.3631C51.4512 22.3923 53.153 26.5008 53.153 30.7847Z" fill="black"/>
</svg>
