<svg width="13" height="13" viewBox="0 0 13 13" fill="none" xmlns="http://www.w3.org/2000/svg">
<path d="M0.631282 0.631282C0.97299 0.289573 1.52701 0.289573 1.86872 0.631282L6.5 5.26256L11.1313 0.631282C11.473 0.289573 12.027 0.289573 12.3687 0.631282C12.7104 0.97299 12.7104 1.52701 12.3687 1.86872L7.73744 6.5L12.3687 11.1313C12.7104 11.473 12.7104 12.027 12.3687 12.3687C12.027 12.7104 11.473 12.7104 11.1313 12.3687L6.5 7.73744L1.86872 12.3687C1.52701 12.7104 0.97299 12.7104 0.631282 12.3687C0.289573 12.027 0.289573 11.473 0.631282 11.1313L5.26256 6.5L0.631282 1.86872C0.289573 1.52701 0.289573 0.97299 0.631282 0.631282Z" fill="black"/>
</svg>
