<svg width="31" height="27" viewBox="0 0 31 27" fill="none" xmlns="http://www.w3.org/2000/svg">
<path d="M2.37435 0.374793C1.98757 0.374793 1.61664 0.528438 1.34315 0.801928C1.06966 1.07542 0.916016 1.44635 0.916016 1.83313V9.85396C0.916016 12.3185 2.4181 14.4185 4.56185 15.279V24.4373C4.56185 25.0175 4.79232 25.5738 5.20255 25.9841C5.61279 26.3943 6.16919 26.6248 6.74935 26.6248C7.32951 26.6248 7.88591 26.3943 8.29614 25.9841C8.70638 25.5738 8.93685 25.0175 8.93685 24.4373V15.279C11.0806 14.4185 12.5827 12.3185 12.5827 9.85396V1.83313C12.5827 1.44635 12.429 1.07542 12.1555 0.801928C11.8821 0.528438 11.5111 0.374793 11.1243 0.374793C10.7376 0.374793 10.3666 0.528438 10.0932 0.801928C9.81966 1.07542 9.66601 1.44635 9.66602 1.83313V7.66646C9.66602 7.85985 9.58919 8.04531 9.45245 8.18206C9.3157 8.3188 9.13024 8.39563 8.93685 8.39563C8.74346 8.39563 8.558 8.3188 8.42125 8.18206C8.2845 8.04531 8.20768 7.85985 8.20768 7.66646V1.83313C8.20768 1.44635 8.05404 1.07542 7.78055 0.801928C7.50706 0.528438 7.13612 0.374793 6.74935 0.374793C6.36257 0.374793 5.99164 0.528438 5.71815 0.801928C5.44466 1.07542 5.29102 1.44635 5.29102 1.83313V7.66646C5.29102 7.85985 5.21419 8.04531 5.07745 8.18206C4.9407 8.3188 4.75524 8.39563 4.56185 8.39563C4.36846 8.39563 4.183 8.3188 4.04625 8.18206C3.9095 8.04531 3.83268 7.85985 3.83268 7.66646V1.83313C3.83268 1.44635 3.67904 1.07542 3.40555 0.801928C3.13206 0.528438 2.76112 0.374793 2.37435 0.374793ZM26.991 0.374793C26.8014 0.374793 26.6118 0.506043 26.4368 0.608126L21.3327 3.65604V9.12479H15.4993V12.0415H16.9577L18.416 26.6248H27.166L28.6243 12.0415H30.0827V9.12479H24.2493V5.24563L27.8952 3.05813C28.6243 2.64979 28.8139 1.83313 28.391 1.10396C28.0848 0.578959 27.5452 0.301876 26.991 0.374793Z" fill="white"/>
</svg>
