<svg width="275" height="270" viewBox="0 0 275 270" fill="none" xmlns="http://www.w3.org/2000/svg">
<path d="M0.742188 40.9824C0.742188 22.1262 0.742188 12.6982 6.60005 6.84029C12.4579 0.982422 21.886 0.982422 40.7422 0.982422H235C253.856 0.982422 263.284 0.982422 269.142 6.84029C275 12.6982 275 22.1262 275 40.9824V229.899C275 248.755 275 258.183 269.142 264.041C263.284 269.899 253.856 269.899 235 269.899H40.7422C21.886 269.899 12.4579 269.899 6.60005 264.041C0.742188 258.183 0.742188 248.755 0.742188 229.899V40.9824Z" fill="url(#paint0_linear_6309_25841)" fill-opacity="0.8"/>
<path d="M188.158 235.809H191.862V245.982H190.239V237.328H188.158V235.809ZM200.373 235.788V237.348H196.088V239.845C196.518 239.609 197.003 239.491 197.544 239.491C198.529 239.491 199.354 239.789 200.02 240.386C200.699 240.968 201.039 241.738 201.039 242.695C201.039 243.666 200.679 244.478 199.957 245.129C199.236 245.781 198.355 246.107 197.315 246.107C195.942 246.107 194.846 245.65 194.028 244.734L194.943 243.486C194.957 243.5 194.999 243.541 195.068 243.611C195.151 243.666 195.221 243.715 195.276 243.756C195.443 243.895 195.727 244.048 196.129 244.214C196.545 244.367 196.968 244.443 197.398 244.443C197.925 244.443 198.376 244.29 198.751 243.985C199.139 243.68 199.333 243.264 199.333 242.737C199.333 242.196 199.125 241.773 198.709 241.468C198.293 241.149 197.759 240.989 197.107 240.989C196.469 240.989 195.852 241.149 195.255 241.468L194.527 240.677V235.788H200.373ZM204.252 240.823C204.252 242.002 204.46 242.931 204.876 243.611C205.292 244.29 205.917 244.63 206.749 244.63C207.581 244.63 208.198 244.297 208.6 243.631C209.003 242.952 209.204 242.016 209.204 240.823C209.204 239.63 209.003 238.701 208.6 238.035C208.198 237.355 207.581 237.016 206.749 237.016C205.875 237.016 205.251 237.369 204.876 238.077C204.46 238.77 204.252 239.685 204.252 240.823ZM202.588 240.823C202.588 239.186 202.941 237.903 203.649 236.974C204.356 236.031 205.389 235.559 206.749 235.559C208.108 235.559 209.134 236.024 209.828 236.953C210.535 237.882 210.889 239.172 210.889 240.823C210.889 242.473 210.535 243.77 209.828 244.713C209.134 245.643 208.108 246.107 206.749 246.107C205.362 246.107 204.321 245.622 203.628 244.651C202.934 243.708 202.588 242.432 202.588 240.823ZM214.283 240.823C214.283 242.002 214.491 242.931 214.908 243.611C215.324 244.29 215.948 244.63 216.78 244.63C217.612 244.63 218.229 244.297 218.632 243.631C219.034 242.952 219.235 242.016 219.235 240.823C219.235 239.63 219.034 238.701 218.632 238.035C218.229 237.355 217.612 237.016 216.78 237.016C215.906 237.016 215.282 237.369 214.908 238.077C214.491 238.77 214.283 239.685 214.283 240.823ZM212.619 240.823C212.619 239.186 212.973 237.903 213.68 236.974C214.387 236.031 215.421 235.559 216.78 235.559C218.139 235.559 219.166 236.024 219.859 236.953C220.566 237.882 220.92 239.172 220.92 240.823C220.92 242.473 220.566 243.77 219.859 244.713C219.166 245.643 218.139 246.107 216.78 246.107C215.393 246.107 214.353 245.622 213.659 244.651C212.966 243.708 212.619 242.432 212.619 240.823ZM228.607 245.982H226.984V238.243H228.607V239.637C228.842 239.165 229.196 238.798 229.668 238.534C230.139 238.257 230.645 238.118 231.186 238.118C232.421 238.118 233.253 238.624 233.683 239.637C234.446 238.624 235.403 238.118 236.554 238.118C237.442 238.118 238.149 238.389 238.676 238.93C239.203 239.47 239.467 240.24 239.467 241.239V245.982H237.844V241.738C237.844 240.31 237.248 239.595 236.055 239.595C235.472 239.595 234.98 239.783 234.578 240.157C234.189 240.518 233.988 241.024 233.974 241.676V245.982H232.331V241.738C232.331 241.003 232.199 240.462 231.935 240.115C231.672 239.769 231.263 239.595 230.708 239.595C230.111 239.595 229.612 239.789 229.21 240.178C228.808 240.552 228.607 241.086 228.607 241.78V245.982ZM243.387 245.982H241.765V235.185H243.387V245.982Z" fill="white"/>
<path d="M66.8525 240.806H68.636V244.438C67.6355 245.555 66.2 246.113 64.3294 246.113C62.7489 246.113 61.4293 245.591 60.3708 244.547C59.3123 243.503 58.783 242.198 58.783 240.632C58.783 239.066 59.3195 237.753 60.3926 236.695C61.4801 235.622 62.7924 235.085 64.3294 235.085C65.8665 235.085 67.1425 235.528 68.1575 236.412L67.2005 237.782C66.461 237.159 65.5547 236.847 64.4817 236.847C63.3941 236.847 62.4806 237.202 61.7411 237.913C61.0161 238.609 60.6536 239.515 60.6536 240.632C60.6536 241.748 61.0016 242.655 61.6976 243.351C62.4081 244.032 63.2854 244.373 64.3294 244.373C65.3445 244.373 66.1855 244.155 66.8525 243.72V240.806ZM74.4971 244.59C75.2367 244.59 75.8457 244.344 76.3242 243.851C76.8172 243.358 77.0637 242.72 77.0637 241.937C77.0637 241.154 76.8172 240.516 76.3242 240.023C75.8457 239.53 75.2367 239.283 74.4971 239.283C73.7576 239.283 73.1486 239.53 72.6701 240.023C72.1916 240.516 71.9523 241.154 71.9523 241.937C71.9523 242.72 72.1916 243.351 72.6701 243.829C73.1486 244.337 73.7576 244.59 74.4971 244.59ZM74.4971 246.113C73.2791 246.113 72.2641 245.714 71.4521 244.917C70.64 244.105 70.234 243.111 70.234 241.937C70.234 240.762 70.64 239.776 71.4521 238.979C72.2641 238.167 73.2791 237.761 74.4971 237.761C75.7152 237.761 76.7302 238.167 77.5422 238.979C78.3543 239.776 78.7603 240.762 78.7603 241.937C78.7603 243.068 78.3543 244.054 77.5422 244.895C76.7302 245.707 75.7152 246.113 74.4971 246.113ZM87.2351 245.982H85.6908V244.895C85.0092 245.707 84.1102 246.113 82.9937 246.113C82.1382 246.113 81.4349 245.874 80.8839 245.395C80.3474 244.902 80.0791 244.264 80.0791 243.481C80.0791 242.698 80.3691 242.104 80.9491 241.698C81.5291 241.292 82.3267 241.089 83.3417 241.089H85.5603V240.784C85.5603 239.711 84.9585 239.174 83.755 239.174C83.0009 239.174 82.2179 239.45 81.4059 240.001L80.6446 238.935C81.6451 238.152 82.7617 237.761 83.9942 237.761C84.9947 237.761 85.785 238.014 86.365 238.522C86.945 239.015 87.2351 239.762 87.2351 240.762V245.982ZM85.5385 242.285H83.6245C82.3919 242.285 81.7757 242.669 81.7757 243.438C81.7757 243.829 81.9279 244.134 82.2324 244.351C82.5369 244.554 82.9647 244.656 83.5157 244.656C84.0812 244.656 84.5597 244.503 84.9512 244.199C85.3427 243.88 85.5385 243.467 85.5385 242.959V242.285ZM91.3266 245.982H89.6301V234.694H91.3266V245.982Z" fill="white"/>
<path d="M102.113 42.3329L106.608 27.8175H109.66L114.155 42.3329L119.227 27.8175H122.897L115.845 47.9824H112.464L108.258 34.168H108.01L103.763 47.9824H100.381L93.3299 27.8175H97L102.113 42.3329ZM138.036 47.9824H135.108V45.9206C133.816 47.4601 132.112 48.2298 129.995 48.2298C128.373 48.2298 127.04 47.7762 125.995 46.869C124.978 45.9343 124.469 44.7247 124.469 43.2402C124.469 41.7556 125.019 40.6285 126.119 39.8587C127.218 39.089 128.73 38.7041 130.655 38.7041H134.861V38.1268C134.861 36.0924 133.72 35.0752 131.438 35.0752C130.009 35.0752 128.524 35.5975 126.985 36.6422L125.541 34.6216C127.438 33.1371 129.555 32.3948 131.892 32.3948C133.789 32.3948 135.287 32.8759 136.387 33.8381C137.486 34.7728 138.036 36.1886 138.036 38.0855V47.9824ZM134.82 40.9721H131.191C128.854 40.9721 127.686 41.7006 127.686 43.1577C127.686 43.8999 127.974 44.4773 128.552 44.8896C129.129 45.2745 129.94 45.467 130.985 45.467C132.057 45.467 132.964 45.1783 133.706 44.601C134.449 43.9962 134.82 43.2127 134.82 42.2505V40.9721ZM146.536 35.2402V43.034C146.536 43.7762 146.728 44.3673 147.113 44.8072C147.526 45.2195 148.075 45.4257 148.763 45.4257C149.395 45.4257 150.055 45.0821 150.742 44.3948L152.062 46.7041C150.907 47.7213 149.656 48.2298 148.309 48.2298C146.907 48.2298 145.725 47.7487 144.763 46.7865C143.8 45.7969 143.319 44.5185 143.319 42.9515V35.2402H141.381V32.6422H143.319V27.8175H146.536V32.6422H150.577V35.2402H146.536ZM168.915 41.7144H156.874C156.957 42.814 157.465 43.7075 158.4 44.3948C159.335 45.0821 160.421 45.4257 161.658 45.4257C163.61 45.4257 165.067 44.8209 166.029 43.6113L167.885 45.6319C166.235 47.3639 164.077 48.2298 161.41 48.2298C159.211 48.2298 157.369 47.5013 155.885 46.0443C154.4 44.5872 153.658 42.6628 153.658 40.2711C153.658 37.9343 154.414 36.0374 155.926 34.5804C157.438 33.1233 159.266 32.3948 161.41 32.3948C163.555 32.3948 165.342 33.0408 166.771 34.3329C168.201 35.625 168.915 37.3432 168.915 39.4876V41.7144ZM165.699 39.1577C165.699 37.9206 165.3 36.9446 164.503 36.2298C163.733 35.5151 162.73 35.1577 161.493 35.1577C160.256 35.1577 159.17 35.5288 158.235 36.2711C157.328 37.0133 156.874 37.9755 156.874 39.1577H165.699ZM175.715 41.3845V47.9824H172.499V32.6422H175.715V35.6938C176.238 34.7316 176.939 33.9481 177.819 33.3432C178.726 32.7384 179.674 32.4223 180.664 32.3948L180.705 35.6525H180.54C178.973 35.6525 177.777 36.1611 176.953 37.1783C176.128 38.1955 175.715 39.5975 175.715 41.3845Z" fill="white"/>
<path d="M123.021 117.776V120.869H114.526V125.817C115.378 125.35 116.34 125.116 117.412 125.116C119.364 125.116 121 125.708 122.32 126.89C123.667 128.044 124.34 129.57 124.34 131.467C124.34 133.391 123.625 135 122.196 136.292C120.766 137.584 119.021 138.23 116.959 138.23C114.237 138.23 112.065 137.323 110.443 135.508L112.258 133.034C112.285 133.061 112.368 133.144 112.505 133.281C112.67 133.391 112.808 133.488 112.918 133.57C113.247 133.845 113.811 134.147 114.608 134.477C115.433 134.78 116.271 134.931 117.124 134.931C118.168 134.931 119.062 134.628 119.804 134.024C120.574 133.419 120.959 132.594 120.959 131.549C120.959 130.477 120.546 129.639 119.722 129.034C118.897 128.402 117.838 128.086 116.546 128.086C115.282 128.086 114.058 128.402 112.876 129.034L111.433 127.467V117.776H123.021ZM130.708 127.756C130.708 130.092 131.121 131.934 131.946 133.281C132.77 134.628 134.007 135.302 135.657 135.302C137.306 135.302 138.53 134.642 139.327 133.323C140.124 131.976 140.523 130.12 140.523 127.756C140.523 125.391 140.124 123.549 139.327 122.23C138.53 120.883 137.306 120.209 135.657 120.209C133.925 120.209 132.688 120.91 131.946 122.312C131.121 123.687 130.708 125.501 130.708 127.756ZM127.409 127.756C127.409 124.512 128.111 121.969 129.513 120.127C130.915 118.257 132.963 117.323 135.657 117.323C138.351 117.323 140.385 118.244 141.76 120.086C143.162 121.927 143.863 124.484 143.863 127.756C143.863 131.027 143.162 133.598 141.76 135.467C140.385 137.309 138.351 138.23 135.657 138.23C132.908 138.23 130.846 137.268 129.471 135.343C128.097 133.474 127.409 130.945 127.409 127.756ZM150.591 127.756C150.591 130.092 151.004 131.934 151.828 133.281C152.653 134.628 153.89 135.302 155.54 135.302C157.189 135.302 158.413 134.642 159.21 133.323C160.007 131.976 160.406 130.12 160.406 127.756C160.406 125.391 160.007 123.549 159.21 122.23C158.413 120.883 157.189 120.209 155.54 120.209C153.808 120.209 152.571 120.91 151.828 122.312C151.004 123.687 150.591 125.501 150.591 127.756ZM147.292 127.756C147.292 124.512 147.993 121.969 149.395 120.127C150.797 118.257 152.846 117.323 155.54 117.323C158.234 117.323 160.268 118.244 161.643 120.086C163.045 121.927 163.746 124.484 163.746 127.756C163.746 131.027 163.045 133.598 161.643 135.467C160.268 137.309 158.234 138.23 155.54 138.23C152.791 138.23 150.729 137.268 149.354 135.343C147.98 133.474 147.292 130.945 147.292 127.756Z" fill="white"/>
<path d="M129.319 163.982H127.401V154.836H129.319V156.483C129.598 155.926 130.016 155.491 130.573 155.18C131.131 154.852 131.729 154.688 132.368 154.688C133.827 154.688 134.811 155.287 135.319 156.483C136.22 155.287 137.351 154.688 138.712 154.688C139.761 154.688 140.597 155.008 141.22 155.647C141.843 156.286 142.154 157.196 142.154 158.376V163.982H140.236V158.967C140.236 157.278 139.531 156.434 138.122 156.434C137.433 156.434 136.851 156.655 136.376 157.098C135.917 157.524 135.679 158.122 135.663 158.893V163.982H133.721V158.967C133.721 158.098 133.565 157.459 133.253 157.049C132.942 156.639 132.458 156.434 131.803 156.434C131.098 156.434 130.508 156.664 130.032 157.122C129.557 157.565 129.319 158.196 129.319 159.016V163.982ZM146.788 163.982H144.87V151.221H146.788V163.982Z" fill="white"/>
<path d="M145.408 74.7578C145.721 71.7845 143.563 69.0992 140.574 69.0125C130.106 68.7088 119.676 70.7073 110.029 74.8935C98.7231 79.7997 88.878 87.544 81.4489 97.3751C74.0198 107.206 69.259 118.79 67.6285 131.002C65.9979 143.215 67.553 155.642 72.1429 167.076C76.7327 178.511 84.2015 188.565 93.8243 196.264C103.447 203.962 114.897 209.043 127.064 211.014C139.23 212.985 151.699 211.778 163.261 207.511C173.126 203.871 182.045 198.108 189.399 190.657C191.5 188.528 191.203 185.094 188.921 183.161C186.639 181.229 183.24 181.532 181.112 183.631C174.984 189.675 167.625 194.361 159.511 197.355C149.7 200.976 139.119 202 128.796 200.327C118.472 198.655 108.756 194.344 100.591 187.811C92.4258 181.279 86.0883 172.747 82.1937 163.045C78.299 153.342 76.9794 142.797 78.363 132.435C79.7466 122.072 83.7863 112.243 90.0901 103.901C96.394 95.5587 104.748 88.9873 114.341 84.8243C122.275 81.3813 130.834 79.6823 139.441 79.8158C142.43 79.8621 145.096 77.7308 145.408 74.7578Z" fill="white"/>
<path d="M82 123.972C82 120.059 83.8337 115.092 87.3601 108.772C90.8865 102.451 94.4129 97.1831 97.6572 93.1197C98.5035 92.0662 99.632 90.5612 100.901 88.9057C102.171 87.2502 103.017 86.3472 103.158 86.1967L108.377 92.6682C112.327 97.3336 115.853 102.601 119.098 108.772C122.342 114.942 124.035 119.908 124.035 123.972C124.035 130.142 122.06 135.56 117.969 139.925C114.02 144.289 109.083 146.547 103.158 146.547C97.3751 146.547 92.2971 144.289 88.2064 139.925C84.1158 135.41 82 130.142 82 123.972ZM126.009 186.429C126.009 182.064 127.138 177.098 129.395 171.228C131.652 165.51 134.473 160.092 137.858 155.276C144.347 146.095 150.412 138.42 156.336 132.249C156.901 131.798 158.17 130.594 160.004 128.637L163.53 132.249C169.031 137.818 175.238 145.493 182.15 155.125C185.817 160.242 188.638 165.66 190.895 171.379C193.152 177.098 194.28 182.064 194.28 186.429C194.28 196.813 191.036 205.392 184.406 212.465C177.777 219.539 169.596 223 160.004 223C150.412 223 142.372 219.388 135.742 212.315C129.113 205.241 126.009 196.512 126.009 186.429ZM147.45 82.5848C147.45 76.1133 152.105 67.5349 161.555 57L165.082 61.214C167.762 64.5249 170.16 68.1369 172.276 72.3509C174.391 76.4143 175.52 79.8758 175.52 82.5848C175.52 86.7987 174.109 90.1097 171.429 92.9692C168.749 95.6782 165.505 97.1831 161.555 97.1831C157.465 97.1831 154.079 95.8287 151.399 92.9692C148.86 90.1097 147.45 86.6482 147.45 82.5848Z" fill="white" fill-opacity="0.2"/>
<defs>
<linearGradient id="paint0_linear_6309_25841" x1="275" y1="-7.8506" x2="112.376" y2="300.511" gradientUnits="userSpaceOnUse">
<stop offset="0.458615" stop-color="#278EFF" stop-opacity="0.9"/>
<stop offset="1" stop-color="#6271FF" stop-opacity="0.52"/>
</linearGradient>
</defs>
</svg>
