<svg width="276" height="269" viewBox="0 0 276 269" fill="none" xmlns="http://www.w3.org/2000/svg">
<rect x="0.830811" width="274.258" height="268.917" rx="20" fill="url(#paint0_linear_6267_25832)" fill-opacity="0.9"/>
<path d="M40.3308 234.767L37.4857 240.757C37.1422 241.487 36.1461 241.462 35.8313 240.721L32.574 233.11L30.8567 237.431H25.4699L35.9172 248.67C36.3236 249.11 36.9819 249.11 37.3884 248.67L47.8413 237.431H41.5959L40.3308 234.767ZM49.1179 224.528L48.9805 224.377C46.0324 221.208 41.2066 221.208 38.2528 224.377L36.6556 226.101L35.0585 224.383C32.1104 221.208 27.2789 221.208 24.3307 224.383L24.1933 224.528C21.4055 227.529 21.2853 232.308 23.7755 235.502H29.6374L31.6925 230.307C32.0016 229.53 33.0435 229.512 33.3755 230.283L36.7071 238.076L39.5122 232.176C39.8499 231.465 40.8116 231.465 41.1494 232.176L42.7293 235.502H49.5358C52.026 232.308 51.9057 227.529 49.1179 224.528Z" fill="white"/>
<path d="M79.7252 229.871L79.7252 241.96M74.9996 234.572L79.7252 229.871L74.9996 234.572ZM79.7252 229.871L84.4507 234.572L79.7252 229.871Z" stroke="#A3FF83" stroke-width="1.83462" stroke-linecap="round" stroke-linejoin="round"/>
<path d="M180.726 242.092L180.726 230M185.451 237.39L180.726 242.092L185.451 237.39ZM180.726 242.092L176 237.39L180.726 242.092Z" stroke="#AF0000" stroke-width="1.83462" stroke-linecap="round" stroke-linejoin="round"/>
<path d="M94.1966 231.918H97.8667V242H96.2584V233.423H94.1966V231.918ZM103.189 237.485C103.917 236.742 104.412 236.186 104.673 235.814C104.948 235.43 105.086 235.045 105.086 234.66C105.086 234.247 104.928 233.904 104.612 233.629C104.309 233.34 103.924 233.196 103.457 233.196C102.605 233.196 101.917 233.622 101.395 234.474L100.014 233.67C100.481 232.983 100.983 232.481 101.519 232.165C102.069 231.835 102.749 231.67 103.56 231.67C104.426 231.67 105.168 231.945 105.787 232.495C106.405 233.045 106.715 233.766 106.715 234.66C106.715 235.168 106.577 235.663 106.302 236.144C106.041 236.612 105.546 237.216 104.818 237.959L102.447 240.371H107.024V242H100.137V240.557L103.189 237.485ZM110.283 236.887C110.283 238.055 110.489 238.976 110.901 239.649C111.314 240.323 111.932 240.66 112.757 240.66C113.582 240.66 114.194 240.33 114.592 239.67C114.991 238.997 115.19 238.069 115.19 236.887C115.19 235.704 114.991 234.784 114.592 234.124C114.194 233.45 113.582 233.113 112.757 233.113C111.891 233.113 111.273 233.464 110.901 234.165C110.489 234.852 110.283 235.759 110.283 236.887ZM108.633 236.887C108.633 235.265 108.984 233.993 109.685 233.072C110.386 232.137 111.41 231.67 112.757 231.67C114.104 231.67 115.121 232.131 115.809 233.052C116.51 233.973 116.86 235.251 116.86 236.887C116.86 238.522 116.51 239.808 115.809 240.742C115.121 241.663 114.104 242.124 112.757 242.124C111.383 242.124 110.352 241.643 109.664 240.68C108.977 239.746 108.633 238.481 108.633 236.887ZM130.725 238.124C130.725 239.278 130.368 240.234 129.653 240.99C128.938 241.746 128.086 242.124 127.096 242.124C126.12 242.124 125.248 241.698 124.478 240.845V242H122.87V231.299H124.478V235.67C125.124 234.694 125.956 234.206 126.973 234.206C128.031 234.206 128.918 234.57 129.632 235.299C130.361 236.027 130.725 236.969 130.725 238.124ZM126.725 240.68C127.385 240.68 127.942 240.447 128.395 239.979C128.863 239.498 129.096 238.893 129.096 238.165C129.096 237.436 128.863 236.832 128.395 236.351C127.942 235.869 127.392 235.629 126.746 235.629C126.1 235.629 125.557 235.876 125.117 236.371C124.677 236.852 124.457 237.45 124.457 238.165C124.457 238.893 124.677 239.498 125.117 239.979C125.557 240.447 126.093 240.68 126.725 240.68ZM140.413 238.124C140.413 239.278 140.055 240.234 139.341 240.99C138.626 241.746 137.774 242.124 136.784 242.124C135.808 242.124 134.935 241.698 134.165 240.845V244.804H132.557V234.33H134.165V235.67C134.811 234.694 135.643 234.206 136.66 234.206C137.719 234.206 138.605 234.57 139.32 235.299C140.049 236.027 140.413 236.969 140.413 238.124ZM136.413 240.68C137.073 240.68 137.629 240.447 138.083 239.979C138.55 239.498 138.784 238.893 138.784 238.165C138.784 237.436 138.55 236.832 138.083 236.351C137.629 235.869 137.079 235.629 136.433 235.629C135.787 235.629 135.244 235.876 134.805 236.371C134.365 236.852 134.145 237.45 134.145 238.165C134.145 238.893 134.365 239.498 134.805 239.979C135.244 240.447 135.78 240.68 136.413 240.68ZM143.853 242H142.245V234.33H143.853V235.711C144.087 235.244 144.437 234.88 144.904 234.619C145.372 234.344 145.873 234.206 146.41 234.206C147.633 234.206 148.458 234.708 148.884 235.711C149.64 234.708 150.588 234.206 151.729 234.206C152.609 234.206 153.31 234.474 153.832 235.01C154.355 235.546 154.616 236.309 154.616 237.299V242H153.007V237.794C153.007 236.378 152.416 235.67 151.234 235.67C150.657 235.67 150.169 235.856 149.77 236.227C149.385 236.584 149.186 237.086 149.172 237.732V242H147.544V237.794C147.544 237.065 147.413 236.529 147.152 236.186C146.891 235.842 146.485 235.67 145.935 235.67C145.344 235.67 144.849 235.863 144.451 236.247C144.052 236.619 143.853 237.148 143.853 237.835V242Z" fill="white"/>
<path d="M196.66 234.804V231.918H203.773V233.423L199.485 242H197.608L201.794 233.464H198.206V234.804H196.66ZM208.061 237.485C208.789 236.742 209.284 236.186 209.546 235.814C209.82 235.43 209.958 235.045 209.958 234.66C209.958 234.247 209.8 233.904 209.484 233.629C209.181 233.34 208.796 233.196 208.329 233.196C207.477 233.196 206.789 233.622 206.267 234.474L204.886 233.67C205.353 232.983 205.855 232.481 206.391 232.165C206.941 231.835 207.621 231.67 208.432 231.67C209.298 231.67 210.04 231.945 210.659 232.495C211.277 233.045 211.587 233.766 211.587 234.66C211.587 235.168 211.449 235.663 211.174 236.144C210.913 236.612 210.418 237.216 209.69 237.959L207.319 240.371H211.896V242H205.009V240.557L208.061 237.485ZM225.656 238.124C225.656 239.278 225.299 240.234 224.584 240.99C223.869 241.746 223.017 242.124 222.027 242.124C221.051 242.124 220.178 241.698 219.409 240.845V242H217.8V231.299H219.409V235.67C220.055 234.694 220.886 234.206 221.903 234.206C222.962 234.206 223.848 234.57 224.563 235.299C225.292 236.027 225.656 236.969 225.656 238.124ZM221.656 240.68C222.316 240.68 222.872 240.447 223.326 239.979C223.793 239.498 224.027 238.893 224.027 238.165C224.027 237.436 223.793 236.832 223.326 236.351C222.872 235.869 222.323 235.629 221.677 235.629C221.03 235.629 220.488 235.876 220.048 236.371C219.608 236.852 219.388 237.45 219.388 238.165C219.388 238.893 219.608 239.498 220.048 239.979C220.488 240.447 221.024 240.68 221.656 240.68ZM235.343 238.124C235.343 239.278 234.986 240.234 234.271 240.99C233.556 241.746 232.704 242.124 231.715 242.124C230.739 242.124 229.866 241.698 229.096 240.845V244.804H227.488V234.33H229.096V235.67C229.742 234.694 230.574 234.206 231.591 234.206C232.649 234.206 233.536 234.57 234.251 235.299C234.979 236.027 235.343 236.969 235.343 238.124ZM231.343 240.68C232.003 240.68 232.56 240.447 233.014 239.979C233.481 239.498 233.715 238.893 233.715 238.165C233.715 237.436 233.481 236.832 233.014 236.351C232.56 235.869 232.01 235.629 231.364 235.629C230.718 235.629 230.175 235.876 229.735 236.371C229.295 236.852 229.075 237.45 229.075 238.165C229.075 238.893 229.295 239.498 229.735 239.979C230.175 240.447 230.711 240.68 231.343 240.68ZM238.784 242H237.175V234.33H238.784V235.711C239.017 235.244 239.368 234.88 239.835 234.619C240.302 234.344 240.804 234.206 241.34 234.206C242.564 234.206 243.388 234.708 243.814 235.711C244.57 234.708 245.519 234.206 246.66 234.206C247.54 234.206 248.241 234.474 248.763 235.01C249.285 235.546 249.546 236.309 249.546 237.299V242H247.938V237.794C247.938 236.378 247.347 235.67 246.165 235.67C245.588 235.67 245.1 235.856 244.701 236.227C244.316 236.584 244.117 237.086 244.103 237.732V242H242.474V237.794C242.474 237.065 242.344 236.529 242.082 236.186C241.821 235.842 241.416 235.67 240.866 235.67C240.275 235.67 239.78 235.863 239.381 236.247C238.983 236.619 238.784 237.148 238.784 237.835V242Z" fill="white"/>
<path d="M158.956 141.199L142.666 172.26C140.699 176.041 134.996 175.916 133.193 172.073L114.543 132.606L104.71 155.011H73.8675L133.685 213.289C136.012 215.57 139.781 215.57 142.108 213.289L201.959 155.011H166.199L158.956 141.199ZM209.268 88.1086L208.481 87.3274C191.601 70.8909 163.97 70.8909 147.058 87.3274L137.913 96.2644L128.768 87.3587C111.888 70.8909 84.2249 70.8909 67.345 87.3587L66.5583 88.1086C50.5961 103.67 49.9078 128.45 64.1656 145.012H97.7289L109.496 118.076C111.266 114.045 117.231 113.951 119.132 117.951L138.208 158.355L154.269 127.763C156.202 124.075 161.709 124.075 163.643 127.763L172.689 145.012H211.66C225.918 128.45 225.23 103.67 209.268 88.1086Z" fill="white" fill-opacity="0.2"/>
<path d="M128.196 116.423C130.148 116.423 131.756 116.931 133.021 117.948C134.313 118.966 134.959 120.244 134.959 121.784C134.959 123.351 134.244 124.725 132.814 125.907C134.739 127.144 135.701 128.876 135.701 131.103C135.701 132.863 135 134.333 133.598 135.515C132.223 136.67 130.423 137.247 128.196 137.247C125.969 137.247 124.155 136.67 122.753 135.515C121.351 134.333 120.649 132.863 120.649 131.103C120.649 128.876 121.625 127.144 123.577 125.907C122.12 124.698 121.392 123.323 121.392 121.784C121.392 120.216 122.038 118.938 123.33 117.948C124.677 116.931 126.299 116.423 128.196 116.423ZM128.196 134.278C129.268 134.278 130.216 133.976 131.041 133.371C131.893 132.766 132.32 131.969 132.32 130.979C132.32 129.962 131.907 129.165 131.082 128.588C130.285 127.983 129.323 127.68 128.196 127.68C127.041 127.68 126.052 127.983 125.227 128.588C124.43 129.165 124.031 129.962 124.031 130.979C124.031 132.079 124.471 132.89 125.351 133.412C126.258 133.99 127.206 134.278 128.196 134.278ZM128.196 125.124C129.186 125.124 130.038 124.835 130.753 124.258C131.467 123.653 131.825 122.924 131.825 122.072C131.825 121.247 131.467 120.546 130.753 119.969C130.038 119.364 129.186 119.062 128.196 119.062C127.206 119.062 126.34 119.364 125.598 119.969C124.883 120.546 124.526 121.247 124.526 122.072C124.526 122.924 124.897 123.653 125.639 124.258C126.381 124.835 127.234 125.124 128.196 125.124ZM151.38 116.794V119.887H142.885V124.835C143.737 124.368 144.7 124.134 145.772 124.134C147.724 124.134 149.359 124.725 150.679 125.907C152.026 127.062 152.7 128.588 152.7 130.485C152.7 132.409 151.985 134.017 150.555 135.309C149.126 136.601 147.38 137.247 145.318 137.247C142.596 137.247 140.425 136.34 138.803 134.526L140.617 132.052C140.645 132.079 140.727 132.162 140.865 132.299C141.029 132.409 141.167 132.505 141.277 132.588C141.607 132.863 142.17 133.165 142.968 133.495C143.792 133.797 144.631 133.948 145.483 133.948C146.528 133.948 147.421 133.646 148.163 133.041C148.933 132.436 149.318 131.612 149.318 130.567C149.318 129.495 148.906 128.656 148.081 128.052C147.256 127.419 146.198 127.103 144.906 127.103C143.641 127.103 142.418 127.419 141.236 128.052L139.792 126.485V116.794H151.38Z" fill="white"/>
<path d="M128.769 158.378C128.769 159.754 128.343 160.894 127.491 161.795C126.638 162.697 125.622 163.148 124.442 163.148C123.278 163.148 122.237 162.639 121.319 161.623V163H119.401V150.239H121.319V155.452C122.09 154.288 123.081 153.706 124.294 153.706C125.557 153.706 126.614 154.14 127.466 155.009C128.335 155.878 128.769 157.001 128.769 158.378ZM123.999 161.426C124.786 161.426 125.45 161.148 125.991 160.59C126.548 160.017 126.827 159.295 126.827 158.427C126.827 157.558 126.548 156.837 125.991 156.263C125.45 155.689 124.794 155.402 124.024 155.402C123.254 155.402 122.606 155.697 122.082 156.288C121.557 156.861 121.295 157.574 121.295 158.427C121.295 159.295 121.557 160.017 122.082 160.59C122.606 161.148 123.245 161.426 123.999 161.426ZM140.322 158.378C140.322 159.754 139.896 160.894 139.043 161.795C138.191 162.697 137.175 163.148 135.994 163.148C134.83 163.148 133.79 162.639 132.872 161.623V166.344H130.954V153.853H132.872V155.452C133.642 154.288 134.634 153.706 135.847 153.706C137.109 153.706 138.166 154.14 139.019 155.009C139.887 155.878 140.322 157.001 140.322 158.378ZM135.552 161.426C136.339 161.426 137.002 161.148 137.543 160.59C138.101 160.017 138.379 159.295 138.379 158.427C138.379 157.558 138.101 156.837 137.543 156.263C137.002 155.689 136.347 155.402 135.576 155.402C134.806 155.402 134.158 155.697 133.634 156.288C133.109 156.861 132.847 157.574 132.847 158.427C132.847 159.295 133.109 160.017 133.634 160.59C134.158 161.148 134.798 161.426 135.552 161.426ZM144.424 163H142.506V153.853H144.424V155.501C144.703 154.943 145.121 154.509 145.678 154.198C146.235 153.87 146.834 153.706 147.473 153.706C148.932 153.706 149.915 154.304 150.423 155.501C151.325 154.304 152.456 153.706 153.816 153.706C154.866 153.706 155.702 154.026 156.324 154.665C156.947 155.304 157.259 156.214 157.259 157.394V163H155.341V157.984C155.341 156.296 154.636 155.452 153.226 155.452C152.538 155.452 151.956 155.673 151.481 156.115C151.022 156.542 150.784 157.14 150.768 157.91V163H148.825V157.984C148.825 157.115 148.669 156.476 148.358 156.066C148.047 155.656 147.563 155.452 146.907 155.452C146.203 155.452 145.612 155.681 145.137 156.14C144.662 156.583 144.424 157.214 144.424 158.033V163Z" fill="white"/>
<path d="M144.408 73.7754C144.721 70.8021 142.563 68.1168 139.574 68.0301C129.106 67.7263 118.676 69.7249 109.029 73.9111C97.7231 78.8173 87.878 86.5616 80.4489 96.3926C73.0198 106.224 68.259 117.807 66.6285 130.02C64.9979 142.233 66.553 154.659 71.1429 166.094C75.7327 177.528 83.2015 187.583 92.8243 195.281C102.447 202.98 113.897 208.061 126.064 210.032C138.23 212.002 150.699 210.796 162.261 206.529C172.126 202.889 181.045 197.126 188.399 189.674C190.5 187.546 190.203 184.112 187.921 182.179C185.639 180.247 182.24 180.549 180.112 182.649C173.984 188.692 166.625 193.378 158.511 196.373C148.7 199.993 138.119 201.017 127.796 199.345C117.472 197.673 107.756 193.361 99.5911 186.829C91.4258 180.296 85.0883 171.765 81.1937 162.062C77.299 152.359 75.9794 141.815 77.363 131.452C78.7466 121.09 82.7863 111.26 89.0901 102.918C95.394 94.5763 103.748 88.0049 113.341 83.8419C121.275 80.3989 129.834 78.6999 138.441 78.8334C141.43 78.8797 144.096 76.7484 144.408 73.7754Z" fill="white"/>
<path d="M61.8041 48V27.8351H65.2268V36.5773H75.2062V27.8351H78.6289V48H75.2062V39.7526H65.2268V48H61.8041ZM98.0404 41.732H85.9992C86.0817 42.8316 86.5903 43.7251 87.525 44.4124C88.4597 45.0997 89.5456 45.4433 90.7827 45.4433C92.7346 45.4433 94.1916 44.8385 95.1538 43.6289L97.0095 45.6495C95.36 47.3814 93.2019 48.2474 90.5353 48.2474C88.336 48.2474 86.494 47.5189 85.0095 46.0619C83.525 44.6048 82.7827 42.6804 82.7827 40.2887C82.7827 37.9519 83.5387 36.055 85.0507 34.5979C86.5628 33.1409 88.3909 32.4124 90.5353 32.4124C92.6796 32.4124 94.4665 33.0584 95.8961 34.3505C97.3257 35.6426 98.0404 37.3608 98.0404 39.5052V41.732ZM94.8239 39.1753C94.8239 37.9381 94.4253 36.9622 93.6281 36.2474C92.8583 35.5326 91.8549 35.1753 90.6178 35.1753C89.3806 35.1753 88.2947 35.5464 87.36 36.2887C86.4528 37.0309 85.9992 37.9931 85.9992 39.1753H94.8239ZM114.036 48H111.108V45.9381C109.816 47.4777 108.112 48.2474 105.995 48.2474C104.373 48.2474 103.04 47.7938 101.995 46.8866C100.978 45.9519 100.469 44.7423 100.469 43.2577C100.469 41.7732 101.019 40.646 102.119 39.8763C103.218 39.1065 104.73 38.7216 106.655 38.7216H110.861V38.1443C110.861 36.11 109.72 35.0928 107.438 35.0928C106.009 35.0928 104.524 35.6151 102.985 36.6598L101.541 34.6392C103.438 33.1546 105.555 32.4124 107.892 32.4124C109.789 32.4124 111.287 32.8935 112.387 33.8557C113.486 34.7904 114.036 36.2062 114.036 38.1031V48ZM110.82 40.9897H107.191C104.854 40.9897 103.686 41.7182 103.686 43.1753C103.686 43.9175 103.974 44.4948 104.552 44.9072C105.129 45.2921 105.94 45.4845 106.985 45.4845C108.057 45.4845 108.964 45.1959 109.706 44.6186C110.449 44.0137 110.82 43.2302 110.82 42.268V40.9897ZM121.794 41.4021V48H118.577V32.6598H121.794V35.7113C122.316 34.7491 123.017 33.9656 123.897 33.3608C124.804 32.756 125.752 32.4399 126.742 32.4124L126.783 35.6701H126.618C125.051 35.6701 123.855 36.1787 123.031 37.1959C122.206 38.2131 121.794 39.6151 121.794 41.4021ZM133.981 35.2577V43.0515C133.981 43.7938 134.174 44.3849 134.558 44.8247C134.971 45.2371 135.521 45.4433 136.208 45.4433C136.84 45.4433 137.5 45.0997 138.187 44.4124L139.507 46.7216C138.352 47.7388 137.101 48.2474 135.754 48.2474C134.352 48.2474 133.17 47.7663 132.208 46.8041C131.246 45.8144 130.765 44.5361 130.765 42.9691V35.2577H128.827V32.6598H130.765V27.8351H133.981V32.6598H138.022V35.2577H133.981ZM162.229 40.6598L167.507 48H163.177L158.352 41.1959H153.899V48H150.476V27.8351H157.981C161.033 27.8351 163.218 28.3574 164.538 29.4021C165.885 30.4192 166.558 32.0825 166.558 34.3918C166.558 37.7182 165.115 39.8076 162.229 40.6598ZM158.105 38.1443C160.002 38.1443 161.308 37.8557 162.022 37.2783C162.737 36.701 163.095 35.7251 163.095 34.3505C163.095 33.0309 162.737 32.1375 162.022 31.6701C161.308 31.1753 160.029 30.9278 158.187 30.9278H153.899V38.1443H158.105ZM183.45 48H180.523V45.9381C179.23 47.4777 177.526 48.2474 175.409 48.2474C173.787 48.2474 172.454 47.7938 171.409 46.8866C170.392 45.9519 169.883 44.7423 169.883 43.2577C169.883 41.7732 170.433 40.646 171.533 39.8763C172.633 39.1065 174.145 38.7216 176.069 38.7216H180.275V38.1443C180.275 36.11 179.134 35.0928 176.852 35.0928C175.423 35.0928 173.938 35.6151 172.399 36.6598L170.956 34.6392C172.852 33.1546 174.969 32.4124 177.306 32.4124C179.203 32.4124 180.701 32.8935 181.801 33.8557C182.901 34.7904 183.45 36.2062 183.45 38.1031V48ZM180.234 40.9897H176.605C174.268 40.9897 173.1 41.7182 173.1 43.1753C173.1 43.9175 173.389 44.4948 173.966 44.9072C174.543 45.2921 175.354 45.4845 176.399 45.4845C177.471 45.4845 178.378 45.1959 179.12 44.6186C179.863 44.0137 180.234 43.2302 180.234 42.268V40.9897ZM191.95 35.2577V43.0515C191.95 43.7938 192.142 44.3849 192.527 44.8247C192.94 45.2371 193.489 45.4433 194.177 45.4433C194.809 45.4433 195.469 45.0997 196.156 44.4124L197.476 46.7216C196.321 47.7388 195.07 48.2474 193.723 48.2474C192.321 48.2474 191.139 47.7663 190.177 46.8041C189.215 45.8144 188.733 44.5361 188.733 42.9691V35.2577H186.795V32.6598H188.733V27.8351H191.95V32.6598H195.991V35.2577H191.95ZM214.329 41.732H202.288C202.371 42.8316 202.879 43.7251 203.814 44.4124C204.749 45.0997 205.835 45.4433 207.072 45.4433C209.024 45.4433 210.481 44.8385 211.443 43.6289L213.299 45.6495C211.649 47.3814 209.491 48.2474 206.824 48.2474C204.625 48.2474 202.783 47.5189 201.299 46.0619C199.814 44.6048 199.072 42.6804 199.072 40.2887C199.072 37.9519 199.828 36.055 201.34 34.5979C202.852 33.1409 204.68 32.4124 206.824 32.4124C208.969 32.4124 210.756 33.0584 212.185 34.3505C213.615 35.6426 214.329 37.3608 214.329 39.5052V41.732ZM211.113 39.1753C211.113 37.9381 210.714 36.9622 209.917 36.2474C209.147 35.5326 208.144 35.1753 206.907 35.1753C205.67 35.1753 204.584 35.5464 203.649 36.2887C202.742 37.0309 202.288 37.9931 202.288 39.1753H211.113Z" fill="white"/>
<defs>
<linearGradient id="paint0_linear_6267_25832" x1="275.089" y1="1.17327e-05" x2="47.403" y2="473.117" gradientUnits="userSpaceOnUse">
<stop stop-color="#FF6091" stop-opacity="0.9"/>
<stop offset="1" stop-color="#5127DD" stop-opacity="0.52"/>
</linearGradient>
</defs>
</svg>
