<svg width="275" height="270" viewBox="0 0 275 270" fill="none" xmlns="http://www.w3.org/2000/svg">
<rect x="0.742188" width="274.258" height="269.898" rx="20" fill="url(#paint0_linear_6309_25854)"/>
<path d="M184.158 235.807H187.862V245.98H186.239V237.326H184.158V235.807ZM191.817 240.821C191.817 242 192.025 242.929 192.441 243.609C192.857 244.288 193.482 244.628 194.314 244.628C195.146 244.628 195.763 244.295 196.165 243.63C196.568 242.95 196.769 242.014 196.769 240.821C196.769 239.628 196.568 238.699 196.165 238.033C195.763 237.353 195.146 237.014 194.314 237.014C193.44 237.014 192.816 237.367 192.441 238.075C192.025 238.768 191.817 239.684 191.817 240.821ZM190.153 240.821C190.153 239.184 190.506 237.901 191.214 236.972C191.921 236.029 192.955 235.557 194.314 235.557C195.673 235.557 196.699 236.022 197.393 236.951C198.1 237.88 198.454 239.17 198.454 240.821C198.454 242.471 198.1 243.768 197.393 244.711C196.699 245.641 195.673 246.105 194.314 246.105C192.927 246.105 191.887 245.62 191.193 244.649C190.5 243.706 190.153 242.43 190.153 240.821ZM201.848 240.821C201.848 242 202.056 242.929 202.473 243.609C202.889 244.288 203.513 244.628 204.345 244.628C205.177 244.628 205.794 244.295 206.197 243.63C206.599 242.95 206.8 242.014 206.8 240.821C206.8 239.628 206.599 238.699 206.197 238.033C205.794 237.353 205.177 237.014 204.345 237.014C203.471 237.014 202.847 237.367 202.473 238.075C202.056 238.768 201.848 239.684 201.848 240.821ZM200.184 240.821C200.184 239.184 200.538 237.901 201.245 236.972C201.952 236.029 202.986 235.557 204.345 235.557C205.704 235.557 206.731 236.022 207.424 236.951C208.132 237.88 208.485 239.17 208.485 240.821C208.485 242.471 208.132 243.768 207.424 244.711C206.731 245.641 205.704 246.105 204.345 246.105C202.958 246.105 201.918 245.62 201.224 244.649C200.531 243.706 200.184 242.43 200.184 240.821ZM211.88 240.821C211.88 242 212.088 242.929 212.504 243.609C212.92 244.288 213.544 244.628 214.376 244.628C215.208 244.628 215.826 244.295 216.228 243.63C216.63 242.95 216.831 242.014 216.831 240.821C216.831 239.628 216.63 238.699 216.228 238.033C215.826 237.353 215.208 237.014 214.376 237.014C213.502 237.014 212.878 237.367 212.504 238.075C212.088 238.768 211.88 239.684 211.88 240.821ZM210.215 240.821C210.215 239.184 210.569 237.901 211.276 236.972C211.984 236.029 213.017 235.557 214.376 235.557C215.736 235.557 216.762 236.022 217.455 236.951C218.163 237.88 218.516 239.17 218.516 240.821C218.516 242.471 218.163 243.768 217.455 244.711C216.762 245.641 215.736 246.105 214.376 246.105C212.989 246.105 211.949 245.62 211.256 244.649C210.562 243.706 210.215 242.43 210.215 240.821ZM226.203 245.98H224.58V235.183H226.203V241.528L229.344 238.241H231.446L228.512 241.299L231.675 245.98H229.677L227.389 242.589L226.203 243.775V245.98ZM232.534 242.111C232.534 240.946 232.937 239.989 233.741 239.24C234.545 238.491 235.537 238.116 236.716 238.116C237.881 238.116 238.866 238.518 239.67 239.323L238.713 240.509C238.048 239.926 237.375 239.635 236.695 239.635C236.002 239.635 235.405 239.864 234.906 240.322C234.421 240.765 234.178 241.341 234.178 242.048C234.178 242.77 234.421 243.38 234.906 243.879C235.405 244.365 236.016 244.607 236.737 244.607C237.458 244.607 238.145 244.281 238.797 243.63L239.754 244.67C238.769 245.627 237.68 246.105 236.487 246.105C235.378 246.105 234.441 245.738 233.679 245.003C232.916 244.254 232.534 243.29 232.534 242.111ZM247.693 245.98H246.215V244.94C245.564 245.717 244.704 246.105 243.636 246.105C242.817 246.105 242.145 245.876 241.618 245.419C241.104 244.947 240.848 244.337 240.848 243.588C240.848 242.839 241.125 242.27 241.68 241.882C242.235 241.494 242.998 241.299 243.968 241.299H246.091V241.008C246.091 239.982 245.515 239.469 244.364 239.469C243.643 239.469 242.894 239.732 242.117 240.259L241.389 239.24C242.346 238.491 243.414 238.116 244.593 238.116C245.55 238.116 246.306 238.359 246.86 238.844C247.415 239.316 247.693 240.03 247.693 240.987V245.98ZM246.07 242.444H244.239C243.06 242.444 242.471 242.811 242.471 243.546C242.471 243.921 242.616 244.212 242.907 244.42C243.199 244.614 243.608 244.711 244.135 244.711C244.676 244.711 245.134 244.566 245.508 244.274C245.883 243.969 246.07 243.574 246.07 243.089V242.444ZM251.606 245.98H249.983V235.183H251.606V245.98Z" fill="white"/>
<path d="M66.8525 240.804H68.636V244.436C67.6355 245.553 66.2 246.111 64.3294 246.111C62.7489 246.111 61.4293 245.589 60.3708 244.545C59.3123 243.501 58.783 242.196 58.783 240.63C58.783 239.064 59.3195 237.751 60.3926 236.693C61.4801 235.62 62.7924 235.083 64.3294 235.083C65.8665 235.083 67.1425 235.526 68.1575 236.41L67.2005 237.78C66.461 237.157 65.5547 236.845 64.4817 236.845C63.3941 236.845 62.4806 237.2 61.7411 237.911C61.0161 238.607 60.6536 239.513 60.6536 240.63C60.6536 241.746 61.0016 242.653 61.6976 243.349C62.4081 244.03 63.2854 244.371 64.3294 244.371C65.3445 244.371 66.1855 244.153 66.8525 243.718V240.804ZM74.4971 244.588C75.2367 244.588 75.8457 244.342 76.3242 243.849C76.8172 243.356 77.0637 242.718 77.0637 241.935C77.0637 241.152 76.8172 240.514 76.3242 240.021C75.8457 239.528 75.2367 239.281 74.4971 239.281C73.7576 239.281 73.1486 239.528 72.6701 240.021C72.1916 240.514 71.9523 241.152 71.9523 241.935C71.9523 242.718 72.1916 243.349 72.6701 243.827C73.1486 244.335 73.7576 244.588 74.4971 244.588ZM74.4971 246.111C73.2791 246.111 72.2641 245.712 71.4521 244.915C70.64 244.103 70.234 243.109 70.234 241.935C70.234 240.76 70.64 239.774 71.4521 238.977C72.2641 238.165 73.2791 237.759 74.4971 237.759C75.7152 237.759 76.7302 238.165 77.5422 238.977C78.3543 239.774 78.7603 240.76 78.7603 241.935C78.7603 243.066 78.3543 244.052 77.5422 244.893C76.7302 245.705 75.7152 246.111 74.4971 246.111ZM87.2351 245.98H85.6908V244.893C85.0092 245.705 84.1102 246.111 82.9937 246.111C82.1382 246.111 81.4349 245.872 80.8839 245.393C80.3474 244.9 80.0791 244.262 80.0791 243.479C80.0791 242.696 80.3691 242.102 80.9491 241.696C81.5291 241.29 82.3267 241.087 83.3417 241.087H85.5603V240.782C85.5603 239.709 84.9585 239.173 83.755 239.173C83.0009 239.173 82.2179 239.448 81.4059 239.999L80.6446 238.933C81.6451 238.15 82.7617 237.759 83.9942 237.759C84.9947 237.759 85.785 238.013 86.365 238.52C86.945 239.013 87.2351 239.76 87.2351 240.76V245.98ZM85.5385 242.283H83.6245C82.3919 242.283 81.7757 242.667 81.7757 243.436C81.7757 243.827 81.9279 244.132 82.2324 244.349C82.5369 244.552 82.9647 244.654 83.5157 244.654C84.0812 244.654 84.5597 244.501 84.9512 244.197C85.3427 243.878 85.5385 243.465 85.5385 242.957V242.283ZM91.3266 245.98H89.6301V234.692H91.3266V245.98Z" fill="white"/>
<path d="M191.043 129.318L191.223 129.148L199.36 121.724C199.814 121.309 200.175 120.817 200.421 120.274C200.667 119.732 200.794 119.151 200.794 118.564C200.794 117.977 200.667 117.396 200.421 116.854C200.175 116.312 199.814 115.819 199.36 115.404L192.42 109.07C191.965 108.655 191.425 108.326 190.831 108.101C190.237 107.876 189.6 107.761 188.957 107.761C188.314 107.761 187.678 107.876 187.084 108.101C186.489 108.326 185.95 108.655 185.495 109.07L177.943 115.963C169.182 109.39 158.646 105.089 147.439 103.509V93.8741H157.231C158.529 93.8741 159.774 93.4033 160.692 92.5653C161.611 91.7273 162.126 90.5907 162.126 89.4056V80.4685C162.126 79.2834 161.611 78.1468 160.692 77.3088C159.774 76.4708 158.529 76 157.231 76H118.064C116.766 76.0037 115.523 76.4757 114.606 77.3129C113.689 78.1501 113.172 79.2845 113.168 80.4685V89.4056C113.172 90.5896 113.689 91.7241 114.606 92.5613C115.523 93.3985 116.766 93.8705 118.064 93.8741H127.855V103.509C113.186 105.589 99.775 112.285 89.9448 122.439C80.1147 132.592 74.4841 145.563 74.0281 159.106C72.9725 190.925 101.772 218.496 136.643 218.993C172.264 219.487 201.293 193.299 201.293 160.902C201.322 149.687 197.759 138.709 191.043 129.318ZM131.64 181.443C132.305 181.435 132.947 181.667 133.424 182.089C133.902 182.512 134.176 183.09 134.186 183.697V189.928C134.176 190.535 133.902 191.113 133.424 191.536C132.947 191.959 132.305 192.191 131.64 192.182H106.289C105.593 192.189 104.902 192.065 104.261 191.816C103.621 191.568 103.043 191.201 102.566 190.739C102.088 190.276 101.721 189.728 101.487 189.13C101.253 188.531 101.157 187.895 101.206 187.261C102.057 177.425 105.695 171.227 112.972 161.743C119.22 153.591 121.264 151.32 121.264 144.332C121.264 139.607 120.716 137.554 117.528 137.554C114.655 137.554 113.645 139.621 113.645 143.888V145.349C113.64 145.65 113.57 145.947 113.439 146.223C113.308 146.499 113.119 146.748 112.882 146.958C112.645 147.167 112.366 147.332 112.059 147.442C111.753 147.553 111.426 147.607 111.096 147.603H103.477C103.147 147.607 102.82 147.553 102.514 147.442C102.207 147.332 101.928 147.167 101.691 146.958C101.454 146.748 101.265 146.499 101.134 146.223C101.003 145.947 100.933 145.65 100.928 145.349V144.212C100.928 136.588 103.523 127.388 118.195 127.388C131.353 127.388 135.199 134.608 135.199 144.424C135.199 154.361 131.393 158.727 124.688 167.133C121.151 171.322 117.158 177.067 116.607 181.432L131.64 181.443ZM174.366 174.397C174.366 184.217 170.602 192.182 156.854 192.182C143.519 192.182 140.095 183.937 140.095 174.461V145.044C140.095 133.669 146.086 127.388 157.292 127.388C168.552 127.388 174.366 133.711 174.366 144.508V174.397ZM157.191 137.926C154.311 137.926 153.142 140.02 153.142 143.511V175.894C153.142 179.555 154.241 181.645 157.191 181.645C160.141 181.645 161.169 179.41 161.169 175.704V143.324C161.175 140.177 160.254 137.926 157.191 137.926Z" fill="white" fill-opacity="0.2"/>
<path d="M113.227 122.201V119.191H125.021V121.83L120.155 127.273C121.969 127.328 123.399 127.905 124.443 129.005C125.515 130.077 126.052 131.41 126.052 133.005C126.052 135.039 125.351 136.648 123.948 137.83C122.574 139.012 120.773 139.603 118.546 139.603C116.375 139.603 114.23 138.902 112.113 137.5L113.557 134.778C115.206 135.933 116.938 136.51 118.753 136.51C119.962 136.51 120.938 136.235 121.68 135.685C122.423 135.108 122.794 134.311 122.794 133.294C122.794 132.249 122.368 131.424 121.515 130.819C120.663 130.215 119.495 129.912 118.01 129.912C117.296 129.912 116.581 130.022 115.866 130.242V127.644L120.526 122.201H113.227ZM135.513 130.325C136.97 128.84 137.959 127.727 138.482 126.984C139.031 126.215 139.306 125.445 139.306 124.675C139.306 123.85 138.99 123.163 138.358 122.613C137.753 122.036 136.983 121.747 136.049 121.747C134.344 121.747 132.97 122.599 131.925 124.304L129.162 122.696C130.097 121.321 131.1 120.318 132.172 119.685C133.272 119.026 134.633 118.696 136.255 118.696C137.987 118.696 139.471 119.246 140.708 120.345C141.946 121.445 142.564 122.888 142.564 124.675C142.564 125.692 142.289 126.682 141.739 127.644C141.217 128.579 140.227 129.788 138.77 131.273L134.028 136.098H143.183V139.355H129.409V136.469L135.513 130.325ZM149.659 128.593C151.034 127.108 152.738 126.366 154.773 126.366C156.587 126.366 158.099 126.971 159.309 128.18C160.518 129.39 161.123 130.984 161.123 132.964C161.123 134.916 160.464 136.51 159.144 137.747C157.852 138.984 156.202 139.603 154.195 139.603C152.656 139.603 151.35 139.3 150.278 138.696C149.206 138.063 148.409 137.225 147.886 136.18C147.364 135.108 146.993 134.05 146.773 133.005C146.553 131.96 146.443 130.847 146.443 129.665C146.443 125.733 147.268 122.902 148.917 121.17C150.457 119.603 152.312 118.819 154.484 118.819C156.656 118.819 158.622 119.493 160.381 120.84L158.69 123.355C158.223 122.943 157.618 122.599 156.876 122.325C156.161 122.022 155.515 121.871 154.938 121.871C151.474 121.871 149.714 124.111 149.659 128.593ZM150.237 132.84C150.237 133.885 150.608 134.778 151.35 135.52C152.12 136.235 153.068 136.593 154.195 136.593C155.35 136.593 156.299 136.263 157.041 135.603C157.783 134.943 158.154 134.091 158.154 133.046C158.154 132.002 157.797 131.136 157.082 130.448C156.367 129.733 155.446 129.376 154.319 129.376C153.137 129.376 152.161 129.706 151.391 130.366C150.622 130.998 150.237 131.823 150.237 132.84Z" fill="white"/>
<path d="M122.319 167.514H120.401V154.753H122.319V162.252L126.032 158.367H128.515L125.049 161.981L128.786 167.514H126.425L123.721 163.506L122.319 164.907V167.514ZM129.802 162.94C129.802 161.563 130.277 160.432 131.228 159.547C132.179 158.662 133.351 158.22 134.744 158.22C136.121 158.22 137.285 158.695 138.235 159.646L137.104 161.047C136.318 160.359 135.523 160.014 134.719 160.014C133.9 160.014 133.195 160.285 132.605 160.826C132.031 161.35 131.744 162.031 131.744 162.867C131.744 163.719 132.031 164.44 132.605 165.03C133.195 165.604 133.916 165.891 134.769 165.891C135.621 165.891 136.432 165.506 137.203 164.735L138.334 165.965C137.17 167.096 135.883 167.661 134.474 167.661C133.162 167.661 132.056 167.227 131.154 166.358C130.253 165.473 129.802 164.334 129.802 162.94ZM147.716 167.514H145.97V166.284C145.2 167.202 144.184 167.661 142.922 167.661C141.954 167.661 141.159 167.391 140.537 166.85C139.93 166.292 139.627 165.571 139.627 164.686C139.627 163.801 139.955 163.129 140.61 162.67C141.266 162.211 142.168 161.981 143.315 161.981H145.823V161.637C145.823 160.424 145.143 159.818 143.782 159.818C142.93 159.818 142.045 160.129 141.127 160.752L140.266 159.547C141.397 158.662 142.659 158.22 144.053 158.22C145.184 158.22 146.077 158.506 146.733 159.08C147.388 159.637 147.716 160.482 147.716 161.613V167.514ZM145.798 163.334H143.635C142.241 163.334 141.545 163.768 141.545 164.637C141.545 165.079 141.717 165.424 142.061 165.67C142.405 165.899 142.889 166.014 143.512 166.014C144.151 166.014 144.692 165.842 145.134 165.497C145.577 165.137 145.798 164.67 145.798 164.096V163.334ZM152.341 167.514H150.424V154.753H152.341V167.514Z" fill="white"/>
<path d="M144.408 80.4605C144.721 77.4864 142.562 74.8003 139.573 74.7136C129.105 74.41 118.675 76.4093 109.029 80.5967C97.7231 85.5045 87.878 93.2514 80.4489 103.086C73.0198 112.92 68.259 124.508 66.6285 136.724C64.9979 148.941 66.553 161.372 71.1429 172.81C75.7327 184.249 83.2015 194.307 92.8243 202.008C102.447 209.709 113.897 214.792 126.064 216.763C138.23 218.734 150.699 217.527 162.261 213.259C172.127 209.617 181.046 203.852 188.4 196.397C190.5 194.268 190.204 190.835 187.922 188.902C185.64 186.969 182.239 187.271 180.111 189.372C173.984 195.417 166.624 200.104 158.511 203.1C148.7 206.721 138.119 207.746 127.796 206.073C117.472 204.4 107.756 200.087 99.5911 193.552C91.4258 187.018 85.0883 178.483 81.1937 168.777C77.299 159.071 75.9794 148.523 77.363 138.157C78.7466 127.791 82.7863 117.958 89.0901 109.614C95.394 101.269 103.748 94.6952 113.341 90.5308C121.274 87.087 129.833 85.3874 138.439 85.5206C141.429 85.5668 144.096 83.4347 144.408 80.4605Z" fill="white"/>
<path d="M96.6907 47.433L98.8763 49.6598C96.7869 52.0515 94.2027 53.2474 91.1237 53.2474C88.0722 53.2474 85.5292 52.2715 83.4948 50.3196C81.488 48.3402 80.4845 45.8522 80.4845 42.8557C80.4845 39.8316 81.5155 37.3299 83.5773 35.3505C85.6392 33.3436 88.2371 32.3402 91.3711 32.3402C94.4502 32.3402 97.0481 33.4948 99.1649 35.8041L97.0206 38.1546C96.0584 37.2199 95.1512 36.5739 94.299 36.2165C93.4467 35.8591 92.4433 35.6804 91.2887 35.6804C89.2268 35.6804 87.4948 36.3402 86.0928 37.6598C84.7182 38.9794 84.0309 40.6564 84.0309 42.6907C84.0309 44.6976 84.7182 46.4021 86.0928 47.8041C87.4674 49.2062 89.1031 49.9072 91 49.9072C92.1546 49.9072 93.1443 49.7148 93.9691 49.3299C94.8213 48.945 95.7285 48.3127 96.6907 47.433ZM115.013 53H112.085V50.9381C110.793 52.4777 109.088 53.2474 106.972 53.2474C105.35 53.2474 104.016 52.7938 102.972 51.8866C101.954 50.9519 101.446 49.7423 101.446 48.2577C101.446 46.7732 101.996 45.646 103.095 44.8763C104.195 44.1065 105.707 43.7216 107.631 43.7216H111.838V43.1443C111.838 41.11 110.697 40.0928 108.415 40.0928C106.985 40.0928 105.501 40.6151 103.961 41.6598L102.518 39.6392C104.415 38.1546 106.532 37.4124 108.869 37.4124C110.765 37.4124 112.264 37.8935 113.363 38.8557C114.463 39.7904 115.013 41.2062 115.013 43.1031V53ZM111.796 45.9897H108.168C105.831 45.9897 104.662 46.7182 104.662 48.1753C104.662 48.9175 104.951 49.4948 105.528 49.9072C106.106 50.2921 106.917 50.4845 107.961 50.4845C109.034 50.4845 109.941 50.1959 110.683 49.6186C111.425 49.0137 111.796 48.2302 111.796 47.268V45.9897ZM122.77 53H119.554V31.5979H122.77V53ZM134.535 50.3608C135.937 50.3608 137.092 49.8935 137.999 48.9588C138.934 48.0241 139.401 46.8144 139.401 45.3299C139.401 43.8454 138.934 42.6357 137.999 41.701C137.092 40.7663 135.937 40.299 134.535 40.299C133.133 40.299 131.978 40.7663 131.071 41.701C130.164 42.6357 129.71 43.8454 129.71 45.3299C129.71 46.8144 130.164 48.0103 131.071 48.9175C131.978 49.8797 133.133 50.3608 134.535 50.3608ZM134.535 53.2474C132.226 53.2474 130.301 52.4914 128.762 50.9794C127.222 49.4399 126.452 47.5567 126.452 45.3299C126.452 43.1031 127.222 41.2337 128.762 39.7216C130.301 38.1821 132.226 37.4124 134.535 37.4124C136.844 37.4124 138.769 38.1821 140.308 39.7216C141.848 41.2337 142.617 43.1031 142.617 45.3299C142.617 47.4742 141.848 49.3436 140.308 50.9381C138.769 52.4777 136.844 53.2474 134.535 53.2474ZM149.489 46.4021V53H146.272V37.6598H149.489V40.7113C150.011 39.7491 150.712 38.9656 151.592 38.3608C152.499 37.756 153.448 37.4399 154.437 37.4124L154.479 40.6701H154.314C152.747 40.6701 151.551 41.1787 150.726 42.1959C149.901 43.2131 149.489 44.6151 149.489 46.4021ZM160.934 53H157.718V37.6598H160.934V53ZM157.305 33.1237C157.305 32.5739 157.498 32.1065 157.883 31.7216C158.295 31.3093 158.79 31.1031 159.367 31.1031C159.917 31.1031 160.384 31.3093 160.769 31.7216C161.182 32.1065 161.388 32.5739 161.388 33.1237C161.388 33.701 161.182 34.1959 160.769 34.6082C160.384 34.9931 159.917 35.1856 159.367 35.1856C158.79 35.1856 158.309 34.9794 157.924 34.567C157.512 34.1821 157.305 33.701 157.305 33.1237ZM179.915 46.732H167.874C167.957 47.8316 168.465 48.7251 169.4 49.4124C170.335 50.0997 171.421 50.4433 172.658 50.4433C174.61 50.4433 176.067 49.8385 177.029 48.6289L178.885 50.6495C177.235 52.3814 175.077 53.2474 172.41 53.2474C170.211 53.2474 168.369 52.5189 166.885 51.0619C165.4 49.6048 164.658 47.6804 164.658 45.2887C164.658 42.9519 165.414 41.055 166.926 39.5979C168.438 38.1409 170.266 37.4124 172.41 37.4124C174.555 37.4124 176.342 38.0584 177.771 39.3505C179.201 40.6426 179.915 42.3608 179.915 44.5052V46.732ZM176.699 44.1753C176.699 42.9381 176.3 41.9622 175.503 41.2474C174.733 40.5326 173.73 40.1753 172.493 40.1753C171.256 40.1753 170.17 40.5464 169.235 41.2887C168.328 42.0309 167.874 42.9931 167.874 44.1753H176.699ZM188.777 53.2474C186.303 53.2474 184.076 52.4777 182.097 50.9381L183.664 48.4227C185.423 49.7698 187.155 50.4433 188.86 50.4433C189.575 50.4433 190.138 50.2784 190.55 49.9485C190.99 49.5911 191.21 49.1512 191.21 48.6289C191.21 47.8591 190.193 47.1718 188.159 46.567C188.104 46.5395 188.035 46.512 187.953 46.4845C187.898 46.457 187.856 46.4433 187.829 46.4433C184.64 45.5911 183.045 44.1478 183.045 42.1134C183.045 40.6838 183.581 39.543 184.654 38.6907C185.753 37.8385 187.197 37.4124 188.983 37.4124C190.743 37.4124 192.42 37.9347 194.014 38.9794L192.819 41.3711C191.581 40.5464 190.221 40.134 188.736 40.134C187.004 40.134 186.138 40.6838 186.138 41.7835C186.138 42.2509 186.303 42.5945 186.633 42.8144C186.99 43.0069 187.568 43.1993 188.365 43.3918C189.575 43.7216 190.592 44.0515 191.416 44.3814C191.966 44.6289 192.447 44.89 192.86 45.1649C193.904 45.8797 194.427 46.9656 194.427 48.4227C194.427 49.8522 193.891 51.0206 192.819 51.9278C191.774 52.8076 190.427 53.2474 188.777 53.2474Z" fill="white"/>
<path d="M41.7202 236.186L41.7583 236.15L43.4768 234.593C43.5728 234.505 43.649 234.402 43.701 234.288C43.753 234.175 43.7797 234.053 43.7797 233.93C43.7797 233.806 43.753 233.685 43.701 233.571C43.649 233.457 43.5728 233.354 43.4768 233.267L42.011 231.938C41.915 231.851 41.801 231.782 41.6755 231.734C41.5501 231.687 41.4156 231.663 41.2798 231.663C41.144 231.663 41.0095 231.687 40.884 231.734C40.7585 231.782 40.6445 231.851 40.5485 231.938L38.9535 233.384C37.1031 232.005 34.8779 231.103 32.5108 230.771V228.75H34.5789C34.8531 228.75 35.1161 228.651 35.31 228.475C35.504 228.299 35.6129 228.061 35.6129 227.812V225.937C35.6129 225.689 35.504 225.45 35.31 225.275C35.1161 225.099 34.8531 225 34.5789 225H26.3065C26.0325 225.001 25.77 225.1 25.5763 225.275C25.3825 225.451 25.2733 225.689 25.2725 225.937V227.812C25.2733 228.061 25.3825 228.299 25.5763 228.474C25.77 228.65 26.0325 228.749 26.3065 228.75H28.3746V230.771C25.2763 231.207 22.4439 232.612 20.3677 234.742C18.2915 236.872 17.1022 239.594 17.0059 242.435C16.783 249.11 22.8657 254.894 30.2307 254.999C37.754 255.102 43.8852 249.608 43.8852 242.812C43.8914 240.459 43.1388 238.156 41.7202 236.186ZM29.174 247.121C29.3145 247.119 29.45 247.168 29.5508 247.257C29.6517 247.345 29.7095 247.467 29.7117 247.594V248.901C29.7095 249.028 29.6517 249.15 29.5508 249.238C29.45 249.327 29.3145 249.376 29.174 249.374H23.8196C23.6726 249.375 23.5268 249.349 23.3914 249.297C23.2561 249.245 23.1341 249.168 23.0332 249.071C22.9324 248.974 22.8548 248.859 22.8054 248.734C22.756 248.608 22.7358 248.474 22.7462 248.341C22.9258 246.278 23.6943 244.978 25.2311 242.988C26.5508 241.278 26.9825 240.801 26.9825 239.335C26.9825 238.344 26.8668 237.913 26.1934 237.913C25.5866 237.913 25.3733 238.347 25.3733 239.242V239.549C25.3722 239.612 25.3574 239.674 25.3298 239.732C25.3021 239.79 25.2621 239.842 25.2121 239.886C25.1622 239.93 25.1031 239.965 25.0384 239.988C24.9737 240.011 24.9045 240.023 24.8349 240.022H23.2257C23.1561 240.023 23.087 240.011 23.0223 239.988C22.9575 239.965 22.8985 239.93 22.8485 239.886C22.7985 239.842 22.7585 239.79 22.7309 239.732C22.7032 239.674 22.6885 239.612 22.6874 239.549V239.31C22.6874 237.711 23.2354 235.781 26.3343 235.781C29.1133 235.781 29.9257 237.295 29.9257 239.355C29.9257 241.439 29.1217 242.355 27.7057 244.119C26.9586 244.998 26.1152 246.203 25.9989 247.119L29.174 247.121ZM38.198 245.643C38.198 247.703 37.4031 249.374 34.4994 249.374C31.6829 249.374 30.9597 247.644 30.9597 245.656V239.485C30.9597 237.098 32.2251 235.781 34.5918 235.781C36.9701 235.781 38.198 237.107 38.198 239.372V245.643ZM34.5705 237.991C33.9623 237.991 33.7154 238.431 33.7154 239.163V245.957C33.7154 246.725 33.9474 247.163 34.5705 247.163C35.1935 247.163 35.4106 246.694 35.4106 245.917V239.124C35.4119 238.464 35.2174 237.991 34.5705 237.991Z" fill="white"/>
<defs>
<linearGradient id="paint0_linear_6309_25854" x1="0.742188" y1="269.898" x2="423.999" y2="32.2654" gradientUnits="userSpaceOnUse">
<stop stop-color="#DD5E89" stop-opacity="0.9"/>
<stop offset="1" stop-color="#F7BB97" stop-opacity="0.52"/>
</linearGradient>
</defs>
</svg>
