<svg width="276" height="271" viewBox="0 0 276 271" fill="none" xmlns="http://www.w3.org/2000/svg">
<rect x="0.878906" y="0.980469" width="274.258" height="269.898" rx="20" fill="url(#paint0_linear_6309_25852)" fill-opacity="0.9"/>
<path d="M201.295 236.807H204.998V246.98H203.375V238.326H201.295V236.807ZM208.954 241.821C208.954 243 209.162 243.929 209.578 244.609C209.994 245.288 210.618 245.628 211.45 245.628C212.283 245.628 212.9 245.295 213.302 244.63C213.704 243.95 213.905 243.014 213.905 241.821C213.905 240.628 213.704 239.699 213.302 239.033C212.9 238.353 212.283 238.014 211.45 238.014C210.577 238.014 209.953 238.367 209.578 239.075C209.162 239.768 208.954 240.684 208.954 241.821ZM207.29 241.821C207.29 240.184 207.643 238.901 208.351 237.972C209.058 237.029 210.091 236.557 211.45 236.557C212.81 236.557 213.836 237.022 214.53 237.951C215.237 238.88 215.591 240.17 215.591 241.821C215.591 243.471 215.237 244.768 214.53 245.711C213.836 246.641 212.81 247.105 211.45 247.105C210.063 247.105 209.023 246.62 208.33 245.649C207.636 244.706 207.29 243.43 207.29 241.821ZM218.985 241.821C218.985 243 219.193 243.929 219.609 244.609C220.025 245.288 220.65 245.628 221.482 245.628C222.314 245.628 222.931 245.295 223.333 244.63C223.736 243.95 223.937 243.014 223.937 241.821C223.937 240.628 223.736 239.699 223.333 239.033C222.931 238.353 222.314 238.014 221.482 238.014C220.608 238.014 219.984 238.367 219.609 239.075C219.193 239.768 218.985 240.684 218.985 241.821ZM217.321 241.821C217.321 240.184 217.674 238.901 218.382 237.972C219.089 237.029 220.122 236.557 221.482 236.557C222.841 236.557 223.867 237.022 224.561 237.951C225.268 238.88 225.622 240.17 225.622 241.821C225.622 243.471 225.268 244.768 224.561 245.711C223.867 246.641 222.841 247.105 221.482 247.105C220.095 247.105 219.055 246.62 218.361 245.649C217.668 244.706 217.321 243.43 217.321 241.821ZM233.308 246.98H231.686V236.183H233.308V242.528L236.45 239.241H238.551L235.618 242.299L238.78 246.98H236.783L234.494 243.589L233.308 244.775V246.98ZM247.317 239.241V245.982C247.317 247.313 246.956 248.333 246.235 249.04C245.514 249.748 244.55 250.101 243.343 250.101C242.206 250.101 241.152 249.734 240.181 248.999L240.951 247.771C241.727 248.34 242.497 248.624 243.26 248.624C244.924 248.624 245.756 247.792 245.756 246.127V245.129C245.521 245.587 245.174 245.954 244.716 246.231C244.258 246.495 243.752 246.627 243.197 246.627C242.171 246.627 241.325 246.273 240.659 245.566C240.007 244.844 239.681 243.95 239.681 242.882C239.681 241.8 240.007 240.905 240.659 240.198C241.325 239.477 242.171 239.116 243.197 239.116C244.224 239.116 245.056 239.539 245.694 240.385V239.241H247.317ZM243.468 245.15C244.12 245.15 244.654 244.928 245.07 244.484C245.486 244.026 245.694 243.464 245.694 242.799C245.694 242.119 245.479 241.557 245.049 241.113C244.633 240.656 244.099 240.427 243.447 240.427C242.795 240.427 242.268 240.663 241.866 241.134C241.478 241.592 241.283 242.147 241.283 242.799C241.283 243.464 241.485 244.026 241.887 244.484C242.289 244.928 242.816 245.15 243.468 245.15Z" fill="white"/>
<path d="M66.8525 241.804H68.636V245.436C67.6355 246.553 66.2 247.111 64.3294 247.111C62.7489 247.111 61.4293 246.589 60.3708 245.545C59.3123 244.501 58.783 243.196 58.783 241.63C58.783 240.064 59.3195 238.751 60.3926 237.693C61.4801 236.62 62.7924 236.083 64.3294 236.083C65.8665 236.083 67.1425 236.526 68.1575 237.41L67.2005 238.78C66.461 238.157 65.5547 237.845 64.4817 237.845C63.3941 237.845 62.4806 238.2 61.7411 238.911C61.0161 239.607 60.6536 240.513 60.6536 241.63C60.6536 242.746 61.0016 243.653 61.6976 244.349C62.4081 245.03 63.2854 245.371 64.3294 245.371C65.3445 245.371 66.1855 245.153 66.8525 244.718V241.804ZM74.4971 245.588C75.2367 245.588 75.8457 245.342 76.3242 244.849C76.8172 244.356 77.0637 243.718 77.0637 242.935C77.0637 242.152 76.8172 241.514 76.3242 241.021C75.8457 240.528 75.2367 240.281 74.4971 240.281C73.7576 240.281 73.1486 240.528 72.6701 241.021C72.1916 241.514 71.9523 242.152 71.9523 242.935C71.9523 243.718 72.1916 244.349 72.6701 244.827C73.1486 245.335 73.7576 245.588 74.4971 245.588ZM74.4971 247.111C73.2791 247.111 72.2641 246.712 71.4521 245.915C70.64 245.103 70.234 244.109 70.234 242.935C70.234 241.76 70.64 240.774 71.4521 239.977C72.2641 239.165 73.2791 238.759 74.4971 238.759C75.7152 238.759 76.7302 239.165 77.5422 239.977C78.3543 240.774 78.7603 241.76 78.7603 242.935C78.7603 244.066 78.3543 245.052 77.5422 245.893C76.7302 246.705 75.7152 247.111 74.4971 247.111ZM87.2351 246.98H85.6908V245.893C85.0092 246.705 84.1102 247.111 82.9937 247.111C82.1382 247.111 81.4349 246.872 80.8839 246.393C80.3474 245.9 80.0791 245.262 80.0791 244.479C80.0791 243.696 80.3691 243.102 80.9491 242.696C81.5291 242.29 82.3267 242.087 83.3417 242.087H85.5603V241.782C85.5603 240.709 84.9585 240.173 83.755 240.173C83.0009 240.173 82.2179 240.448 81.4059 240.999L80.6446 239.933C81.6451 239.15 82.7617 238.759 83.9942 238.759C84.9947 238.759 85.785 239.013 86.365 239.52C86.945 240.013 87.2351 240.76 87.2351 241.76V246.98ZM85.5385 243.283H83.6245C82.3919 243.283 81.7757 243.667 81.7757 244.436C81.7757 244.827 81.9279 245.132 82.2324 245.349C82.5369 245.552 82.9647 245.654 83.5157 245.654C84.0812 245.654 84.5597 245.501 84.9512 245.197C85.3427 244.878 85.5385 244.465 85.5385 243.957V243.283ZM91.3266 246.98H89.6301V235.692H91.3266V246.98Z" fill="white"/>
<path d="M141.5 65.9805C149.297 65.9805 156.775 69.4221 162.289 75.5483C167.803 81.6745 170.9 89.9834 170.9 98.6471C170.9 104.609 169.504 110.162 166.931 114.98H185.6C192.582 114.98 198.463 120.452 199.933 127.72C214.706 193.135 215 194.85 215 196.647C215 200.979 213.451 205.133 210.694 208.197C207.938 211.26 204.199 212.98 200.3 212.98H82.7C78.8013 212.98 75.0623 211.26 72.3055 208.197C69.5487 205.133 68 200.979 68 196.647C68 194.85 68.294 193.135 83.0675 127.72C84.5375 120.452 90.4175 114.98 97.4 114.98H116.069C113.442 110.035 112.07 104.39 112.1 98.6471C112.1 89.9834 115.197 81.6745 120.711 75.5483C126.225 69.4221 133.703 65.9805 141.5 65.9805ZM141.5 82.3138C137.601 82.3138 133.862 84.0346 131.106 87.0977C128.349 90.1608 126.8 94.3153 126.8 98.6471C126.8 102.979 128.349 107.133 131.106 110.197C133.862 113.26 137.601 114.98 141.5 114.98C145.399 114.98 149.138 113.26 151.894 110.197C154.651 107.133 156.2 102.979 156.2 98.6471C156.2 94.3153 154.651 90.1608 151.894 87.0977C149.138 84.0346 145.399 82.3138 141.5 82.3138ZM97.4 131.314V196.647H112.1V176.23L119.45 184.397V196.647H134.15V180.314L119.45 163.98L134.15 147.647V131.314H119.45V143.564L112.1 151.73V131.314H97.4ZM163.55 131.314C155.391 131.314 148.85 138.582 148.85 147.647V180.314C148.85 189.379 155.391 196.647 163.55 196.647H185.6V155.814H170.9V180.314H163.55V147.647H185.6V131.314H163.55Z" fill="white" fill-opacity="0.2"/>
<path d="M94.1134 48.331L98.6082 33.8155H101.66L106.155 48.331L111.227 33.8155H114.897L107.845 53.9805H104.464L100.258 40.166H100.01L95.7629 53.9805H92.3814L85.3299 33.8155H89L94.1134 48.331ZM131.892 47.7124H119.851C119.933 48.8121 120.442 49.7056 121.377 50.3928C122.311 51.0801 123.397 51.4238 124.634 51.4238C126.586 51.4238 128.043 50.819 129.005 49.6093L130.861 51.63C129.212 53.3619 127.054 54.2279 124.387 54.2279C122.188 54.2279 120.346 53.4994 118.861 52.0423C117.377 50.5853 116.634 48.6609 116.634 46.2691C116.634 43.9324 117.39 42.0355 118.902 40.5784C120.414 39.1214 122.243 38.3928 124.387 38.3928C126.531 38.3928 128.318 39.0389 129.748 40.331C131.177 41.6231 131.892 43.3413 131.892 45.4856V47.7124ZM128.676 45.1557C128.676 43.9186 128.277 42.9427 127.48 42.2279C126.71 41.5131 125.706 41.1557 124.469 41.1557C123.232 41.1557 122.146 41.5269 121.212 42.2691C120.304 43.0114 119.851 43.9736 119.851 45.1557H128.676ZM138.692 53.9805H135.476V38.6403H138.692V53.9805ZM135.063 34.1042C135.063 33.5544 135.256 33.087 135.64 32.7021C136.053 32.2897 136.548 32.0836 137.125 32.0836C137.675 32.0836 138.142 32.2897 138.527 32.7021C138.939 33.087 139.146 33.5544 139.146 34.1042C139.146 34.6815 138.939 35.1763 138.527 35.5887C138.142 35.9736 137.675 36.166 137.125 36.166C136.548 36.166 136.067 35.9598 135.682 35.5475C135.269 35.1626 135.063 34.6815 135.063 34.1042ZM157.591 38.6403V52.0011C157.591 54.6403 156.876 56.6609 155.446 58.0629C154.017 59.465 152.106 60.166 149.714 60.166C147.46 60.166 145.371 59.4375 143.446 57.9805L144.972 55.5475C146.512 56.6746 148.038 57.2382 149.55 57.2382C152.849 57.2382 154.498 55.5887 154.498 52.2897V50.3104C154.031 51.2176 153.343 51.9461 152.436 52.4959C151.529 53.0183 150.525 53.2794 149.426 53.2794C147.391 53.2794 145.714 52.5784 144.395 51.1763C143.103 49.7468 142.457 47.9736 142.457 45.8568C142.457 43.7124 143.103 41.9392 144.395 40.5372C145.714 39.1076 147.391 38.3928 149.426 38.3928C151.46 38.3928 153.11 39.2313 154.374 40.9083V38.6403H157.591ZM149.962 50.3516C151.254 50.3516 152.312 49.9117 153.137 49.032C153.962 48.1248 154.374 47.0114 154.374 45.6918C154.374 44.3447 153.948 43.2313 153.096 42.3516C152.271 41.4444 151.213 40.9908 149.921 40.9908C148.629 40.9908 147.584 41.4581 146.787 42.3928C146.017 43.3001 145.632 44.3997 145.632 45.6918C145.632 47.0114 146.031 48.1248 146.828 49.032C147.625 49.9117 148.67 50.3516 149.962 50.3516ZM165.489 53.9805H162.272V32.5784H165.489V41.4031C165.956 40.4684 166.657 39.7399 167.592 39.2176C168.527 38.6678 169.53 38.3928 170.602 38.3928C172.389 38.3928 173.805 38.9289 174.85 40.0011C175.894 41.0733 176.417 42.599 176.417 44.5784V53.9805H173.159V45.5681C173.159 42.7365 171.991 41.3207 169.654 41.3207C168.472 41.3207 167.482 41.7056 166.685 42.4753C165.888 43.2176 165.489 44.276 165.489 45.6506V53.9805ZM184.864 41.2382V49.032C184.864 49.7743 185.056 50.3653 185.441 50.8052C185.854 51.2176 186.403 51.4238 187.091 51.4238C187.723 51.4238 188.383 51.0801 189.07 50.3928L190.39 52.7021C189.235 53.7193 187.984 54.2279 186.637 54.2279C185.235 54.2279 184.053 53.7468 183.091 52.7846C182.129 51.7949 181.647 50.5166 181.647 48.9495V41.2382H179.709V38.6403H181.647V33.8155H184.864V38.6403H188.905V41.2382H184.864Z" fill="white"/>
<path d="M127.195 119.759C129.147 119.759 130.756 120.267 132.02 121.284C133.312 122.302 133.958 123.58 133.958 125.119C133.958 126.686 133.243 128.061 131.814 129.243C133.738 130.48 134.701 132.212 134.701 134.439C134.701 136.198 134 137.669 132.597 138.851C131.223 140.006 129.422 140.583 127.195 140.583C124.969 140.583 123.154 140.006 121.752 138.851C120.35 137.669 119.649 136.198 119.649 134.439C119.649 132.212 120.625 130.48 122.577 129.243C121.12 128.034 120.391 126.659 120.391 125.119C120.391 123.552 121.037 122.274 122.329 121.284C123.676 120.267 125.298 119.759 127.195 119.759ZM127.195 137.614C128.268 137.614 129.216 137.312 130.041 136.707C130.893 136.102 131.319 135.305 131.319 134.315C131.319 133.298 130.907 132.501 130.082 131.924C129.285 131.319 128.323 131.016 127.195 131.016C126.041 131.016 125.051 131.319 124.226 131.924C123.429 132.501 123.03 133.298 123.03 134.315C123.03 135.415 123.47 136.226 124.35 136.748C125.257 137.326 126.206 137.614 127.195 137.614ZM127.195 128.46C128.185 128.46 129.037 128.171 129.752 127.594C130.467 126.989 130.824 126.26 130.824 125.408C130.824 124.583 130.467 123.882 129.752 123.305C129.037 122.7 128.185 122.398 127.195 122.398C126.206 122.398 125.34 122.7 124.597 123.305C123.883 123.882 123.525 124.583 123.525 125.408C123.525 126.26 123.896 126.989 124.639 127.594C125.381 128.171 126.233 128.46 127.195 128.46ZM141.349 130.109C141.349 132.446 141.761 134.288 142.586 135.635C143.41 136.982 144.648 137.656 146.297 137.656C147.947 137.656 149.17 136.996 149.967 135.676C150.764 134.329 151.163 132.473 151.163 130.109C151.163 127.745 150.764 125.903 149.967 124.583C149.17 123.236 147.947 122.563 146.297 122.563C144.565 122.563 143.328 123.264 142.586 124.666C141.761 126.04 141.349 127.855 141.349 130.109ZM138.05 130.109C138.05 126.865 138.751 124.322 140.153 122.48C141.555 120.611 143.603 119.676 146.297 119.676C148.991 119.676 151.026 120.597 152.4 122.439C153.802 124.281 154.503 126.838 154.503 130.109C154.503 133.381 153.802 135.951 152.4 137.82C151.026 139.662 148.991 140.583 146.297 140.583C143.548 140.583 141.486 139.621 140.111 137.697C138.737 135.827 138.05 133.298 138.05 130.109Z" fill="white"/>
<path d="M129.319 168.494H127.401V155.733H129.319V163.232L133.032 159.348H135.515L132.049 162.962L135.786 168.494H133.425L130.721 164.486L129.319 165.888V168.494ZM145.875 159.348V167.314C145.875 168.888 145.449 170.092 144.596 170.928C143.744 171.764 142.605 172.182 141.179 172.182C139.834 172.182 138.589 171.748 137.441 170.879L138.351 169.428C139.269 170.101 140.179 170.437 141.08 170.437C143.047 170.437 144.031 169.453 144.031 167.486V166.306C143.752 166.847 143.342 167.281 142.801 167.609C142.26 167.92 141.662 168.076 141.006 168.076C139.793 168.076 138.794 167.658 138.007 166.822C137.236 165.97 136.851 164.913 136.851 163.65C136.851 162.372 137.236 161.315 138.007 160.479C138.794 159.626 139.793 159.2 141.006 159.2C142.219 159.2 143.203 159.7 143.957 160.7V159.348H145.875ZM141.326 166.33C142.096 166.33 142.728 166.068 143.219 165.544C143.711 165.003 143.957 164.339 143.957 163.552C143.957 162.749 143.703 162.085 143.195 161.56C142.703 161.02 142.072 160.749 141.301 160.749C140.531 160.749 139.908 161.028 139.433 161.585C138.974 162.126 138.744 162.782 138.744 163.552C138.744 164.339 138.982 165.003 139.457 165.544C139.933 166.068 140.556 166.33 141.326 166.33Z" fill="white"/>
<path d="M144.408 81.441C144.721 78.4668 142.562 75.7808 139.573 75.6941C129.105 75.3905 118.675 77.3897 109.029 81.5772C97.7231 86.485 87.878 94.2319 80.4489 104.066C73.0198 113.901 68.259 125.488 66.6285 137.705C64.9979 149.922 66.553 162.352 71.1429 173.791C75.7327 185.229 83.2015 195.287 92.8243 202.988C102.447 210.689 113.897 215.772 126.064 217.743C138.23 219.715 150.699 218.508 162.261 214.24C172.127 210.598 181.046 204.833 188.4 197.378C190.5 195.249 190.204 191.816 187.922 189.882C185.64 187.949 182.239 188.252 180.111 190.352C173.984 196.397 166.624 201.085 158.511 204.08C148.7 207.702 138.119 208.726 127.796 207.053C117.472 205.38 107.756 201.067 99.5911 194.533C91.4258 187.998 85.0883 179.464 81.1937 169.758C77.299 160.052 75.9794 149.504 77.363 139.138C78.7466 128.771 82.7863 118.939 89.0901 110.594C95.394 102.249 103.748 95.6757 113.341 91.5113C121.274 88.0674 129.833 86.3678 138.439 86.501C141.429 86.5473 144.096 84.4152 144.408 81.441Z" fill="white"/>
<path d="M31.7096 227C33.164 227 34.5588 227.585 35.5872 228.627C36.6156 229.669 37.1934 231.082 37.1934 232.556C37.1934 233.569 36.9329 234.514 36.4531 235.333H39.9353C41.2377 235.333 42.3345 236.264 42.6087 237.5C45.3643 248.625 45.4191 248.917 45.4191 249.222C45.4191 249.959 45.1303 250.665 44.6161 251.186C44.1018 251.707 43.4044 252 42.6772 252H20.7419C20.0147 252 19.3173 251.707 18.8031 251.186C18.2889 250.665 18 249.959 18 249.222C18 248.917 18.0548 248.625 20.8105 237.5C21.0847 236.264 22.1814 235.333 23.4838 235.333H26.9661C26.476 234.492 26.2201 233.532 26.2257 232.556C26.2257 231.082 26.8035 229.669 27.8319 228.627C28.8603 227.585 30.2552 227 31.7096 227ZM31.7096 229.778C30.9824 229.778 30.285 230.07 29.7707 230.591C29.2565 231.112 28.9677 231.819 28.9677 232.556C28.9677 233.292 29.2565 233.999 29.7707 234.52C30.285 235.041 30.9824 235.333 31.7096 235.333C32.4368 235.333 33.1342 235.041 33.6484 234.52C34.1626 233.999 34.4515 233.292 34.4515 232.556C34.4515 231.819 34.1626 231.112 33.6484 230.591C33.1342 230.07 32.4368 229.778 31.7096 229.778ZM23.4838 238.111V249.222H26.2257V245.75L27.5967 247.139V249.222H30.3386V246.444L27.5967 243.667L30.3386 240.889V238.111H27.5967V240.194L26.2257 241.583V238.111H23.4838ZM35.8224 238.111C34.3007 238.111 33.0805 239.347 33.0805 240.889V246.444C33.0805 247.986 34.3007 249.222 35.8224 249.222H39.9353V242.278H37.1934V246.444H35.8224V240.889H39.9353V238.111H35.8224Z" fill="white"/>
<defs>
<linearGradient id="paint0_linear_6309_25852" x1="298.44" y1="-131.373" x2="-94.9283" y2="122.328" gradientUnits="userSpaceOnUse">
<stop stop-color="#4ECDC4" stop-opacity="0.52"/>
<stop offset="1" stop-color="#556270" stop-opacity="0.9"/>
</linearGradient>
</defs>
</svg>
