<svg width="277" height="270" viewBox="0 0 277 270" fill="none" xmlns="http://www.w3.org/2000/svg">
<rect x="0.830811" width="275.244" height="269.898" rx="20" fill="url(#paint0_linear_6309_25853)" fill-opacity="0.9"/>
<path d="M218.47 235.599C219.455 235.599 220.266 235.855 220.904 236.369C221.556 236.882 221.882 237.527 221.882 238.303C221.882 239.094 221.522 239.788 220.8 240.384C221.771 241.008 222.257 241.882 222.257 243.005C222.257 243.893 221.903 244.635 221.196 245.231C220.502 245.814 219.594 246.105 218.47 246.105C217.347 246.105 216.431 245.814 215.724 245.231C215.017 244.635 214.663 243.893 214.663 243.005C214.663 241.882 215.155 241.008 216.14 240.384C215.405 239.774 215.037 239.08 215.037 238.303C215.037 237.513 215.363 236.868 216.015 236.369C216.695 235.855 217.513 235.599 218.47 235.599ZM218.47 244.607C219.011 244.607 219.49 244.455 219.906 244.15C220.336 243.844 220.551 243.442 220.551 242.943C220.551 242.43 220.343 242.028 219.927 241.736C219.524 241.431 219.039 241.279 218.47 241.279C217.888 241.279 217.388 241.431 216.972 241.736C216.57 242.028 216.369 242.43 216.369 242.943C216.369 243.498 216.591 243.907 217.035 244.17C217.492 244.462 217.971 244.607 218.47 244.607ZM218.47 239.989C218.97 239.989 219.4 239.843 219.76 239.552C220.121 239.247 220.301 238.879 220.301 238.449C220.301 238.033 220.121 237.679 219.76 237.388C219.4 237.083 218.97 236.93 218.47 236.93C217.971 236.93 217.534 237.083 217.16 237.388C216.799 237.679 216.619 238.033 216.619 238.449C216.619 238.879 216.806 239.247 217.18 239.552C217.555 239.843 217.985 239.989 218.47 239.989ZM229.903 245.98H228.28V235.183H229.903V239.635C230.139 239.163 230.492 238.796 230.964 238.532C231.435 238.255 231.942 238.116 232.483 238.116C233.384 238.116 234.098 238.387 234.626 238.928C235.153 239.469 235.416 240.238 235.416 241.237V245.98H233.773V241.736C233.773 240.308 233.183 239.593 232.004 239.593C231.408 239.593 230.908 239.788 230.506 240.176C230.104 240.55 229.903 241.084 229.903 241.778V245.98ZM239.303 242.652V245.98H237.681V238.241H239.303V239.781C239.567 239.295 239.921 238.9 240.364 238.595C240.822 238.29 241.301 238.13 241.8 238.116L241.821 239.76H241.738C240.947 239.76 240.344 240.016 239.928 240.53C239.511 241.043 239.303 241.75 239.303 242.652ZM246.118 246.105C244.87 246.105 243.746 245.717 242.748 244.94L243.538 243.671C244.426 244.351 245.3 244.691 246.16 244.691C246.52 244.691 246.805 244.607 247.013 244.441C247.235 244.261 247.346 244.039 247.346 243.775C247.346 243.387 246.832 243.04 245.806 242.735C245.778 242.721 245.744 242.707 245.702 242.693C245.674 242.679 245.653 242.672 245.64 242.672C244.031 242.243 243.226 241.514 243.226 240.488C243.226 239.767 243.497 239.191 244.038 238.761C244.592 238.331 245.321 238.116 246.222 238.116C247.11 238.116 247.956 238.38 248.76 238.907L248.157 240.113C247.533 239.697 246.846 239.489 246.097 239.489C245.223 239.489 244.787 239.767 244.787 240.322C244.787 240.557 244.87 240.731 245.036 240.842C245.217 240.939 245.508 241.036 245.91 241.133C246.52 241.299 247.033 241.466 247.45 241.632C247.727 241.757 247.97 241.889 248.178 242.028C248.705 242.388 248.968 242.936 248.968 243.671C248.968 244.392 248.698 244.982 248.157 245.44C247.63 245.883 246.95 246.105 246.118 246.105Z" fill="white"/>
<path d="M66.8525 240.804H68.636V244.436C67.6355 245.553 66.2 246.111 64.3294 246.111C62.7489 246.111 61.4293 245.589 60.3708 244.545C59.3123 243.501 58.783 242.196 58.783 240.63C58.783 239.064 59.3195 237.751 60.3926 236.693C61.4801 235.62 62.7924 235.083 64.3294 235.083C65.8665 235.083 67.1425 235.526 68.1575 236.41L67.2005 237.78C66.461 237.157 65.5547 236.845 64.4817 236.845C63.3941 236.845 62.4806 237.2 61.7411 237.911C61.0161 238.607 60.6536 239.513 60.6536 240.63C60.6536 241.746 61.0016 242.653 61.6976 243.349C62.4081 244.03 63.2854 244.371 64.3294 244.371C65.3445 244.371 66.1855 244.153 66.8525 243.718V240.804ZM74.4971 244.588C75.2367 244.588 75.8457 244.342 76.3242 243.849C76.8172 243.356 77.0637 242.718 77.0637 241.935C77.0637 241.152 76.8172 240.514 76.3242 240.021C75.8457 239.528 75.2367 239.281 74.4971 239.281C73.7576 239.281 73.1486 239.528 72.6701 240.021C72.1916 240.514 71.9523 241.152 71.9523 241.935C71.9523 242.718 72.1916 243.349 72.6701 243.827C73.1486 244.335 73.7576 244.588 74.4971 244.588ZM74.4971 246.111C73.2791 246.111 72.2641 245.712 71.4521 244.915C70.64 244.103 70.234 243.109 70.234 241.935C70.234 240.76 70.64 239.774 71.4521 238.977C72.2641 238.165 73.2791 237.759 74.4971 237.759C75.7152 237.759 76.7302 238.165 77.5422 238.977C78.3543 239.774 78.7603 240.76 78.7603 241.935C78.7603 243.066 78.3543 244.052 77.5422 244.893C76.7302 245.705 75.7152 246.111 74.4971 246.111ZM87.2351 245.98H85.6908V244.893C85.0092 245.705 84.1102 246.111 82.9937 246.111C82.1382 246.111 81.4349 245.872 80.8839 245.393C80.3474 244.9 80.0791 244.262 80.0791 243.479C80.0791 242.696 80.3691 242.102 80.9491 241.696C81.5291 241.29 82.3267 241.087 83.3417 241.087H85.5603V240.782C85.5603 239.709 84.9585 239.173 83.755 239.173C83.0009 239.173 82.2179 239.448 81.4059 239.999L80.6446 238.933C81.6451 238.15 82.7617 237.759 83.9942 237.759C84.9947 237.759 85.785 238.013 86.365 238.52C86.945 239.013 87.2351 239.76 87.2351 240.76V245.98ZM85.5385 242.283H83.6245C82.3919 242.283 81.7757 242.667 81.7757 243.436C81.7757 243.827 81.9279 244.132 82.2324 244.349C82.5369 244.552 82.9647 244.654 83.5157 244.654C84.0812 244.654 84.5597 244.501 84.9512 244.197C85.3427 243.878 85.5385 243.465 85.5385 242.957V242.283ZM91.3266 245.98H89.6301V234.692H91.3266V245.98Z" fill="white"/>
<path d="M116.263 87.666C110.923 99.3634 109.263 112.431 111.509 125.109C113.754 137.788 119.797 149.467 128.822 158.573C137.847 167.68 149.421 173.777 161.986 176.043C174.55 178.309 187.501 176.635 199.093 171.246C192.197 202.578 164.497 226 131.372 226C93.0579 226 62 194.661 62 156C62 122.575 85.2119 94.624 116.263 87.666ZM174.133 88.037L179.933 89.5V96.5L174.133 97.963C171.694 98.5785 169.466 99.8513 167.689 101.645C165.911 103.439 164.649 105.687 164.039 108.148L162.589 114H155.652L154.202 108.148C153.592 105.687 152.331 103.439 150.553 101.645C148.775 99.8513 146.548 98.5785 144.109 97.963L138.309 96.5V89.5L144.109 88.037C146.547 87.4204 148.773 86.1471 150.549 84.3533C152.326 82.5594 153.586 80.3123 154.195 77.852L155.652 72H162.589L164.039 77.852C164.649 80.3132 165.911 82.5609 167.689 84.3548C169.466 86.1487 171.694 87.4215 174.133 88.037ZM208.819 123.037L214.619 124.5V131.5L208.819 132.963C206.38 133.579 204.152 134.851 202.375 136.645C200.597 138.439 199.335 140.687 198.725 143.148L197.276 149H190.338L188.888 143.148C188.278 140.687 187.017 138.439 185.239 136.645C183.461 134.851 181.234 133.579 178.795 132.963L172.995 131.5V124.5L178.795 123.037C181.234 122.421 183.461 121.149 185.239 119.355C187.017 117.561 188.278 115.313 188.888 112.852L190.338 107H197.276L198.725 112.852C199.335 115.313 200.597 117.561 202.375 119.355C204.152 121.149 206.38 122.421 208.819 123.037Z" fill="white" fill-opacity="0.2"/>
<path d="M106.155 128.407V123.356H118.603V125.99L111.098 141H107.814L115.139 126.062H108.861V128.407H106.155ZM131.097 141H128.282V122.273H131.097V129.995C131.506 129.177 132.119 128.54 132.937 128.082C133.755 127.601 134.633 127.361 135.571 127.361C137.135 127.361 138.373 127.83 139.287 128.768C140.202 129.706 140.659 131.041 140.659 132.773V141H137.808V133.639C137.808 131.162 136.786 129.923 134.741 129.923C133.707 129.923 132.841 130.259 132.143 130.933C131.446 131.582 131.097 132.509 131.097 133.711V141ZM147.4 135.227V141H144.586V127.577H147.4V130.247C147.857 129.405 148.471 128.72 149.241 128.191C150.034 127.662 150.864 127.385 151.73 127.361L151.766 130.211H151.622C150.251 130.211 149.205 130.656 148.483 131.546C147.761 132.436 147.4 133.663 147.4 135.227ZM106.948 156.99V154.356H117.268V156.665L113.01 161.428C114.598 161.476 115.849 161.981 116.763 162.943C117.701 163.881 118.17 165.048 118.17 166.443C118.17 168.223 117.557 169.631 116.33 170.665C115.127 171.699 113.552 172.216 111.603 172.216C109.703 172.216 107.826 171.603 105.974 170.376L107.237 167.995C108.68 169.005 110.196 169.51 111.784 169.51C112.842 169.51 113.696 169.27 114.345 168.789C114.995 168.284 115.32 167.586 115.32 166.696C115.32 165.782 114.947 165.06 114.201 164.531C113.455 164.002 112.433 163.737 111.134 163.737C110.509 163.737 109.883 163.833 109.258 164.026V161.753L113.335 156.99H106.948ZM131.897 154.32V157.026H124.464V161.356C125.21 160.947 126.052 160.742 126.99 160.742C128.698 160.742 130.129 161.259 131.284 162.294C132.462 163.304 133.052 164.639 133.052 166.299C133.052 167.983 132.426 169.39 131.175 170.521C129.924 171.651 128.397 172.216 126.593 172.216C124.211 172.216 122.311 171.423 120.892 169.835L122.479 167.67C122.503 167.694 122.576 167.766 122.696 167.887C122.84 167.983 122.961 168.067 123.057 168.139C123.345 168.38 123.839 168.644 124.536 168.933C125.258 169.198 125.991 169.33 126.737 169.33C127.651 169.33 128.433 169.065 129.083 168.536C129.756 168.007 130.093 167.285 130.093 166.371C130.093 165.433 129.732 164.699 129.01 164.17C128.289 163.617 127.363 163.34 126.232 163.34C125.125 163.34 124.055 163.617 123.021 164.17L121.758 162.799V154.32H131.897ZM146.067 172H143.253V158.577H146.067V160.995C146.476 160.177 147.09 159.54 147.908 159.082C148.725 158.601 149.604 158.361 150.542 158.361C152.683 158.361 154.126 159.239 154.872 160.995C156.195 159.239 157.854 158.361 159.851 158.361C161.39 158.361 162.617 158.83 163.531 159.768C164.445 160.706 164.902 162.041 164.902 163.773V172H162.088V164.639C162.088 162.162 161.054 160.923 158.985 160.923C157.975 160.923 157.121 161.247 156.423 161.897C155.75 162.522 155.401 163.4 155.377 164.531V172H152.526V164.639C152.526 163.364 152.298 162.426 151.841 161.825C151.384 161.223 150.674 160.923 149.712 160.923C148.677 160.923 147.811 161.259 147.114 161.933C146.416 162.582 146.067 163.509 146.067 164.711V172ZM171.702 172H168.888V158.577H171.702V172ZM168.527 154.608C168.527 154.127 168.695 153.718 169.032 153.381C169.393 153.021 169.826 152.84 170.331 152.84C170.812 152.84 171.221 153.021 171.558 153.381C171.919 153.718 172.099 154.127 172.099 154.608C172.099 155.113 171.919 155.546 171.558 155.907C171.221 156.244 170.812 156.412 170.331 156.412C169.826 156.412 169.405 156.232 169.068 155.871C168.707 155.534 168.527 155.113 168.527 154.608ZM178.641 172H175.826V158.577H178.641V160.995C179.098 160.177 179.723 159.54 180.517 159.082C181.335 158.601 182.201 158.361 183.115 158.361C184.678 158.361 185.917 158.83 186.831 159.768C187.745 160.706 188.203 162.041 188.203 163.773V172H185.352V164.639C185.352 162.162 184.33 160.923 182.285 160.923C181.251 160.923 180.385 161.259 179.687 161.933C178.989 162.582 178.641 163.509 178.641 164.711V172Z" fill="white"/>
<path d="M144.408 81.4605C144.721 78.4864 142.562 75.8003 139.573 75.7136C129.105 75.41 118.675 77.4093 109.029 81.5967C97.7231 86.5045 87.878 94.2514 80.4489 104.086C73.0198 113.92 68.259 125.508 66.6285 137.724C64.9979 149.941 66.553 162.372 71.1429 173.81C75.7327 185.249 83.2015 195.307 92.8243 203.008C102.447 210.709 113.897 215.792 126.064 217.763C138.23 219.734 150.699 218.527 162.261 214.259C172.127 210.617 181.046 204.852 188.4 197.397C190.5 195.268 190.204 191.835 187.922 189.902C185.64 187.969 182.239 188.271 180.111 190.372C173.984 196.417 166.624 201.104 158.511 204.1C148.7 207.721 138.119 208.746 127.796 207.073C117.472 205.4 107.756 201.087 99.5911 194.552C91.4258 188.018 85.0883 179.483 81.1937 169.777C77.299 160.071 75.9794 149.523 77.363 139.157C78.7466 128.791 82.7863 118.958 89.0901 110.614C95.394 102.269 103.748 95.6952 113.341 91.5308C121.274 88.087 129.833 86.3874 138.439 86.5206C141.429 86.5668 144.096 84.4347 144.408 81.4605Z" fill="white"/>
<path d="M102.526 37.9072C102.526 38.7594 102.842 39.378 103.474 39.7629C104.107 40.2302 105.454 40.7113 107.515 41.2062C109.687 41.7285 111.268 42.4433 112.258 43.3505C113.275 44.2577 113.784 45.5636 113.784 47.268C113.784 49.055 113.11 50.4983 111.763 51.5979C110.443 52.6976 108.711 53.2474 106.567 53.2474C103.46 53.2474 100.656 52.1478 98.1546 49.9485L100.299 47.3918C102.388 49.1787 104.505 50.0722 106.649 50.0722C107.722 50.0722 108.588 49.8385 109.247 49.3711C109.907 48.8763 110.237 48.244 110.237 47.4742C110.237 46.7045 109.935 46.0997 109.33 45.6598C108.753 45.2199 107.708 44.8213 106.196 44.4639C103.584 43.8591 101.77 43.1443 100.753 42.3196C99.5704 41.4124 98.9794 40.0241 98.9794 38.1546C98.9794 36.3402 99.6392 34.9244 100.959 33.9072C102.278 32.8625 103.969 32.3402 106.031 32.3402C108.808 32.3402 111.186 33.1512 113.165 34.7732L111.351 37.3299C110.746 36.7801 109.935 36.3402 108.918 36.0103C107.9 35.6529 106.897 35.4742 105.907 35.4742C104.89 35.4742 104.065 35.6942 103.433 36.134C102.828 36.5464 102.526 37.1375 102.526 37.9072ZM120.77 53H117.554V31.5979H120.77V53ZM139.751 46.732H127.71C127.793 47.8316 128.301 48.7251 129.236 49.4124C130.171 50.0997 131.257 50.4433 132.494 50.4433C134.446 50.4433 135.903 49.8385 136.865 48.6289L138.72 50.6495C137.071 52.3814 134.913 53.2474 132.246 53.2474C130.047 53.2474 128.205 52.5189 126.72 51.0619C125.236 49.6048 124.494 47.6804 124.494 45.2887C124.494 42.9519 125.25 41.055 126.762 39.5979C128.274 38.1409 130.102 37.4124 132.246 37.4124C134.391 37.4124 136.177 38.0584 137.607 39.3505C139.037 40.6426 139.751 42.3608 139.751 44.5052V46.732ZM136.535 44.1753C136.535 42.9381 136.136 41.9622 135.339 41.2474C134.569 40.5326 133.566 40.1753 132.329 40.1753C131.092 40.1753 130.006 40.5464 129.071 41.2887C128.164 42.0309 127.71 42.9931 127.71 44.1753H136.535ZM157.603 46.732H145.562C145.644 47.8316 146.153 48.7251 147.087 49.4124C148.022 50.0997 149.108 50.4433 150.345 50.4433C152.297 50.4433 153.754 49.8385 154.716 48.6289L156.572 50.6495C154.923 52.3814 152.764 53.2474 150.098 53.2474C147.898 53.2474 146.057 52.5189 144.572 51.0619C143.087 49.6048 142.345 47.6804 142.345 45.2887C142.345 42.9519 143.101 41.055 144.613 39.5979C146.125 38.1409 147.953 37.4124 150.098 37.4124C152.242 37.4124 154.029 38.0584 155.459 39.3505C156.888 40.6426 157.603 42.3608 157.603 44.5052V46.732ZM154.386 44.1753C154.386 42.9381 153.988 41.9622 153.191 41.2474C152.421 40.5326 151.417 40.1753 150.18 40.1753C148.943 40.1753 147.857 40.5464 146.923 41.2887C146.015 42.0309 145.562 42.9931 145.562 44.1753H154.386ZM176.898 45.2474C176.898 47.5567 176.183 49.4674 174.753 50.9794C173.324 52.4914 171.619 53.2474 169.64 53.2474C167.688 53.2474 165.942 52.3952 164.403 50.6907V58.6082H161.186V37.6598H164.403V40.3402C165.695 38.3883 167.358 37.4124 169.393 37.4124C171.509 37.4124 173.283 38.1409 174.712 39.5979C176.169 41.055 176.898 42.9381 176.898 45.2474ZM168.898 50.3608C170.217 50.3608 171.331 49.8935 172.238 48.9588C173.173 47.9966 173.64 46.7869 173.64 45.3299C173.64 43.8729 173.173 42.6632 172.238 41.701C171.331 40.7388 170.231 40.2577 168.939 40.2577C167.647 40.2577 166.561 40.7526 165.681 41.7423C164.802 42.7045 164.362 43.9003 164.362 45.3299C164.362 46.7869 164.802 47.9966 165.681 48.9588C166.561 49.8935 167.633 50.3608 168.898 50.3608Z" fill="white"/>
<path d="M27.2947 228.052C26.2815 230.331 25.9668 232.876 26.3928 235.346C26.8188 237.816 27.9651 240.091 29.6773 241.865C31.3896 243.639 33.5854 244.827 35.9691 245.268C38.3528 245.71 40.8098 245.383 43.0091 244.334C41.7009 250.437 36.4456 255 30.1612 255C22.8923 255 17 248.895 17 241.364C17 234.852 21.4037 229.407 27.2947 228.052ZM38.2737 228.124L39.374 228.409V229.773L38.2737 230.058C37.811 230.178 37.3884 230.426 37.0511 230.775C36.7138 231.125 36.4745 231.562 36.3588 232.042L36.0837 233.182H34.7676L34.4925 232.042C34.3768 231.562 34.1375 231.125 33.8002 230.775C33.4629 230.426 33.0403 230.178 32.5776 230.058L31.4773 229.773V228.409L32.5776 228.124C33.0401 228.004 33.4624 227.756 33.7994 227.406C34.1365 227.057 34.3756 226.619 34.4912 226.14L34.7676 225H36.0837L36.3588 226.14C36.4745 226.619 36.7138 227.057 37.0511 227.407C37.3884 227.756 37.811 228.004 38.2737 228.124ZM44.8543 234.942L45.9546 235.227V236.591L44.8543 236.876C44.3916 236.996 43.969 237.244 43.6317 237.593C43.2944 237.943 43.0551 238.381 42.9394 238.86L42.6643 240H41.3482L41.0731 238.86C40.9574 238.381 40.7181 237.943 40.3808 237.593C40.0435 237.244 39.6209 236.996 39.1582 236.876L38.0579 236.591V235.227L39.1582 234.942C39.6209 234.822 40.0435 234.574 40.3808 234.225C40.7181 233.875 40.9574 233.438 41.0731 232.958L41.3482 231.818H42.6643L42.9394 232.958C43.0551 233.438 43.2944 233.875 43.6317 234.225C43.969 234.574 44.3916 234.822 44.8543 234.942Z" fill="white"/>
<defs>
<linearGradient id="paint0_linear_6309_25853" x1="276.075" y1="8.65257e-06" x2="112.853" y2="309.48" gradientUnits="userSpaceOnUse">
<stop offset="0.322174" stop-color="#4518DB" stop-opacity="0.9"/>
<stop offset="1" stop-color="#7B29FF" stop-opacity="0.52"/>
</linearGradient>
</defs>
</svg>
