<svg width="275" height="271" viewBox="0 0 275 271" fill="none" xmlns="http://www.w3.org/2000/svg">
<rect width="274.258" height="270.88" rx="20" fill="url(#paint0_linear_6267_25831)" fill-opacity="0.9"/>
<path d="M92.5141 179.802C85.5307 179.802 79.8507 177.132 75.5915 171.831C71.3323 166.531 68.537 158.665 66.9093 147.22C64.5126 130.354 66.8908 116.139 73.6055 107.194C77.5589 101.926 82.7478 98.8807 88.6101 98.3905C93.6291 97.9657 101.131 100.119 108.377 112.77C112.915 120.691 116.365 131.214 117.844 141.639C119.632 154.224 118.301 163.488 113.773 169.956C110.178 175.093 104.649 178.276 97.3385 179.433C95.7411 179.681 94.1286 179.804 92.5141 179.802Z" fill="white" fill-opacity="0.2"/>
<path d="M100.714 221.648C95.8015 221.648 90.822 220.302 86.3371 217.715C79.8654 213.963 75.3858 208.177 73.8718 201.614C72.8119 196.949 73.4478 193.242 75.813 190.273C79.6545 185.452 86.5491 184.367 93.8454 183.215C94.6152 183.095 95.3961 182.974 96.1882 182.843C97.8691 182.569 99.5872 182.207 101.253 181.854C107.493 180.536 113.949 179.171 119.278 182.41C122.844 184.574 124.856 188.253 125.459 193.649C126.143 199.877 124.581 206.091 121.059 211.151C117.27 216.595 111.588 220.194 105.069 221.289C103.634 221.528 102.176 221.649 100.714 221.648Z" fill="white" fill-opacity="0.2"/>
<path d="M177.011 148.23C175.069 148.224 173.13 148.097 171.21 147.848C162.411 146.734 155.754 143.632 151.426 138.62C145.974 132.323 144.36 123.305 146.524 111.048C148.305 100.888 152.448 90.6509 157.885 82.9663C166.565 70.6931 175.609 68.5644 181.685 68.9398C188.721 69.379 194.958 72.3033 199.725 77.4041C207.866 86.1133 210.751 99.9965 207.854 116.492C205.895 127.629 202.574 135.25 197.401 140.456C192.228 145.662 185.419 148.23 177.011 148.23Z" fill="white" fill-opacity="0.2"/>
<path d="M162.444 191.101C160.986 191.101 159.532 190.98 158.101 190.741C151.571 189.647 145.888 186.048 142.11 180.603C138.588 175.544 137.026 169.329 137.711 163.102C138.306 157.693 140.314 154.027 143.891 151.86C149.22 148.624 155.676 149.986 161.916 151.306C163.582 151.656 165.3 152.019 166.981 152.296L169.32 152.668C176.62 153.817 183.515 154.896 187.356 159.723C189.722 162.692 190.357 166.405 189.298 171.064C187.785 177.627 183.305 183.415 176.832 187.168C172.321 189.758 167.342 191.101 162.444 191.101Z" fill="white" fill-opacity="0.2"/>
<path d="M121.021 117.149V120.242H112.526V125.191C113.378 124.723 114.34 124.489 115.412 124.489C117.364 124.489 119 125.081 120.32 126.263C121.667 127.417 122.34 128.943 122.34 130.84C122.34 132.764 121.625 134.373 120.196 135.665C118.766 136.957 117.021 137.603 114.959 137.603C112.237 137.603 110.065 136.696 108.443 134.881L110.258 132.407C110.285 132.435 110.368 132.517 110.505 132.654C110.67 132.764 110.808 132.861 110.918 132.943C111.247 133.218 111.811 133.52 112.608 133.85C113.433 134.153 114.271 134.304 115.124 134.304C116.168 134.304 117.062 134.002 117.804 133.397C118.574 132.792 118.959 131.967 118.959 130.922C118.959 129.85 118.546 129.012 117.722 128.407C116.897 127.775 115.838 127.459 114.546 127.459C113.282 127.459 112.058 127.775 110.876 128.407L109.433 126.84V117.149H121.021ZM128.708 127.129C128.708 129.465 129.121 131.307 129.946 132.654C130.77 134.002 132.007 134.675 133.657 134.675C135.306 134.675 136.53 134.015 137.327 132.696C138.124 131.349 138.523 129.493 138.523 127.129C138.523 124.764 138.124 122.922 137.327 121.603C136.53 120.256 135.306 119.582 133.657 119.582C131.925 119.582 130.688 120.283 129.946 121.685C129.121 123.06 128.708 124.874 128.708 127.129ZM125.409 127.129C125.409 123.885 126.111 121.342 127.513 119.5C128.915 117.63 130.963 116.696 133.657 116.696C136.351 116.696 138.385 117.617 139.76 119.459C141.162 121.3 141.863 123.857 141.863 127.129C141.863 130.4 141.162 132.971 139.76 134.84C138.385 136.682 136.351 137.603 133.657 137.603C130.908 137.603 128.846 136.641 127.471 134.716C126.097 132.847 125.409 130.318 125.409 127.129ZM148.591 127.129C148.591 129.465 149.004 131.307 149.828 132.654C150.653 134.002 151.89 134.675 153.54 134.675C155.189 134.675 156.413 134.015 157.21 132.696C158.007 131.349 158.406 129.493 158.406 127.129C158.406 124.764 158.007 122.922 157.21 121.603C156.413 120.256 155.189 119.582 153.54 119.582C151.808 119.582 150.571 120.283 149.828 121.685C149.004 123.06 148.591 124.874 148.591 127.129ZM145.292 127.129C145.292 123.885 145.993 121.342 147.395 119.5C148.797 117.63 150.846 116.696 153.54 116.696C156.234 116.696 158.268 117.617 159.643 119.459C161.045 121.3 161.746 123.857 161.746 127.129C161.746 130.4 161.045 132.971 159.643 134.84C158.268 136.682 156.234 137.603 153.54 137.603C150.791 137.603 148.729 136.641 147.354 134.716C145.98 132.847 145.292 130.318 145.292 127.129Z" fill="white"/>
<path d="M115.549 165.661C114.073 165.661 112.746 165.202 111.566 164.284L112.5 162.784C113.549 163.588 114.582 163.989 115.598 163.989C116.024 163.989 116.36 163.891 116.606 163.694C116.868 163.481 116.999 163.219 116.999 162.907C116.999 162.448 116.393 162.039 115.18 161.678C115.147 161.662 115.106 161.645 115.057 161.629C115.024 161.612 115 161.604 114.983 161.604C113.082 161.096 112.131 160.236 112.131 159.023C112.131 158.17 112.451 157.49 113.09 156.982C113.746 156.474 114.606 156.22 115.672 156.22C116.721 156.22 117.721 156.531 118.671 157.154L117.958 158.58C117.221 158.088 116.409 157.842 115.524 157.842C114.491 157.842 113.975 158.17 113.975 158.826C113.975 159.104 114.073 159.309 114.27 159.441C114.483 159.555 114.827 159.67 115.303 159.785C116.024 159.981 116.631 160.178 117.122 160.375C117.45 160.522 117.737 160.678 117.983 160.842C118.606 161.268 118.917 161.916 118.917 162.784C118.917 163.637 118.598 164.333 117.958 164.874C117.335 165.399 116.532 165.661 115.549 165.661ZM123.473 157.916V162.563C123.473 163.006 123.587 163.358 123.817 163.62C124.063 163.866 124.391 163.989 124.8 163.989C125.177 163.989 125.571 163.784 125.981 163.375L126.767 164.751C126.079 165.358 125.333 165.661 124.53 165.661C123.694 165.661 122.989 165.374 122.415 164.801C121.842 164.211 121.555 163.448 121.555 162.514V157.916H120.399V156.367H121.555V153.49H123.473V156.367H125.882V157.916H123.473ZM136.817 161.776H129.637C129.686 162.432 129.989 162.965 130.547 163.375C131.104 163.784 131.752 163.989 132.489 163.989C133.653 163.989 134.522 163.629 135.095 162.907L136.202 164.112C135.218 165.145 133.932 165.661 132.342 165.661C131.03 165.661 129.932 165.227 129.047 164.358C128.162 163.489 127.719 162.342 127.719 160.916C127.719 159.522 128.17 158.391 129.071 157.523C129.973 156.654 131.063 156.22 132.342 156.22C133.62 156.22 134.686 156.605 135.538 157.375C136.39 158.146 136.817 159.17 136.817 160.449V161.776ZM134.899 160.252C134.899 159.514 134.661 158.932 134.186 158.506C133.727 158.08 133.128 157.867 132.391 157.867C131.653 157.867 131.006 158.088 130.448 158.531C129.907 158.973 129.637 159.547 129.637 160.252H134.899ZM148.321 160.891C148.321 162.268 147.895 163.407 147.043 164.309C146.19 165.21 145.174 165.661 143.994 165.661C142.83 165.661 141.789 165.153 140.871 164.137V168.858H138.953V156.367H140.871V157.965C141.642 156.801 142.633 156.22 143.846 156.22C145.108 156.22 146.166 156.654 147.018 157.523C147.887 158.391 148.321 159.514 148.321 160.891ZM143.551 163.94C144.338 163.94 145.002 163.661 145.543 163.104C146.1 162.53 146.379 161.809 146.379 160.94C146.379 160.072 146.1 159.35 145.543 158.777C145.002 158.203 144.346 157.916 143.576 157.916C142.805 157.916 142.158 158.211 141.633 158.801C141.109 159.375 140.847 160.088 140.847 160.94C140.847 161.809 141.109 162.53 141.633 163.104C142.158 163.661 142.797 163.94 143.551 163.94ZM153.653 165.661C152.178 165.661 150.85 165.202 149.67 164.284L150.604 162.784C151.653 163.588 152.686 163.989 153.702 163.989C154.128 163.989 154.464 163.891 154.71 163.694C154.972 163.481 155.103 163.219 155.103 162.907C155.103 162.448 154.497 162.039 153.284 161.678C153.251 161.662 153.21 161.645 153.161 161.629C153.128 161.612 153.104 161.604 153.087 161.604C151.186 161.096 150.235 160.236 150.235 159.023C150.235 158.17 150.555 157.49 151.194 156.982C151.85 156.474 152.71 156.22 153.776 156.22C154.825 156.22 155.825 156.531 156.775 157.154L156.062 158.58C155.325 158.088 154.513 157.842 153.628 157.842C152.596 157.842 152.079 158.17 152.079 158.826C152.079 159.104 152.178 159.309 152.374 159.441C152.587 159.555 152.932 159.67 153.407 159.785C154.128 159.981 154.735 160.178 155.226 160.375C155.554 160.522 155.841 160.678 156.087 160.842C156.71 161.268 157.021 161.916 157.021 162.784C157.021 163.637 156.702 164.333 156.062 164.874C155.44 165.399 154.636 165.661 153.653 165.661Z" fill="white"/>
<path d="M143.408 78.4605C143.721 75.4864 141.562 72.8003 138.573 72.7136C128.105 72.41 117.675 74.4093 108.029 78.5967C96.7231 83.5045 86.878 91.2514 79.4489 101.086C72.0198 110.92 67.259 122.508 65.6285 134.724C63.9979 146.941 65.553 159.372 70.1429 170.81C74.7327 182.249 82.2015 192.307 91.8243 200.008C101.447 207.709 112.897 212.792 125.064 214.763C137.23 216.734 149.699 215.527 161.261 211.259C171.127 207.617 180.046 201.852 187.4 194.397C189.5 192.268 189.204 188.835 186.922 186.902C184.64 184.969 181.239 185.271 179.111 187.372C172.984 193.417 165.624 198.104 157.511 201.1C147.7 204.721 137.119 205.746 126.796 204.073C116.472 202.4 106.756 198.087 98.5911 191.552C90.4258 185.018 84.0883 176.483 80.1937 166.777C76.299 157.071 74.9794 146.523 76.363 136.157C77.7466 125.791 81.7863 115.958 88.0901 107.614C94.394 99.2688 102.748 92.6952 112.341 88.5308C120.274 85.087 128.833 83.3874 137.439 83.5206C140.429 83.5668 143.096 81.4347 143.408 78.4605Z" fill="white"/>
<path d="M171.416 233.826H175.119V244H173.497V235.345H171.416V233.826ZM176.974 233.826H180.677V244H179.054V235.345H176.974V233.826ZM184.633 238.84C184.633 240.019 184.841 240.949 185.257 241.628C185.673 242.308 186.297 242.648 187.129 242.648C187.961 242.648 188.579 242.315 188.981 241.649C189.383 240.969 189.584 240.033 189.584 238.84C189.584 237.648 189.383 236.718 188.981 236.053C188.579 235.373 187.961 235.033 187.129 235.033C186.255 235.033 185.631 235.387 185.257 236.094C184.841 236.788 184.633 237.703 184.633 238.84ZM182.968 238.84C182.968 237.204 183.322 235.921 184.029 234.991C184.737 234.048 185.77 233.577 187.129 233.577C188.488 233.577 189.515 234.041 190.208 234.971C190.916 235.9 191.269 237.19 191.269 238.84C191.269 240.491 190.916 241.788 190.208 242.731C189.515 243.66 188.488 244.125 187.129 244.125C185.742 244.125 184.702 243.639 184.008 242.668C183.315 241.725 182.968 240.449 182.968 238.84ZM194.664 238.84C194.664 240.019 194.872 240.949 195.288 241.628C195.704 242.308 196.328 242.648 197.16 242.648C197.993 242.648 198.61 242.315 199.012 241.649C199.414 240.969 199.615 240.033 199.615 238.84C199.615 237.648 199.414 236.718 199.012 236.053C198.61 235.373 197.993 235.033 197.16 235.033C196.287 235.033 195.662 235.387 195.288 236.094C194.872 236.788 194.664 237.703 194.664 238.84ZM192.999 238.84C192.999 237.204 193.353 235.921 194.061 234.991C194.768 234.048 195.801 233.577 197.16 233.577C198.52 233.577 199.546 234.041 200.24 234.971C200.947 235.9 201.301 237.19 201.301 238.84C201.301 240.491 200.947 241.788 200.24 242.731C199.546 243.66 198.52 244.125 197.16 244.125C195.773 244.125 194.733 243.639 194.04 242.668C193.346 241.725 192.999 240.449 192.999 238.84ZM208.966 236.385C208.966 236.815 209.126 237.127 209.445 237.322C209.764 237.557 210.443 237.8 211.484 238.05C212.579 238.313 213.377 238.674 213.876 239.132C214.389 239.589 214.646 240.248 214.646 241.108C214.646 242.01 214.306 242.738 213.627 243.293C212.961 243.847 212.087 244.125 211.005 244.125C209.438 244.125 208.023 243.57 206.761 242.46L207.843 241.171C208.897 242.072 209.965 242.523 211.047 242.523C211.588 242.523 212.025 242.405 212.357 242.169C212.69 241.92 212.857 241.6 212.857 241.212C212.857 240.824 212.704 240.519 212.399 240.297C212.108 240.075 211.581 239.874 210.818 239.693C209.5 239.388 208.585 239.028 208.072 238.612C207.475 238.154 207.177 237.453 207.177 236.51C207.177 235.595 207.51 234.881 208.176 234.367C208.841 233.84 209.694 233.577 210.735 233.577C212.136 233.577 213.335 233.986 214.334 234.804L213.419 236.094C213.113 235.817 212.704 235.595 212.191 235.428C211.678 235.248 211.172 235.158 210.672 235.158C210.159 235.158 209.743 235.269 209.424 235.491C209.119 235.699 208.966 235.997 208.966 236.385ZM218.545 237.571V241.503C218.545 241.878 218.642 242.176 218.837 242.398C219.045 242.606 219.322 242.71 219.669 242.71C219.988 242.71 220.321 242.537 220.667 242.19L221.333 243.355C220.751 243.868 220.12 244.125 219.44 244.125C218.733 244.125 218.136 243.882 217.651 243.397C217.165 242.897 216.923 242.252 216.923 241.462V237.571H215.945V236.261H216.923V233.826H218.545V236.261H220.584V237.571H218.545ZM229.836 240.838H223.761C223.803 241.392 224.059 241.843 224.531 242.19C225.003 242.537 225.55 242.71 226.175 242.71C227.159 242.71 227.895 242.405 228.38 241.795L229.316 242.814C228.484 243.688 227.395 244.125 226.05 244.125C224.94 244.125 224.011 243.757 223.262 243.022C222.513 242.287 222.138 241.316 222.138 240.109C222.138 238.931 222.52 237.974 223.283 237.238C224.046 236.503 224.968 236.136 226.05 236.136C227.132 236.136 228.033 236.462 228.754 237.114C229.476 237.765 229.836 238.632 229.836 239.714V240.838ZM228.214 239.548C228.214 238.924 228.012 238.431 227.61 238.071C227.222 237.71 226.716 237.53 226.091 237.53C225.467 237.53 224.919 237.717 224.448 238.091C223.99 238.466 223.761 238.951 223.761 239.548H228.214ZM239.571 240.089C239.571 241.254 239.21 242.218 238.489 242.981C237.768 243.743 236.908 244.125 235.909 244.125C234.925 244.125 234.044 243.695 233.267 242.835V246.829H231.644V236.261H233.267V237.613C233.919 236.628 234.758 236.136 235.784 236.136C236.852 236.136 237.747 236.503 238.468 237.238C239.203 237.974 239.571 238.924 239.571 240.089ZM235.535 242.668C236.201 242.668 236.762 242.433 237.22 241.961C237.692 241.476 237.927 240.865 237.927 240.13C237.927 239.395 237.692 238.785 237.22 238.299C236.762 237.814 236.207 237.571 235.556 237.571C234.904 237.571 234.356 237.821 233.912 238.32C233.468 238.806 233.246 239.409 233.246 240.13C233.246 240.865 233.468 241.476 233.912 241.961C234.356 242.433 234.897 242.668 235.535 242.668ZM244.082 244.125C242.834 244.125 241.711 243.736 240.712 242.96L241.503 241.691C242.39 242.37 243.264 242.71 244.124 242.71C244.485 242.71 244.769 242.627 244.977 242.46C245.199 242.28 245.31 242.058 245.31 241.795C245.31 241.406 244.797 241.06 243.77 240.754C243.743 240.741 243.708 240.727 243.666 240.713C243.639 240.699 243.618 240.692 243.604 240.692C241.995 240.262 241.19 239.534 241.19 238.508C241.19 237.786 241.461 237.211 242.002 236.781C242.557 236.351 243.285 236.136 244.186 236.136C245.074 236.136 245.92 236.399 246.725 236.926L246.121 238.133C245.497 237.717 244.811 237.509 244.062 237.509C243.188 237.509 242.751 237.786 242.751 238.341C242.751 238.577 242.834 238.75 243 238.861C243.181 238.958 243.472 239.055 243.874 239.152C244.485 239.319 244.998 239.485 245.414 239.652C245.691 239.777 245.934 239.908 246.142 240.047C246.669 240.408 246.933 240.956 246.933 241.691C246.933 242.412 246.662 243.001 246.121 243.459C245.594 243.903 244.915 244.125 244.082 244.125Z" fill="white"/>
<path d="M23.9869 243.957C22.6734 243.957 21.6051 243.484 20.804 242.547C20.0029 241.61 19.4772 240.219 19.171 238.195C18.7202 235.212 19.1675 232.698 20.4305 231.116C21.174 230.185 22.15 229.646 23.2526 229.559C24.1966 229.484 25.6076 229.865 26.9705 232.102C27.8238 233.503 28.4727 235.364 28.751 237.208C29.0873 239.433 28.837 241.072 27.9853 242.215C27.3091 243.124 26.2693 243.687 24.8943 243.891C24.5938 243.935 24.2905 243.957 23.9869 243.957Z" fill="white"/>
<path d="M26.2593 251.742C25.4919 251.742 24.714 251.497 24.0135 251.027C23.0025 250.346 22.3027 249.295 22.0662 248.103C21.9007 247.256 22 246.582 22.3695 246.043C22.9695 245.168 24.0466 244.971 25.1863 244.761C25.3066 244.739 25.4286 244.718 25.5523 244.694C25.8149 244.644 26.0833 244.578 26.3435 244.514C27.3183 244.275 28.3268 244.027 29.1592 244.615C29.7163 245.008 30.0306 245.676 30.1247 246.656C30.2316 247.787 29.9876 248.916 29.4375 249.835C28.8456 250.824 27.9579 251.477 26.9396 251.676C26.7154 251.72 26.4876 251.742 26.2593 251.742Z" fill="white"/>
<path d="M38.1818 238.408C37.8785 238.407 37.5756 238.384 37.2756 238.338C35.9011 238.136 34.8613 237.573 34.1851 236.663C33.3335 235.519 33.0814 233.881 33.4195 231.655C33.6977 229.81 34.3449 227.95 35.1942 226.555C36.55 224.326 37.9628 223.939 38.9121 224.007C40.0112 224.087 40.9854 224.618 41.7301 225.544C43.0017 227.126 43.4525 229.648 43 232.644C42.6938 234.666 42.1751 236.05 41.367 236.996C40.559 237.941 39.4953 238.408 38.1818 238.408Z" fill="white"/>
<path d="M35.9078 246.195C35.6801 246.195 35.4528 246.173 35.2293 246.13C34.2092 245.931 33.3216 245.277 32.7313 244.288C32.1812 243.37 31.9372 242.241 32.0441 241.11C32.1371 240.127 32.4508 239.462 33.0096 239.068C33.8421 238.48 34.8505 238.728 35.8253 238.968C36.0856 239.031 36.354 239.097 36.6165 239.147L36.9819 239.215C38.1223 239.423 39.1993 239.619 39.7994 240.496C40.1689 241.035 40.2682 241.71 40.1026 242.556C39.8663 243.748 39.1665 244.799 38.1554 245.481C37.4507 245.951 36.6729 246.195 35.9078 246.195Z" fill="white"/>
<path d="M101.526 30.9072C101.526 31.7594 101.842 32.378 102.474 32.7629C103.107 33.2302 104.454 33.7113 106.515 34.2062C108.687 34.7285 110.268 35.4433 111.258 36.3505C112.275 37.2577 112.784 38.5636 112.784 40.268C112.784 42.055 112.11 43.4983 110.763 44.5979C109.443 45.6976 107.711 46.2474 105.567 46.2474C102.46 46.2474 99.6564 45.1478 97.1546 42.9485L99.299 40.3918C101.388 42.1787 103.505 43.0722 105.649 43.0722C106.722 43.0722 107.588 42.8385 108.247 42.3711C108.907 41.8763 109.237 41.244 109.237 40.4742C109.237 39.7045 108.935 39.0997 108.33 38.6598C107.753 38.2199 106.708 37.8213 105.196 37.4639C102.584 36.8591 100.77 36.1443 99.7526 35.3196C98.5704 34.4124 97.9794 33.0241 97.9794 31.1546C97.9794 29.3402 98.6392 27.9244 99.9588 26.9072C101.278 25.8625 102.969 25.3402 105.031 25.3402C107.808 25.3402 110.186 26.1512 112.165 27.7732L110.351 30.3299C109.746 29.7801 108.935 29.3402 107.918 29.0103C106.9 28.6529 105.897 28.4742 104.907 28.4742C103.89 28.4742 103.065 28.6942 102.433 29.134C101.828 29.5464 101.526 30.1375 101.526 30.9072ZM120.512 33.2577V41.0515C120.512 41.7938 120.705 42.3849 121.09 42.8247C121.502 43.2371 122.052 43.4433 122.739 43.4433C123.372 43.4433 124.031 43.0997 124.719 42.4124L126.038 44.7216C124.884 45.7388 123.633 46.2474 122.286 46.2474C120.884 46.2474 119.701 45.7663 118.739 44.8041C117.777 43.8144 117.296 42.5361 117.296 40.9691V33.2577H115.358V30.6598H117.296V25.8351H120.512V30.6598H124.554V33.2577H120.512ZM142.892 39.732H130.851C130.933 40.8316 131.442 41.7251 132.377 42.4124C133.311 43.0997 134.397 43.4433 135.634 43.4433C137.586 43.4433 139.043 42.8385 140.005 41.6289L141.861 43.6495C140.212 45.3814 138.054 46.2474 135.387 46.2474C133.188 46.2474 131.346 45.5189 129.861 44.0619C128.377 42.6048 127.634 40.6804 127.634 38.2887C127.634 35.9519 128.39 34.055 129.902 32.5979C131.414 31.1409 133.243 30.4124 135.387 30.4124C137.531 30.4124 139.318 31.0584 140.748 32.3505C142.177 33.6426 142.892 35.3608 142.892 37.5052V39.732ZM139.676 37.1753C139.676 35.9381 139.277 34.9622 138.48 34.2474C137.71 33.5326 136.706 33.1753 135.469 33.1753C134.232 33.1753 133.146 33.5464 132.212 34.2887C131.304 35.0309 130.851 35.9931 130.851 37.1753H139.676ZM162.187 38.2474C162.187 40.5567 161.472 42.4674 160.043 43.9794C158.613 45.4914 156.909 46.2474 154.929 46.2474C152.977 46.2474 151.232 45.3952 149.692 43.6907V51.6082H146.476V30.6598H149.692V33.3402C150.984 31.3883 152.647 30.4124 154.682 30.4124C156.799 30.4124 158.572 31.1409 160.001 32.5979C161.458 34.055 162.187 35.9381 162.187 38.2474ZM154.187 43.3608C155.506 43.3608 156.62 42.8935 157.527 41.9588C158.462 40.9966 158.929 39.7869 158.929 38.3299C158.929 36.8729 158.462 35.6632 157.527 34.701C156.62 33.7388 155.52 33.2577 154.228 33.2577C152.936 33.2577 151.85 33.7526 150.97 34.7423C150.091 35.7045 149.651 36.9003 149.651 38.3299C149.651 39.7869 150.091 40.9966 150.97 41.9588C151.85 42.8935 152.922 43.3608 154.187 43.3608ZM171.129 46.2474C168.655 46.2474 166.428 45.4777 164.448 43.9381L166.015 41.4227C167.775 42.7698 169.507 43.4433 171.211 43.4433C171.926 43.4433 172.49 43.2784 172.902 42.9485C173.342 42.5911 173.562 42.1512 173.562 41.6289C173.562 40.8591 172.545 40.1718 170.51 39.567C170.455 39.5395 170.387 39.512 170.304 39.4845C170.249 39.457 170.208 39.4433 170.18 39.4433C166.991 38.5911 165.397 37.1478 165.397 35.1134C165.397 33.6838 165.933 32.543 167.005 31.6907C168.105 30.8385 169.548 30.4124 171.335 30.4124C173.095 30.4124 174.771 30.9347 176.366 31.9794L175.17 34.3711C173.933 33.5464 172.572 33.134 171.088 33.134C169.356 33.134 168.49 33.6838 168.49 34.7835C168.49 35.2509 168.655 35.5945 168.985 35.8144C169.342 36.0069 169.919 36.1993 170.716 36.3918C171.926 36.7216 172.943 37.0515 173.768 37.3814C174.318 37.6289 174.799 37.89 175.211 38.1649C176.256 38.8797 176.778 39.9656 176.778 41.4227C176.778 42.8522 176.242 44.0206 175.17 44.9278C174.125 45.8076 172.778 46.2474 171.129 46.2474Z" fill="white"/>
<path d="M65.8525 238.823H67.636V242.456C66.6355 243.572 65.2 244.131 63.3294 244.131C61.7489 244.131 60.4293 243.608 59.3708 242.564C58.3123 241.52 57.783 240.215 57.783 238.649C57.783 237.083 58.3195 235.771 59.3926 234.712C60.4801 233.639 61.7924 233.103 63.3294 233.103C64.8665 233.103 66.1425 233.545 67.1575 234.43L66.2005 235.8C65.461 235.177 64.5547 234.865 63.4817 234.865C62.3941 234.865 61.4806 235.22 60.7411 235.931C60.0161 236.627 59.6536 237.533 59.6536 238.649C59.6536 239.766 60.0016 240.672 60.6976 241.368C61.4081 242.05 62.2854 242.39 63.3294 242.39C64.3445 242.39 65.1855 242.173 65.8525 241.738V238.823ZM73.4971 242.608C74.2367 242.608 74.8457 242.361 75.3242 241.868C75.8172 241.375 76.0637 240.737 76.0637 239.954C76.0637 239.171 75.8172 238.533 75.3242 238.04C74.8457 237.547 74.2367 237.301 73.4971 237.301C72.7576 237.301 72.1486 237.547 71.6701 238.04C71.1916 238.533 70.9523 239.171 70.9523 239.954C70.9523 240.737 71.1916 241.368 71.6701 241.847C72.1486 242.354 72.7576 242.608 73.4971 242.608ZM73.4971 244.131C72.2791 244.131 71.2641 243.732 70.4521 242.934C69.64 242.122 69.234 241.129 69.234 239.954C69.234 238.78 69.64 237.794 70.4521 236.996C71.2641 236.184 72.2791 235.778 73.4971 235.778C74.7152 235.778 75.7302 236.184 76.5422 236.996C77.3543 237.794 77.7603 238.78 77.7603 239.954C77.7603 241.085 77.3543 242.071 76.5422 242.912C75.7302 243.724 74.7152 244.131 73.4971 244.131ZM86.2351 244H84.6908V242.912C84.0092 243.724 83.1102 244.131 81.9937 244.131C81.1382 244.131 80.4349 243.891 79.8839 243.413C79.3474 242.92 79.0791 242.282 79.0791 241.499C79.0791 240.716 79.3691 240.121 79.9491 239.715C80.5291 239.309 81.3267 239.106 82.3417 239.106H84.5603V238.802C84.5603 237.729 83.9585 237.192 82.755 237.192C82.0009 237.192 81.2179 237.468 80.4059 238.019L79.6446 236.953C80.6451 236.17 81.7617 235.778 82.9942 235.778C83.9947 235.778 84.785 236.032 85.365 236.54C85.945 237.033 86.2351 237.779 86.2351 238.78V244ZM84.5385 240.302H82.6245C81.3919 240.302 80.7757 240.687 80.7757 241.455C80.7757 241.847 80.9279 242.151 81.2324 242.369C81.5369 242.572 81.9647 242.673 82.5157 242.673C83.0812 242.673 83.5597 242.521 83.9512 242.216C84.3427 241.897 84.5385 241.484 84.5385 240.977V240.302ZM90.3266 244H88.6301V232.711H90.3266V244Z" fill="white"/>
<defs>
<linearGradient id="paint0_linear_6267_25831" x1="274.258" y1="8.68403e-06" x2="109.776" y2="309.625" gradientUnits="userSpaceOnUse">
<stop offset="0.422112" stop-color="#FF6C6C" stop-opacity="0.99"/>
<stop offset="1" stop-color="#FF5C00" stop-opacity="0.52"/>
</linearGradient>
</defs>
</svg>
