<svg width="29" height="15" viewBox="0 0 29 15" fill="none" xmlns="http://www.w3.org/2000/svg">
<path d="M22.9583 0H20.5417C19.2089 0 18.125 1.08387 18.125 2.41667V6.04167H10.875V2.41667C10.875 1.08387 9.79113 0 8.45833 0H6.04167C4.70888 0 3.625 1.08387 3.625 2.41667V12.0833C3.625 13.4161 4.70888 14.5 6.04167 14.5H8.45833C9.79113 14.5 10.875 13.4161 10.875 12.0833V8.45833H18.125V12.0833C18.125 13.4161 19.2089 14.5 20.5417 14.5H22.9583C24.2911 14.5 25.375 13.4161 25.375 12.0833V2.41667C25.375 1.08387 24.2911 0 22.9583 0ZM6.04167 12.0833V2.41667H8.45833L8.45954 12.0833H6.04167ZM20.5417 12.0833V2.41667H22.9583L22.9595 12.0833H20.5417ZM26.5833 4.83333H29V9.66667H26.5833V4.83333ZM0 4.83333H2.41667V9.66667H0V4.83333Z" fill="black"/>
</svg>
