<svg width="54" height="50" viewBox="0 0 54 50" fill="none" xmlns="http://www.w3.org/2000/svg">
<path d="M33.7707 23.6427L28.5292 34.7358C27.8964 36.0862 26.0614 36.0415 25.4813 34.6688L19.4805 20.5736L16.3166 28.5754H6.3926L25.6395 49.389C26.3883 50.2037 27.6011 50.2037 28.3499 49.389L47.6074 28.5754H36.1014L33.7707 23.6427ZM49.9592 4.68166L49.7061 4.40266C44.2748 -1.46755 35.3843 -1.46755 29.9424 4.40266L27 7.59444L24.0576 4.41382C18.6263 -1.46755 9.72522 -1.46755 4.2939 4.41382L4.04079 4.68166C-1.09524 10.2394 -1.31672 19.0893 3.27091 25.0042H14.0703L17.8564 15.3842C18.4259 13.9445 20.3453 13.9111 20.957 15.3395L27.0949 29.7695L32.2626 18.8438C32.8848 17.5269 34.6566 17.5269 35.2788 18.8438L38.1896 25.0042H50.7291C55.3167 19.0893 55.0952 10.2394 49.9592 4.68166Z" fill="white"/>
</svg>
