<svg width="30" height="30" viewBox="0 0 30 30" fill="none" xmlns="http://www.w3.org/2000/svg">
<path d="M10.6664 3.05182C9.61663 5.33054 9.29049 7.87624 9.73189 10.346C10.1733 12.8157 11.361 15.0909 13.1351 16.8649C14.9091 18.639 17.1843 19.8267 19.654 20.2681C22.1238 20.7095 24.6695 20.3834 26.9482 19.3336C25.5927 25.4373 20.1477 30 13.6364 30C6.105 30 0 23.895 0 16.3636C0 9.85227 4.56273 4.40727 10.6664 3.05182ZM22.0418 3.12409L23.1818 3.40909V4.77273L22.0418 5.05773C21.5624 5.17764 21.1245 5.42557 20.775 5.77504C20.4256 6.12451 20.1776 6.56237 20.0577 7.04182L19.7727 8.18182H18.4091L18.1241 7.04182C18.0042 6.56237 17.7562 6.12451 17.4068 5.77504C17.0573 5.42557 16.6195 5.17764 16.14 5.05773L15 4.77273V3.40909L16.14 3.12409C16.6192 3.00397 17.0568 2.75593 17.406 2.40648C17.7552 2.05703 18.0029 1.61928 18.1227 1.14L18.4091 0H19.7727L20.0577 1.14C20.1776 1.61945 20.4256 2.05731 20.775 2.40678C21.1245 2.75625 21.5624 3.00418 22.0418 3.12409ZM28.86 9.94227L30 10.2273V11.5909L28.86 11.8759C28.3805 11.9958 27.9427 12.2438 27.5932 12.5932C27.2438 12.9427 26.9958 13.3805 26.8759 13.86L26.5909 15H25.2273L24.9423 13.86C24.8224 13.3805 24.5744 12.9427 24.225 12.5932C23.8755 12.2438 23.4376 11.9958 22.9582 11.8759L21.8182 11.5909V10.2273L22.9582 9.94227C23.4376 9.82236 23.8755 9.57443 24.225 9.22496C24.5744 8.87549 24.8224 8.43764 24.9423 7.95818L25.2273 6.81818H26.5909L26.8759 7.95818C26.9958 8.43764 27.2438 8.87549 27.5932 9.22496C27.9427 9.57443 28.3805 9.82236 28.86 9.94227Z" fill="white"/>
</svg>
