<svg width="34" height="35" viewBox="0 0 34 35" fill="none" xmlns="http://www.w3.org/2000/svg">
<path d="M10.6759 0.000284904C11.7469 0.0355784 12.7839 0.238207 13.7886 0.608464H13.8889C13.9569 0.643463 14.0079 0.682147 14.0419 0.717146C14.4176 0.847933 14.7729 0.995299 15.1129 1.19793L15.7589 1.51108C16.0139 1.65845 16.3199 1.93292 16.4899 2.04528C16.6599 2.15396 16.8469 2.26633 16.9998 2.39343C18.8885 0.829513 21.1818 -0.0178417 23.5448 0.000284904C24.6175 0.000284904 25.6885 0.164524 26.7067 0.534781C32.9814 2.74527 35.2424 10.2057 33.3537 16.7266C32.2827 20.0589 30.5317 23.1002 28.2384 25.5852C24.9558 29.0298 21.3535 32.0877 17.4758 34.7218L17.0509 35L16.6089 34.7034C12.7176 32.0877 9.09493 29.0298 5.78167 25.5667C3.50369 23.0818 1.75101 20.0589 0.663021 16.7266C-1.25796 10.2057 1.00302 2.74527 7.34565 0.496097C7.83865 0.31189 8.34694 0.182944 8.85694 0.111104H9.06093C9.53863 0.0355784 10.0129 0.000284904 10.4889 0.000284904H10.6759Z" fill="url(#paint0_linear_1184_12059)"/>
<defs>
<linearGradient id="paint0_linear_1184_12059" x1="0" y1="0" x2="36.5734" y2="32.0648" gradientUnits="userSpaceOnUse">
<stop offset="0.306611" stop-color="#FF2323"/>
<stop offset="1" stop-color="#FB8500"/>
</linearGradient>
</defs>
</svg>
