<svg width="23" height="22" viewBox="0 0 23 22" fill="none" xmlns="http://www.w3.org/2000/svg">
<path d="M9.24002 7.94368H13.86M11.55 7.94368V14.5437M16.17 14.5437V10.877M16.17 10.877V7.94368H17.71C18.1185 7.94368 18.5102 8.09821 18.799 8.37326C19.0878 8.64831 19.25 9.02137 19.25 9.41035C19.25 9.79934 19.0878 10.1724 18.799 10.4474C18.5102 10.7225 18.1185 10.877 17.71 10.877H16.17ZM6.93002 9.41035V12.3437C6.93002 12.7327 6.76777 13.1057 6.47896 13.3808C6.19016 13.6558 5.79845 13.8104 5.39002 13.8104C4.98159 13.8104 4.58988 13.6558 4.30107 13.3808C4.01227 13.1057 3.85002 12.7327 3.85002 12.3437V9.41035C3.85002 9.02137 4.01227 8.64831 4.30107 8.37326C4.58988 8.09821 4.98159 7.94368 5.39002 7.94368C5.79845 7.94368 6.19016 8.09821 6.47896 8.37326C6.76777 8.64831 6.93002 9.02137 6.93002 9.41035V9.41035ZM2.31002 0.610352H20.79C21.1985 0.610352 21.5902 0.764875 21.879 1.03993C22.1678 1.31498 22.33 1.68803 22.33 2.07702V19.677C22.33 20.066 22.1678 20.4391 21.879 20.7141C21.5902 20.9892 21.1985 21.1437 20.79 21.1437H2.31002C1.90159 21.1437 1.50988 20.9892 1.22108 20.7141C0.932269 20.4391 0.77002 20.066 0.77002 19.677V2.07702C0.77002 1.68803 0.932269 1.31498 1.22108 1.03993C1.50988 0.764875 1.90159 0.610352 2.31002 0.610352V0.610352Z" stroke="white"/>
</svg>
