<svg width="24" height="21" viewBox="0 0 24 21" fill="none" xmlns="http://www.w3.org/2000/svg">
<path d="M4.49891 0C3.92025 0 3.3653 0.237755 2.95613 0.660962C2.54696 1.08417 2.31709 1.65816 2.31709 2.25667C2.31709 2.85517 2.54696 3.42916 2.95613 3.85237C3.3653 4.27558 3.92025 4.51333 4.49891 4.51333C5.07756 4.51333 5.63252 4.27558 6.04169 3.85237C6.45086 3.42916 6.68073 2.85517 6.68073 2.25667C6.68073 1.65816 6.45086 1.08417 6.04169 0.660962C5.63252 0.237755 5.07756 0 4.49891 0ZM1.09091 1.12833C0.801582 1.12833 0.524105 1.24721 0.31952 1.45881C0.114935 1.67042 2.61249e-08 1.95741 2.61249e-08 2.25667V5.81167C-5.82e-05 6.08699 0.0972141 6.35284 0.273497 6.55914C0.44978 6.76544 0.692908 6.89795 0.957091 6.93173L4.03273 7.32514C4.04218 7.3808 4.04291 7.43647 4.05673 7.49289L5.15782 12.0062C5.29955 12.5863 5.65814 13.0845 6.1548 13.3913C6.65146 13.698 7.24555 13.7883 7.80655 13.6423C8.09192 13.5677 8.35965 13.4338 8.59345 13.2489C8.63418 13.2211 8.68073 13.2068 8.71854 13.1722L13.1076 9.19667H17.0909C17.3802 9.19667 17.6577 9.07779 17.8623 8.86619C18.0669 8.65458 18.1818 8.36759 18.1818 8.06834C18.1818 7.76908 18.0669 7.48209 17.8623 7.27048C17.6577 7.05888 17.3802 6.94 17.0909 6.94H12.6975C12.6778 6.94 12.6596 6.94527 12.6407 6.94602C12.5983 6.94797 12.5561 6.95249 12.5142 6.95956C12.4829 6.96483 12.4531 6.9731 12.4233 6.98137C12.3853 6.991 12.3479 7.00281 12.3113 7.01673C12.28 7.02876 12.2502 7.04456 12.2204 7.05885C12.1867 7.07538 12.154 7.09371 12.1222 7.11377C12.0918 7.13376 12.0624 7.15535 12.0342 7.17846C12.016 7.19275 11.9964 7.20328 11.9789 7.21908L9.12073 9.80823L8.28727 6.38938C8.14485 5.80951 7.78605 5.31167 7.28946 5.00487C6.79287 4.69808 6.19896 4.60734 5.63782 4.75254C5.33818 4.83077 5.07055 4.97068 4.84073 5.15498L2.18182 4.81422V2.25667C2.18182 1.95741 2.06688 1.67042 1.8623 1.45881C1.65771 1.24721 1.38024 1.12833 1.09091 1.12833ZM2.31418 7.69975C2.19617 7.67745 2.07465 7.6857 1.96047 7.72376C1.84628 7.76181 1.74297 7.82849 1.65974 7.91785C1.57651 8.00721 1.51595 8.11648 1.48344 8.23592C1.45094 8.35537 1.44751 8.48127 1.47345 8.60241L2.92582 15.3777C2.93164 15.404 2.94691 15.4251 2.95491 15.4499C2.98322 15.5381 3.02766 15.6198 3.08582 15.6906C3.10764 15.7184 3.128 15.7448 3.15345 15.7688C3.19633 15.8071 3.24345 15.8399 3.29382 15.8666C3.32073 15.8817 3.34473 15.9012 3.37382 15.9125C3.45679 15.9473 3.54536 15.9657 3.63491 15.9667H5.81818V18.7409L4.49454 19.8015C4.43498 19.8496 4.39139 19.9158 4.36986 19.9907C4.34832 20.0657 4.3499 20.1457 4.37438 20.2197C4.39886 20.2936 4.44502 20.3579 4.50645 20.4035C4.56787 20.4491 4.6415 20.4737 4.71709 20.474C4.79776 20.4745 4.87631 20.4472 4.94036 20.3965L5.81818 19.6924V20.0979C5.81818 20.1976 5.85649 20.2933 5.92469 20.3638C5.99288 20.4344 6.08538 20.474 6.18182 20.474C6.27826 20.474 6.37075 20.4344 6.43895 20.3638C6.50714 20.2933 6.54545 20.1976 6.54545 20.0979V19.7067L7.40364 20.3965C7.47992 20.4577 7.57657 20.485 7.67231 20.4724C7.76806 20.4598 7.85506 20.4085 7.91418 20.3296C7.9733 20.2507 7.99969 20.1507 7.98756 20.0517C7.97542 19.9526 7.92574 19.8626 7.84945 19.8015L6.54545 18.7567V15.9667H8.71709C8.90998 15.9667 9.09496 15.8874 9.23135 15.7463C9.36774 15.6053 9.44436 15.4139 9.44436 15.2144C9.44436 15.0149 9.36774 14.8236 9.23135 14.6825C9.09496 14.5415 8.90998 14.4622 8.71709 14.4622H4.22036L2.89382 8.2767C2.86267 8.13236 2.79107 8.00071 2.68797 7.89823C2.58488 7.79575 2.45486 7.72697 2.31418 7.7005V7.69975ZM13.8182 9.94889C13.6253 9.94889 13.4403 10.0281 13.3039 10.1692C13.1675 10.3103 13.0909 10.5016 13.0909 10.7011C13.0909 10.9006 13.1675 11.0919 13.3039 11.233C13.4403 11.3741 13.6253 11.4533 13.8182 11.4533H14.5455V19.7278C14.5455 19.9273 14.6221 20.1186 14.7585 20.2597C14.8949 20.4007 15.0798 20.48 15.2727 20.48C15.4656 20.48 15.6506 20.4007 15.787 20.2597C15.9234 20.1186 16 19.9273 16 19.7278V11.4533H20.3636V19.7278C20.3636 19.9273 20.4403 20.1186 20.5766 20.2597C20.713 20.4007 20.898 20.48 21.0909 20.48C21.2838 20.48 21.4688 20.4007 21.6052 20.2597C21.7416 20.1186 21.8182 19.9273 21.8182 19.7278V11.4533H22.5455C22.7383 11.4533 22.9233 11.3741 23.0597 11.233C23.1961 11.0919 23.2727 10.9006 23.2727 10.7011C23.2727 10.5016 23.1961 10.3103 23.0597 10.1692C22.9233 10.0281 22.7383 9.94889 22.5455 9.94889H13.8182Z" fill="black"/>
</svg>
