<svg width="184" height="186" viewBox="0 0 184 186" fill="none" xmlns="http://www.w3.org/2000/svg">
<path d="M65.182 18.916C58.7671 33.0402 56.7741 48.8192 59.4715 64.1275C62.1688 79.4357 69.427 93.5377 80.2682 104.534C91.1094 115.53 105.013 122.892 120.105 125.628C135.198 128.364 150.755 126.342 164.68 119.835C156.397 157.668 123.123 185.949 83.3317 185.949C37.3076 185.949 0 148.108 0 101.427C0 61.0672 27.8828 27.3175 65.182 18.916ZM134.697 19.364L141.664 21.1305V29.5827L134.697 31.3493C131.767 32.0925 129.092 33.6293 126.956 35.7954C124.82 37.9614 123.305 40.6754 122.573 43.6472L120.831 50.7133H112.498L110.756 43.6472C110.023 40.6754 108.508 37.9614 106.373 35.7954C104.237 33.6293 101.561 32.0925 98.6314 31.3493L91.6648 29.5827V21.1305L98.6314 19.364C101.56 18.6194 104.234 17.0821 106.368 14.9161C108.502 12.7501 110.016 10.0368 110.748 7.06605L112.498 0H120.831L122.573 7.06605C123.305 10.0378 124.82 12.7518 126.956 14.9179C129.092 17.084 131.767 18.6208 134.697 19.364ZM176.363 61.6251L183.33 63.3916V71.8438L176.363 73.6103C173.433 74.3535 170.757 75.8903 168.622 78.0564C166.486 80.2225 164.971 82.9365 164.238 85.9083L162.497 92.9743H154.164L152.422 85.9083C151.689 82.9365 150.174 80.2225 148.038 78.0564C145.903 75.8903 143.227 74.3535 140.297 73.6103L133.331 71.8438V63.3916L140.297 61.6251C143.227 60.8818 145.903 59.3451 148.038 57.179C150.174 55.0129 151.689 52.2989 152.422 49.3271L154.164 42.2611H162.497L164.238 49.3271C164.971 52.2989 166.486 55.0129 168.622 57.179C170.757 59.3451 173.433 60.8818 176.363 61.6251Z" fill="white" fill-opacity="0.2"/>
</svg>
