<svg width="31" height="32" viewBox="0 0 31 32" fill="none" xmlns="http://www.w3.org/2000/svg">
<path d="M11.0765 3.19915C10.0046 5.58787 9.67163 8.25647 10.1223 10.8455C10.573 13.4344 11.7857 15.8194 13.5971 17.6791C15.4085 19.5388 17.7316 20.7839 20.2533 21.2466C22.7751 21.7093 25.3744 21.3674 27.7011 20.267C26.3171 26.6653 20.7574 31.4483 14.109 31.4483C6.41907 31.4483 0.185547 25.0486 0.185547 17.1536C0.185547 10.3279 4.84433 4.62004 11.0765 3.19915ZM22.6914 3.27491L23.8554 3.57367V5.00313L22.6914 5.30189C22.2019 5.42759 21.7548 5.6875 21.398 6.05383C21.0411 6.42017 20.788 6.87917 20.6655 7.38177L20.3745 8.5768H18.9822L18.6912 7.38177C18.5688 6.87917 18.3156 6.42017 17.9588 6.05383C17.602 5.6875 17.1549 5.42759 16.6653 5.30189L15.5013 5.00313V3.57367L16.6653 3.27491C17.1546 3.14898 17.6014 2.88898 17.958 2.52266C18.3145 2.15633 18.5675 1.69746 18.6898 1.19503L18.9822 0H20.3745L20.6655 1.19503C20.788 1.69763 21.0411 2.15663 21.398 2.52297C21.7548 2.88931 22.2019 3.14921 22.6914 3.27491ZM29.6531 10.4222L30.8171 10.721V12.1505L29.6531 12.4492C29.1636 12.5749 28.7165 12.8348 28.3597 13.2012C28.0029 13.5675 27.7497 14.0265 27.6273 14.5291L27.3363 15.7241H25.9439L25.6529 14.5291C25.5305 14.0265 25.2773 13.5675 24.9205 13.2012C24.5637 12.8348 24.1166 12.5749 23.6271 12.4492L22.4631 12.1505V10.721L23.6271 10.4222C24.1166 10.2965 24.5637 10.0366 24.9205 9.6703C25.2773 9.30397 25.5305 8.84497 25.6529 8.34237L25.9439 7.14734H27.3363L27.6273 8.34237C27.7497 8.84497 28.0029 9.30397 28.3597 9.6703C28.7165 10.0366 29.1636 10.2965 29.6531 10.4222Z" fill="white"/>
</svg>
