<svg width="21" height="22" viewBox="0 0 21 22" fill="none" xmlns="http://www.w3.org/2000/svg">
<path d="M6.19972 2.06666C6.19972 1.51855 5.98198 0.992883 5.59441 0.60531C5.20684 0.217736 4.68117 0 4.13306 0C3.58495 0 3.05929 0.217736 2.67172 0.60531C2.28414 0.992883 2.06641 1.51855 2.06641 2.06666V5.16664H6.19972V2.06666Z" fill="black"/>
<path d="M6.19997 6.19922H2.06666C2.06666 9.2992 0 10.3325 0 14.4658C0 18.5992 2.06666 21.6991 3.09998 21.6991H5.16664C5.70811 21.6991 6.5327 20.8415 7.1961 19.4351C6.54022 18.2271 6.19773 16.8738 6.19997 15.4992C6.19997 13.7838 6.72283 12.1894 7.61873 10.8688C7.0132 9.27544 6.19997 8.14394 6.19997 6.19922Z" fill="black"/>
<path d="M14.4656 9.30078C12.8213 9.30078 11.2443 9.95399 10.0816 11.1167C8.91883 12.2794 8.26563 13.8564 8.26562 15.5008C8.26562 17.1451 8.91883 18.7221 10.0816 19.8848C11.2443 21.0475 12.8213 21.7007 14.4656 21.7007C16.1099 21.7007 17.6869 21.0475 18.8496 19.8848C20.0124 18.7221 20.6656 17.1451 20.6656 15.5008C20.6656 13.8564 20.0124 12.2794 18.8496 11.1167C17.6869 9.95399 16.1099 9.30078 14.4656 9.30078ZM12.3989 13.4341C12.1249 13.4341 11.8621 13.3252 11.6683 13.1314C11.4745 12.9377 11.3656 12.6748 11.3656 12.4008C11.3656 12.1267 11.4745 11.8639 11.6683 11.6701C11.8621 11.4763 12.1249 11.3674 12.3989 11.3674C12.673 11.3674 12.9358 11.4763 13.1296 11.6701C13.3234 11.8639 13.4323 12.1267 13.4323 12.4008C13.4323 12.6748 13.3234 12.9377 13.1296 13.1314C12.9358 13.3252 12.673 13.4341 12.3989 13.4341ZM14.4656 16.5341C14.1915 16.5341 13.9287 16.4252 13.7349 16.2314C13.5411 16.0376 13.4323 15.7748 13.4323 15.5008C13.4323 15.2267 13.5411 14.9639 13.7349 14.7701C13.9287 14.5763 14.1915 14.4674 14.4656 14.4674C14.7397 14.4674 15.0025 14.5763 15.1963 14.7701C15.3901 14.9639 15.4989 15.2267 15.4989 15.5008C15.4989 15.7748 15.3901 16.0376 15.1963 16.2314C15.0025 16.4252 14.7397 16.5341 14.4656 16.5341ZM16.5323 13.4341C16.2582 13.4341 15.9954 13.3252 15.8016 13.1314C15.6078 12.9377 15.4989 12.6748 15.4989 12.4008C15.4989 12.1267 15.6078 11.8639 15.8016 11.6701C15.9954 11.4763 16.2582 11.3674 16.5323 11.3674C16.8063 11.3674 17.0691 11.4763 17.2629 11.6701C17.4567 11.8639 17.5656 12.1267 17.5656 12.4008C17.5656 12.6748 17.4567 12.9377 17.2629 13.1314C17.0691 13.3252 16.8063 13.4341 16.5323 13.4341Z" fill="black"/>
</svg>
