<svg width="14" height="14" viewBox="0 0 14 14" fill="none" xmlns="http://www.w3.org/2000/svg">
<path d="M5.36552 0H8.13371C8.42048 0 8.65296 0.232476 8.65296 0.519244C8.65296 0.78212 8.45758 0.999365 8.20412 1.03375L8.13371 1.03849H7.26872V12.808H8.13143C8.39431 12.808 8.61149 13.0034 8.6459 13.2568L8.65067 13.3273C8.65067 13.5901 8.4553 13.8074 8.20184 13.8418L8.13143 13.8465H5.36552C5.07875 13.8465 4.84628 13.614 4.84628 13.3273C4.84628 13.0644 5.04162 12.8471 5.29506 12.8127L5.36552 12.808H6.23024V1.03849H5.36552C5.10265 1.03849 4.8854 0.843148 4.85102 0.589702L4.84628 0.519244C4.84628 0.256368 5.04162 0.0391233 5.29506 0.00474243L5.36552 0ZM11.2473 2.07482C12.4897 2.07567 13.4967 3.08226 13.498 4.32433L13.5 9.52017C13.5012 10.7198 12.5625 11.7008 11.3791 11.7675L11.2501 11.7708L7.96548 11.7704V2.07482H11.2473ZM5.53649 2.07482L5.53322 11.7704H2.25006C1.00738 11.7704 0 10.763 0 9.52037V4.32488C0 3.08221 1.00738 2.07482 2.25006 2.07482H5.53649Z" fill="black"/>
</svg>
