<svg width="144" height="214" viewBox="0 0 144 214" fill="none" xmlns="http://www.w3.org/2000/svg">
<path d="M0 86.3373C0 81.2928 2.35176 74.8903 6.87437 66.7416C11.397 58.5929 15.9196 51.8024 20.0804 46.5639C21.1658 45.2058 22.6131 43.2656 24.2412 41.1315C25.8694 38.9973 26.9548 37.8332 27.1357 37.6392L33.8291 45.9819C38.8945 51.9964 43.4171 58.787 47.5779 66.7416C51.7387 74.6963 53.9095 81.0988 53.9095 86.3373C53.9095 94.2919 51.3769 101.277 46.1307 106.903C41.0653 112.529 34.7337 115.44 27.1357 115.44C19.7186 115.44 13.206 112.529 7.95979 106.903C2.71356 101.083 0 94.2919 0 86.3373ZM56.4422 166.854C56.4422 161.228 57.8894 154.825 60.7839 147.258C63.6784 139.886 67.2965 132.901 71.6382 126.693C79.9598 114.858 87.7387 104.963 95.3367 97.0082C96.0603 96.4261 97.6885 94.874 100.04 92.3518L104.563 97.0082C111.618 104.187 119.578 114.082 128.442 126.499C133.146 133.095 136.764 140.08 139.658 147.452C142.553 154.825 144 161.228 144 166.854C144 180.241 139.839 191.3 131.337 200.419C122.834 209.538 112.342 214 100.04 214C87.7387 214 77.4271 209.344 68.9246 200.225C60.4221 191.106 56.4422 179.853 56.4422 166.854ZM83.9397 32.9828C83.9397 24.6401 89.9095 13.5811 102.03 0L106.553 5.43246C109.99 9.70082 113.065 14.3572 115.779 19.7897C118.492 25.0281 119.94 29.4905 119.94 32.9828C119.94 38.4152 118.131 42.6836 114.693 46.3699C111.256 49.8622 107.095 51.8024 102.03 51.8024C96.7839 51.8024 92.4422 50.0562 89.005 46.3699C85.7488 42.6836 83.9397 38.2212 83.9397 32.9828Z" fill="white" fill-opacity="0.2"/>
</svg>
