<svg width="25" height="31" viewBox="0 0 25 31" fill="none" xmlns="http://www.w3.org/2000/svg">
<path d="M12.9017 25.7077C13.1934 25.6834 13.4427 25.5682 13.6498 25.3621C13.8559 25.155 13.959 24.9056 13.959 24.6139C13.959 24.2737 13.8496 24.0005 13.6309 23.7943C13.4121 23.5873 13.1326 23.4959 12.7923 23.5202C11.7958 23.5931 10.7385 23.3199 9.62044 22.7006C8.50239 22.0803 7.79753 20.9559 7.50586 19.3275C7.45725 19.0601 7.3294 18.8414 7.12232 18.6712C6.91621 18.5011 6.67947 18.416 6.41211 18.416C6.07183 18.416 5.79232 18.5434 5.57357 18.7981C5.35482 19.0538 5.2819 19.3518 5.35482 19.6921C5.76801 21.9039 6.74024 23.4837 8.27149 24.4316C9.80274 25.3796 11.3461 25.8049 12.9017 25.7077ZM12.5007 30.0827C9.17079 30.0827 6.39412 28.9403 4.17065 26.6556C1.94621 24.3709 0.833984 21.5271 0.833984 18.1243C0.833984 15.6938 1.80037 13.0508 3.73315 10.1954C5.66496 7.339 8.58746 4.24588 12.5007 0.916016C16.4138 4.24588 19.3368 7.339 21.2696 10.1954C23.2014 13.0508 24.1673 15.6938 24.1673 18.1243C24.1673 21.5271 23.0551 24.3709 20.8307 26.6556C18.6072 28.9403 15.8305 30.0827 12.5007 30.0827Z" fill="white"/>
</svg>
