<svg width="21" height="29" viewBox="0 0 21 29" fill="none" xmlns="http://www.w3.org/2000/svg">
<path d="M0.840332 11.4604C0.840332 10.7941 1.16186 9.94845 1.78018 8.87214C2.39851 7.79583 3.01683 6.8989 3.58569 6.20699C3.73409 6.0276 3.93195 5.77134 4.15455 5.48945C4.37715 5.20755 4.52554 5.0538 4.55028 5.02817L5.46539 6.13011C6.15792 6.92453 6.77624 7.82145 7.3451 8.87214C7.91396 9.92282 8.21075 10.7685 8.21075 11.4604C8.21075 12.5111 7.86449 13.4336 7.14724 14.1768C6.45471 14.92 5.58906 15.3044 4.55028 15.3044C3.53622 15.3044 2.64584 14.92 1.92858 14.1768C1.21133 13.408 0.840332 12.5111 0.840332 11.4604ZM8.55701 22.0954C8.55701 21.3522 8.75488 20.5065 9.15061 19.5071C9.54633 18.5333 10.041 17.6108 10.6346 16.7907C11.7723 15.2275 12.8358 13.9205 13.8746 12.8699C13.9735 12.793 14.1961 12.588 14.5177 12.2548L15.136 12.8699C16.1006 13.818 17.1888 15.125 18.4007 16.7651C19.0438 17.6364 19.5384 18.5589 19.9342 19.5327C20.3299 20.5065 20.5278 21.3522 20.5278 22.0954C20.5278 23.8636 19.9589 25.3243 18.7965 26.5288C17.634 27.7332 16.1995 28.3226 14.5177 28.3226C12.8358 28.3226 11.426 27.7076 10.2636 26.5031C9.10114 25.2987 8.55701 23.8124 8.55701 22.0954ZM12.3164 4.41314C12.3164 3.3112 13.1326 1.85049 14.7897 0.0566406L15.408 0.774182C15.878 1.33796 16.2984 1.953 16.6694 2.67054C17.0404 3.36245 17.2383 3.95186 17.2383 4.41314C17.2383 5.13068 16.991 5.69446 16.521 6.18136C16.0511 6.64264 15.4822 6.8989 14.7897 6.8989C14.0725 6.8989 13.4789 6.66826 13.0089 6.18136C12.5638 5.69446 12.3164 5.10505 12.3164 4.41314Z" fill="#52A4FF"/>
</svg>
