<svg width="25" height="23" viewBox="0 0 25 23" fill="none" xmlns="http://www.w3.org/2000/svg">
<path d="M12.4394 0.0566406C13.7237 0.0566406 14.9553 0.5735 15.8635 1.49352C16.7716 2.41353 17.2818 3.66134 17.2818 4.96244C17.2818 5.85775 17.0517 6.69173 16.628 7.41534H19.7029C20.853 7.41534 21.8215 8.23706 22.0636 9.3286C24.4969 19.1525 24.5453 19.41 24.5453 19.6798C24.5453 20.3304 24.2902 20.9543 23.8362 21.4143C23.3821 21.8743 22.7663 22.1327 22.1241 22.1327H2.75468C2.11254 22.1327 1.4967 21.8743 1.04264 21.4143C0.588584 20.9543 0.333496 20.3304 0.333496 19.6798C0.333496 19.41 0.38192 19.1525 2.81521 9.3286C3.05732 8.23706 4.0258 7.41534 5.17586 7.41534H8.25076C7.81801 6.6726 7.59209 5.8249 7.59704 4.96244C7.59704 3.66134 8.10721 2.41353 9.01533 1.49352C9.92345 0.5735 11.1551 0.0566406 12.4394 0.0566406ZM12.4394 2.50954C11.7973 2.50954 11.1814 2.76797 10.7274 3.22798C10.2733 3.68798 10.0182 4.31189 10.0182 4.96244C10.0182 5.61299 10.2733 6.23689 10.7274 6.6969C11.1814 7.15691 11.7973 7.41534 12.4394 7.41534C13.0815 7.41534 13.6974 7.15691 14.1514 6.6969C14.6055 6.23689 14.8606 5.61299 14.8606 4.96244C14.8606 4.31189 14.6055 3.68798 14.1514 3.22798C13.6974 2.76797 13.0815 2.50954 12.4394 2.50954ZM5.17586 9.86824V19.6798H7.59704V16.6137L8.80763 17.8402V19.6798H11.2288V17.2269L8.80763 14.774L11.2288 12.3211V9.86824H8.80763V11.7079L7.59704 12.9344V9.86824H5.17586ZM16.0712 9.86824C14.7274 9.86824 13.65 10.9598 13.65 12.3211V17.2269C13.65 18.5883 14.7274 19.6798 16.0712 19.6798H19.7029V13.5476H17.2818V17.2269H16.0712V12.3211H19.7029V9.86824H16.0712Z" fill="#54AFAC"/>
</svg>
