<svg width="65" height="65" viewBox="0 0 65 65" fill="none" xmlns="http://www.w3.org/2000/svg">
<circle cx="32.25" cy="32.25" r="32.25" fill="#D5E8FF"/>
<circle cx="32.2532" cy="32.2532" r="20.5227" fill="#3D95FF"/>
<path d="M30.3495 23.2669C30.5028 22.888 30.7658 22.5635 31.1048 22.335C31.4437 22.1065 31.8432 21.9844 32.252 21.9844C32.6608 21.9844 33.0602 22.1065 33.3992 22.335C33.7381 22.5635 34.0011 22.888 34.1544 23.2669C35.6718 23.6842 37.0103 24.5881 37.9642 25.8398C38.9182 27.0914 39.4349 28.6216 39.4349 30.1954V35.0151L41.3148 37.835C41.4179 37.9895 41.4771 38.1691 41.4861 38.3547C41.4952 38.5402 41.4536 38.7248 41.366 38.8886C41.2783 39.0524 41.1479 39.1893 40.9885 39.2848C40.8291 39.3802 40.6468 39.4306 40.4611 39.4306H35.8075C35.684 40.2855 35.2566 41.0672 34.6036 41.6326C33.9506 42.198 33.1157 42.5092 32.252 42.5092C31.3882 42.5092 30.5534 42.198 29.9004 41.6326C29.2474 41.0672 28.82 40.2855 28.6964 39.4306H24.0429C23.8571 39.4306 23.6748 39.3802 23.5154 39.2848C23.3561 39.1893 23.2256 39.0524 23.138 38.8886C23.0503 38.7248 23.0088 38.5402 23.0178 38.3547C23.0268 38.1691 23.086 37.9895 23.1891 37.835L25.069 35.0151V30.1954C25.069 26.8871 27.306 24.1001 30.3495 23.2669ZM30.801 39.4306C30.907 39.7309 31.1035 39.9909 31.3635 40.1749C31.6234 40.3588 31.934 40.4576 32.2525 40.4576C32.5709 40.4576 32.8816 40.3588 33.1415 40.1749C33.4015 39.9909 33.598 39.7309 33.704 39.4306H30.8H30.801ZM32.252 25.0647C30.8912 25.0647 29.5862 25.6053 28.624 26.5675C27.6619 27.5296 27.1213 28.8346 27.1213 30.1954V35.3261C27.1213 35.5288 27.0614 35.7269 26.9489 35.8956L25.9607 37.3783H38.5422L37.554 35.8956C37.4419 35.7268 37.3823 35.5287 37.3827 35.3261V30.1954C37.3827 28.8346 36.8421 27.5296 35.8799 26.5675C34.9177 25.6053 33.6127 25.0647 32.252 25.0647Z" fill="white"/>
</svg>
