<svg width="65" height="65" viewBox="0 0 65 65" fill="none" xmlns="http://www.w3.org/2000/svg">
<circle cx="32.25" cy="32.25" r="32.25" fill="#72B8B7" fill-opacity="0.18"/>
<path d="M32.2527 15.1465C28.8702 15.1465 25.5636 16.1495 22.7512 18.0287C19.9387 19.908 17.7467 22.579 16.4522 25.704C15.1578 28.829 14.8191 32.2677 15.479 35.5852C16.1389 38.9028 17.7677 41.9501 20.1595 44.3419C22.5513 46.7337 25.5987 48.3625 28.9162 49.0224C32.2337 49.6823 35.6724 49.3436 38.7974 48.0492C41.9224 46.7548 44.5935 44.5627 46.4727 41.7503C48.3519 38.9378 49.3549 35.6313 49.3549 32.2488C49.3549 30.0028 48.9126 27.7789 48.0531 25.704C47.1936 23.6291 45.9339 21.7437 44.3458 20.1556C42.7577 18.5675 40.8724 17.3078 38.7974 16.4483C36.7225 15.5888 34.4986 15.1465 32.2527 15.1465ZM33.9629 39.0897C33.9629 39.5432 33.7827 39.9782 33.462 40.299C33.1412 40.6197 32.7062 40.7999 32.2527 40.7999C31.7991 40.7999 31.3641 40.6197 31.0434 40.299C30.7226 39.9782 30.5424 39.5432 30.5424 39.0897V30.5385C30.5424 30.0849 30.7226 29.6499 31.0434 29.3292C31.3641 29.0085 31.7991 28.8283 32.2527 28.8283C32.7062 28.8283 33.1412 29.0085 33.462 29.3292C33.7827 29.6499 33.9629 30.0849 33.9629 30.5385V39.0897ZM32.2527 27.1181C31.9144 27.1181 31.5838 27.0178 31.3025 26.8298C31.0213 26.6419 30.8021 26.3748 30.6726 26.0623C30.5432 25.7498 30.5093 25.4059 30.5753 25.0742C30.6413 24.7424 30.8042 24.4377 31.0434 24.1985C31.2825 23.9594 31.5873 23.7965 31.919 23.7305C32.2508 23.6645 32.5946 23.6984 32.9071 23.8278C33.2196 23.9572 33.4867 24.1764 33.6747 24.4577C33.8626 24.7389 33.9629 25.0696 33.9629 25.4078C33.9629 25.8614 33.7827 26.2964 33.462 26.6172C33.1412 26.9379 32.7062 27.1181 32.2527 27.1181Z" fill="#72B8B7"/>
</svg>
