<svg width="68" height="65" viewBox="0 0 68 65" fill="none" xmlns="http://www.w3.org/2000/svg">
<ellipse cx="33.5936" cy="32.25" rx="33.5936" ry="32.25" fill="#F3EDFF"/>
<ellipse cx="33.5975" cy="32.2532" rx="21.3778" ry="20.5227" fill="#814BFF"/>
<path d="M32.2134 36.4871C30.7607 37.1883 29.764 38.6321 29.764 40.2995M32.3458 35.7824C29.571 35.0096 27.5429 32.5516 27.5429 29.6383V21.1094H40.8693V30.7044L32.3458 35.7824ZM27.5429 23.2416H21.9902V27.5061C21.9902 30.181 23.9792 31.7705 26.4324 31.7705H27.5429V23.2416ZM43.1276 31.6478C45.0245 31.2278 46.422 29.7482 46.422 27.5061V23.2416H40.8693L43.1276 31.6478ZM31.985 40.2995H26.4324V44.5639H39.2035L31.985 40.2995ZM39.2035 30.7044C35.2169 30.7044 31.985 33.807 31.985 37.6342C31.985 41.4614 35.2169 44.5639 39.2035 44.5639C43.1902 44.5639 46.422 41.4614 46.422 37.6342C46.422 33.807 43.1902 30.7044 39.2035 30.7044ZM43.0904 34.9689L38.093 39.7664L35.3166 37.1011L43.0904 34.9689Z" stroke="white" stroke-width="2.25"/>
</svg>
